# Blender 5.0.1
# www.blender.org
mtllib Cofre.mtl
g Body.001_Mesh
v -0.473103 -0.126638 -0.873298
v -0.501552 0.000282 0.000535
v 0.001761 -0.130772 -0.999382
v 0.001761 0.031443 -0.170415
v -0.363907 0.015726 -0.107985
v -0.217643 0.024606 -0.150394
v -0.490437 -0.067965 -0.665501
v -0.497907 -0.037537 -0.446146
v -0.499866 -0.015394 -0.230380
v 0.001761 -0.052708 -0.796336
v 0.001761 -0.012241 -0.584899
v 0.001761 0.017325 -0.377657
v -0.194382 -0.052077 -0.785458
v -0.215150 -0.013735 -0.571743
v -0.220837 0.012941 -0.361069
v -0.330580 -0.056091 -0.739485
v -0.341689 -0.022472 -0.524747
v -0.352798 -0.000570 -0.316366
v -0.481906 -0.095353 -0.788843
v 0.001761 -0.090784 -0.937662
v -0.167829 -0.091672 -0.929656
v -0.325026 -0.093660 -0.881206
v -0.254038 0.022672 -0.140403
v -0.216677 -0.056392 -0.780775
v -0.239426 -0.019785 -0.564431
v -0.249650 0.005927 -0.352772
v -0.183072 -0.092562 -0.926752
v -0.244832 0.023075 -0.142930
v -0.211038 -0.052366 -0.781960
v -0.233285 -0.014818 -0.566280
v -0.242362 0.012856 -0.354871
v -0.179216 -0.092337 -0.927487
v -0.319471 -0.125223 -0.941508
v -0.472242 -0.122222 -0.871064
v -0.161886 -0.130667 -0.993092
v -0.252690 -0.127530 -0.963368
v -0.505302 -0.016794 -0.227671
v 0.505074 0.000282 0.000535
v 0.165805 -0.135407 -0.994680
v 0.367429 0.015726 -0.107985
v 0.221165 0.024606 -0.150394
v 0.493959 -0.067965 -0.665501
v 0.501429 -0.037537 -0.446146
v 0.503388 -0.015394 -0.230380
v 0.197904 -0.052077 -0.785458
v 0.218672 -0.013735 -0.571743
v 0.224359 0.012941 -0.361069
v 0.334102 -0.056091 -0.739485
v 0.345211 -0.022472 -0.524747
v 0.356320 -0.000570 -0.316366
v 0.485428 -0.095353 -0.788843
v 0.171351 -0.091672 -0.929656
v 0.328548 -0.093660 -0.881206
v 0.257560 0.022672 -0.140403
v 0.220199 -0.056392 -0.780775
v 0.242948 -0.019785 -0.564431
v 0.253172 0.005927 -0.352772
v 0.186594 -0.092562 -0.926752
v 0.259388 -0.131998 -0.964503
v 0.248354 0.023075 -0.142930
v 0.214560 -0.052366 -0.781960
v 0.236807 -0.014818 -0.566280
v 0.245884 0.012856 -0.354871
v 0.182738 -0.092337 -0.927487
v 0.322993 -0.125223 -0.941508
v 0.475764 -0.122222 -0.871064
v 0.247363 -0.132756 -0.967545
v 0.165408 -0.130667 -0.993092
v 0.256212 -0.127530 -0.963368
v 0.508824 -0.016794 -0.227671
vn -0.1894 0.9785 -0.0812
vn -0.1332 0.9881 -0.0774
vn -0.1237 0.9877 -0.0955
vn -0.0321 0.9949 -0.0961
vn -0.0000 0.9981 -0.0616
vn -0.0000 0.9947 -0.1025
vn -0.0789 0.9936 -0.0809
vn -0.4148 0.9050 -0.0945
vn -0.1510 0.9187 -0.3649
vn -0.3460 0.9043 -0.2501
vn -0.1333 0.9036 -0.4072
vn -0.1181 0.9706 -0.2096
vn -0.3797 0.9112 -0.1598
vn -0.1194 0.9836 -0.1352
vn -0.0757 0.9098 -0.4081
vn -0.0000 0.9739 -0.2271
vn -0.0000 0.9130 -0.4079
vn -0.0408 0.9721 -0.2308
vn -0.0000 0.9867 -0.1628
vn -0.0638 0.9855 -0.1575
vn -0.1801 0.9471 -0.2658
vn -0.1618 0.9706 -0.1781
vn -0.1579 0.9802 -0.1192
vn -0.2016 0.9130 -0.3547
vn -0.1509 0.8701 -0.4693
vn -0.0762 0.8447 -0.5297
vn -0.0000 0.8393 -0.5437
vn -0.1517 0.8522 -0.5007
vn -0.1301 0.9030 -0.4094
vn -0.3910 0.9158 -0.0916
vn -0.6492 0.7429 -0.1636
vn -0.5935 0.7599 -0.2653
vn -0.0770 0.9948 -0.0668
vn -0.0529 0.9973 -0.0517
vn -0.0645 0.9735 -0.2194
vn -0.1016 0.9836 -0.1487
vn -0.2801 0.9576 -0.0671
vn -0.1671 0.9836 -0.0680
vn -0.3605 0.4761 -0.8021
vn 0.1894 0.9785 -0.0812
vn 0.1237 0.9877 -0.0955
vn 0.1332 0.9881 -0.0774
vn 0.0321 0.9949 -0.0961
vn 0.4148 0.9050 -0.0945
vn 0.0789 0.9936 -0.0809
vn 0.1510 0.9187 -0.3649
vn 0.1333 0.9036 -0.4072
vn 0.3460 0.9043 -0.2501
vn 0.1181 0.9706 -0.2096
vn 0.3797 0.9112 -0.1598
vn 0.1194 0.9836 -0.1352
vn 0.0757 0.9098 -0.4081
vn 0.0408 0.9721 -0.2308
vn 0.0638 0.9855 -0.1575
vn 0.1801 0.9471 -0.2658
vn 0.1618 0.9706 -0.1781
vn 0.1579 0.9802 -0.1192
vn 0.2016 0.9130 -0.3547
vn 0.1509 0.8701 -0.4693
vn 0.0762 0.8447 -0.5297
vn 0.1517 0.8522 -0.5007
vn 0.1301 0.9030 -0.4094
vn 0.6492 0.7429 -0.1636
vn 0.3910 0.9158 -0.0916
vn 0.5935 0.7599 -0.2653
vn 0.0770 0.9948 -0.0668
vn 0.0529 0.9973 -0.0517
vn 0.0645 0.9735 -0.2194
vn 0.1016 0.9836 -0.1487
vn 0.2704 0.4131 -0.8696
vn 0.2943 0.2425 -0.9244
vn 0.2889 0.3258 -0.9002
vn 0.2892 0.3227 -0.9012
vn 0.2801 0.9576 -0.0671
vn 0.1671 0.9836 -0.0680
vn 0.2944 0.2407 -0.9249
vt 0.064844 0.814844
vt 0.192969 0.814844
vt 0.192969 0.942969
vt 0.549922 0.819453
vt 0.684453 0.819453
vt 0.684453 0.953985
s 1
g off
g Body.001_CarPaint_Atlas
usemtl CarPaint_Atlas
f 9/1/1 5/2/2 18/3/3
f 15/1/4 4/2/5 12/3/6
f 18/1/3 23/2/7 26/3/8
f 22/1/9 24/2/10 27/3/11
f 16/1/12 25/2/13 24/3/10
f 17/1/14 26/2/8 25/3/13
f 21/1/15 10/2/16 20/3/17
f 13/1/18 11/2/19 10/3/16
f 14/1/20 12/2/6 11/3/19
f 19/1/21 16/2/12 22/3/9
f 7/1/22 17/2/14 16/3/12
f 8/1/23 18/2/3 17/3/14
f 34/1/24 22/2/9 33/3/25
f 35/1/26 20/2/17 3/3/27
f 36/1/28 22/2/9 27/3/11
f 35/1/26 27/2/11 32/3/29
f 25/1/13 31/2/30 30/3/31
f 24/1/10 30/2/31 29/3/32
f 27/1/11 29/2/32 32/3/29
f 26/1/8 28/2/33 31/3/30
f 31/1/30 6/2/34 15/3/4
f 32/1/29 13/2/18 21/3/15
f 29/1/35 14/2/20 13/3/18
f 30/1/36 15/2/4 14/3/20
f 37/4/37 2/5/38 9/6/1
f 32/1/29 21/2/15 35/3/26
f 9/1/1 2/2/38 5/3/2
f 15/1/4 6/2/34 4/3/5
f 18/1/3 5/2/2 23/3/7
f 22/1/9 16/2/12 24/3/10
f 16/1/12 17/2/14 25/3/13
f 17/1/14 18/2/3 26/3/8
f 21/1/15 13/2/18 10/3/16
f 13/1/18 14/2/20 11/3/19
f 14/1/20 15/2/4 12/3/6
f 19/1/21 7/2/22 16/3/12
f 7/1/22 8/2/23 17/3/14
f 8/1/23 9/2/1 18/3/3
f 34/1/24 19/2/21 22/3/9
f 35/1/26 21/2/15 20/3/17
f 27/1/11 35/2/26 36/3/28
f 36/1/28 33/2/25 22/3/9
f 25/1/13 26/2/8 31/3/30
f 24/1/10 25/2/13 30/3/31
f 27/1/11 24/2/10 29/3/32
f 26/1/8 23/2/7 28/3/33
f 31/1/30 28/2/33 6/3/34
f 32/1/29 29/2/35 13/3/18
f 29/1/35 30/2/36 14/3/20
f 30/1/36 31/2/30 15/3/4
s 2
f 1/4/39 34/5/39 33/6/39
s 1
f 44/1/40 50/2/41 40/3/42
f 47/1/43 12/2/6 4/3/5
f 50/1/41 57/2/44 54/3/45
f 53/1/46 58/2/47 55/3/48
f 48/1/49 55/2/48 56/3/50
f 49/1/51 56/2/50 57/3/44
f 52/1/52 20/2/17 10/3/16
f 45/1/53 10/2/16 11/3/19
f 46/1/54 11/2/19 12/3/6
f 51/1/55 53/2/46 48/3/49
f 42/1/56 48/2/49 49/3/51
f 43/1/57 49/2/51 50/3/41
f 66/1/58 65/2/59 53/3/46
f 68/1/60 3/2/27 20/3/17
f 69/1/61 58/2/47 53/3/46
f 68/1/60 64/2/62 58/3/47
f 56/1/50 62/2/63 63/3/64
f 55/1/48 61/2/65 62/3/63
f 58/1/47 64/2/62 61/3/65
f 57/1/44 63/2/64 60/3/66
f 63/1/64 47/2/43 41/3/67
f 64/1/62 52/2/52 45/3/53
f 61/1/68 45/2/53 46/3/54
f 62/1/69 46/2/54 47/3/43
s 3
f 59/4/70 69/5/70 65/6/70
s 4
f 67/4/71 39/5/72 68/6/73
s 1
f 70/4/74 44/5/40 38/6/75
f 64/1/62 68/2/60 52/3/52
f 44/1/40 40/2/42 38/3/75
f 47/1/43 4/2/5 41/3/67
f 50/1/41 54/2/45 40/3/42
f 53/1/46 55/2/48 48/3/49
f 48/1/49 56/2/50 49/3/51
f 49/1/51 57/2/44 50/3/41
f 52/1/52 10/2/16 45/3/53
f 45/1/53 11/2/19 46/3/54
f 46/1/54 12/2/6 47/3/43
f 51/1/55 48/2/49 42/3/56
f 42/1/56 49/2/51 43/3/57
f 43/1/57 50/2/41 44/3/40
f 66/1/58 53/2/46 51/3/55
f 68/1/60 20/2/17 52/3/52
f 58/1/47 69/2/61 68/3/60
f 69/1/61 53/2/46 65/3/59
f 56/1/50 63/2/64 57/3/44
f 55/1/48 62/2/63 56/3/50
f 58/1/47 61/2/65 55/3/48
f 57/1/44 60/2/66 54/3/45
f 63/1/64 41/2/67 60/3/66
f 64/1/62 45/2/53 61/3/68
f 61/1/68 46/2/54 62/3/69
f 62/1/69 47/2/43 63/3/64
s 4
f 67/4/71 68/5/73 69/6/76
