# Blender 5.0.1
# www.blender.org
mtllib RuedaDerecha.mtl
g Tire_RR_Mesh
v 0.101111 -0.089307 0.117942
v 0.101111 -0.064467 0.132690
v 0.101111 -0.037227 0.142311
v 0.101111 -0.008635 0.146431
v 0.101111 0.020213 0.144894
v 0.101111 0.048207 0.137758
v 0.101111 0.074270 0.125299
v 0.101111 0.097402 0.107994
v 0.101111 0.116713 0.086509
v 0.101111 0.131462 0.061670
v 0.101111 0.141082 0.034430
v 0.101111 0.145203 0.005837
v 0.101111 0.143665 -0.023011
v 0.101111 0.136530 -0.051003
v 0.101111 0.124071 -0.077067
v 0.101111 0.106766 -0.100199
v 0.101111 0.085281 -0.119511
v 0.101111 0.060441 -0.134259
v 0.101111 0.033201 -0.143879
v 0.101111 0.004608 -0.147999
v 0.101111 -0.024239 -0.146463
v 0.101111 -0.052232 -0.139328
v 0.101111 -0.078295 -0.126868
v 0.101111 -0.101427 -0.109563
v 0.101111 -0.120739 -0.088079
v 0.101111 -0.135487 -0.063239
v 0.101111 -0.145107 -0.035999
v 0.101111 -0.149228 -0.007406
v 0.101111 -0.147691 0.021441
v 0.101111 -0.140556 0.049435
v 0.101111 -0.128097 0.075498
v 0.101111 -0.110791 0.098630
v 0.105956 -0.117279 0.155986
v 0.105956 -0.084479 0.175461
v 0.105956 -0.048511 0.188163
v 0.105956 -0.010756 0.193604
v 0.105956 0.027335 0.191575
v 0.105956 0.064299 0.182153
v 0.105956 0.098713 0.165701
v 0.105956 0.129258 0.142851
v 0.105956 0.154758 0.114482
v 0.105956 0.174233 0.081682
v 0.105956 0.186934 0.045714
v 0.105956 0.192376 0.007959
v 0.105956 0.190347 -0.030132
v 0.105956 0.180925 -0.067096
v 0.105956 0.164473 -0.101511
v 0.105956 0.141623 -0.132055
v 0.105956 0.113253 -0.157555
v 0.105956 0.080454 -0.177030
v 0.105956 0.044485 -0.189733
v 0.105956 0.006731 -0.195174
v 0.105956 -0.031362 -0.193144
v 0.105956 -0.068324 -0.183723
v 0.105956 -0.102740 -0.167270
v 0.105956 -0.133283 -0.144421
v 0.105956 -0.158783 -0.116051
v 0.105956 -0.178259 -0.083251
v 0.105956 -0.190961 -0.047283
v 0.105956 -0.196402 -0.009528
v 0.105956 -0.194373 0.028563
v 0.105956 -0.184951 0.065527
v 0.105956 -0.168499 0.099942
v 0.105956 -0.145649 0.130486
v 0.092521 -0.136878 0.182642
v 0.092521 -0.098502 0.205428
v 0.092521 -0.056418 0.220291
v 0.092521 -0.012243 0.226657
v 0.092521 0.032325 0.224282
v 0.092521 0.075574 0.213258
v 0.092521 0.115841 0.194009
v 0.092521 0.151579 0.167274
v 0.092521 0.181414 0.134081
v 0.092521 0.204200 0.095705
v 0.092521 0.219063 0.053620
v 0.092521 0.225428 0.009445
v 0.092521 0.223054 -0.035123
v 0.092521 0.212030 -0.078371
v 0.092521 0.192781 -0.118638
v 0.092521 0.166045 -0.154376
v 0.092521 0.132853 -0.184212
v 0.092521 0.094476 -0.206997
v 0.092521 0.052392 -0.221859
v 0.092521 0.008217 -0.228225
v 0.092521 -0.036351 -0.225852
v 0.092521 -0.079599 -0.214827
v 0.092521 -0.119867 -0.195579
v 0.092521 -0.155604 -0.168843
v 0.092521 -0.185440 -0.135650
v 0.092521 -0.208226 -0.097274
v 0.092521 -0.223088 -0.055190
v 0.092521 -0.229453 -0.011014
v 0.092521 -0.227080 0.033554
v 0.092521 -0.216056 0.076803
v 0.092521 -0.196807 0.117069
v 0.092521 -0.170071 0.152807
v -0.098059 -0.089307 0.117942
v -0.098059 -0.064467 0.132690
v -0.098059 -0.037227 0.142311
v -0.098059 -0.008635 0.146431
v -0.098059 0.020213 0.144894
v -0.098059 0.048207 0.137758
v -0.098059 0.074270 0.125299
v -0.098059 0.097402 0.107994
v -0.098059 0.116713 0.086509
v -0.098059 0.131462 0.061670
v -0.098059 0.141082 0.034430
v -0.098059 0.145203 0.005837
v -0.098059 0.143665 -0.023011
v -0.098059 0.136530 -0.051003
v -0.098059 0.124071 -0.077067
v -0.098059 0.106766 -0.100199
v -0.098059 0.085281 -0.119511
v -0.098059 0.060441 -0.134259
v -0.098059 0.033201 -0.143879
v -0.098059 0.004608 -0.147999
v -0.098059 -0.024239 -0.146463
v -0.098059 -0.052232 -0.139328
v -0.098059 -0.078295 -0.126868
v -0.098059 -0.101427 -0.109563
v -0.098059 -0.120739 -0.088079
v -0.098059 -0.135487 -0.063239
v -0.098059 -0.145107 -0.035999
v -0.098059 -0.149228 -0.007406
v -0.098059 -0.147691 0.021441
v -0.098059 -0.140556 0.049435
v -0.098059 -0.128097 0.075498
v -0.098059 -0.110791 0.098630
v -0.102904 -0.117279 0.155986
v -0.102904 -0.084479 0.175461
v -0.102904 -0.048511 0.188163
v -0.102904 -0.010756 0.193604
v -0.102904 0.027335 0.191575
v -0.102904 0.064299 0.182153
v -0.102904 0.098713 0.165701
v -0.102904 0.129258 0.142851
v -0.102904 0.154758 0.114482
v -0.102904 0.174233 0.081682
v -0.102904 0.186934 0.045714
v -0.102904 0.192376 0.007959
v -0.102904 0.190347 -0.030132
v -0.102904 0.180925 -0.067096
v -0.102904 0.164473 -0.101511
v -0.102904 0.141623 -0.132055
v -0.102904 0.113253 -0.157555
v -0.102904 0.080454 -0.177030
v -0.102904 0.044485 -0.189733
v -0.102904 0.006731 -0.195174
v -0.102904 -0.031362 -0.193144
v -0.102904 -0.068324 -0.183723
v -0.102904 -0.102740 -0.167270
v -0.102904 -0.133283 -0.144421
v -0.102904 -0.158783 -0.116051
v -0.102904 -0.178259 -0.083251
v -0.102904 -0.190961 -0.047283
v -0.102904 -0.196402 -0.009528
v -0.102904 -0.194373 0.028563
v -0.102904 -0.184951 0.065527
v -0.102904 -0.168499 0.099942
v -0.102904 -0.145649 0.130486
v -0.089470 -0.136878 0.182642
v -0.089470 -0.098502 0.205428
v -0.089470 -0.056418 0.220291
v -0.089470 -0.012243 0.226657
v -0.089470 0.032325 0.224282
v -0.089470 0.075574 0.213258
v -0.089470 0.115841 0.194009
v -0.089470 0.151579 0.167274
v -0.089470 0.181414 0.134081
v -0.089470 0.204200 0.095705
v -0.089470 0.219063 0.053620
v -0.089470 0.225428 0.009445
v -0.089470 0.223054 -0.035123
v -0.089470 0.212030 -0.078371
v -0.089470 0.192781 -0.118638
v -0.089470 0.166045 -0.154376
v -0.089470 0.132853 -0.184212
v -0.089470 0.094476 -0.206997
v -0.089470 0.052392 -0.221859
v -0.089470 0.008217 -0.228225
v -0.089470 -0.036351 -0.225852
v -0.089470 -0.079599 -0.214827
v -0.089470 -0.119867 -0.195579
v -0.089470 -0.155604 -0.168843
v -0.089470 -0.185440 -0.135650
v -0.089470 -0.208226 -0.097274
v -0.089470 -0.223088 -0.055190
v -0.089470 -0.229453 -0.011014
v -0.089470 -0.227080 0.033554
v -0.089470 -0.216056 0.076803
v -0.089470 -0.196807 0.117069
v -0.089470 -0.170071 0.152807
v 0.102570 -0.028585 0.047643
v 0.102570 -0.012319 0.053484
v 0.102570 0.035833 0.039451
v 0.102570 0.046415 0.025787
v 0.102570 0.047950 -0.024345
v 0.102570 0.038224 -0.038632
v 0.102570 -0.008981 -0.055582
v 0.102570 -0.025573 -0.050747
v 0.102570 -0.056281 -0.011092
v 0.102570 -0.056810 0.006183
v 0.107191 -0.044794 0.070854
v 0.107191 -0.011958 0.082061
v 0.107191 0.052899 0.062040
v 0.107191 0.073705 0.034274
v 0.107191 0.074707 -0.033596
v 0.107191 0.054728 -0.061963
v 0.107191 -0.009510 -0.083888
v 0.107191 -0.042663 -0.073654
v 0.107191 -0.083365 -0.019336
v 0.107191 -0.083877 0.015358
v 0.104336 -0.055322 0.097416
v 0.104336 -0.019867 0.109517
v 0.104336 0.074909 0.080262
v 0.104336 0.097374 0.050281
v 0.104336 0.098837 -0.048897
v 0.104336 0.077267 -0.079527
v 0.104336 -0.016606 -0.111566
v 0.104336 -0.052402 -0.100516
v 0.104336 -0.111881 -0.021140
v 0.104336 -0.112434 0.016320
v 0.089411 -0.062383 0.122746
v 0.089411 -0.029765 0.133878
v 0.093275 0.096816 0.094804
v 0.093275 0.117484 0.067223
v 0.089411 0.119438 -0.065239
v 0.089411 0.099593 -0.093417
v 0.089411 -0.025782 -0.136208
v 0.089411 -0.058714 -0.126042
v 0.089411 -0.138153 -0.020027
v 0.089411 -0.138661 0.014434
v 0.104209 0.060966 0.008575
v 0.104209 0.061215 -0.008283
v 0.104209 0.008547 0.062004
v 0.104209 0.024657 0.057031
v 0.104209 -0.048758 0.042445
v 0.104209 -0.058465 0.028661
v 0.104209 -0.047462 -0.045375
v 0.104209 -0.057572 -0.031884
v 0.104209 0.026350 -0.057789
v 0.104209 0.010395 -0.063235
v 0.102570 0.004955 0.054013
v 0.102570 0.021548 0.049177
v 0.102570 0.052256 0.009522
v 0.102570 0.052785 -0.007753
v 0.102570 0.024559 -0.049212
v 0.102570 0.008293 -0.055054
v 0.102570 -0.039860 -0.041021
v 0.102570 -0.050441 -0.027357
v 0.102570 -0.051976 0.022775
v 0.102570 -0.042249 0.037061
v 0.089411 0.131651 -0.033010
v 0.089411 0.130642 0.035369
v 0.089411 0.069940 0.116379
v 0.089411 0.004596 0.136550
v 0.089411 -0.091208 0.103851
v 0.089411 -0.130584 0.047938
v 0.089411 -0.129091 -0.053279
v 0.089411 -0.088082 -0.108006
v 0.089411 0.008643 -0.137865
v 0.089411 0.073364 -0.115775
v 0.089411 -0.112043 -0.083234
v 0.089411 -0.114427 0.078383
v 0.089411 0.038542 0.130592
v 0.089411 0.135466 0.001243
v 0.089411 0.042399 -0.130908
v 0.089411 0.124063 0.051296
v 0.089411 0.083379 0.105591
v 0.089411 -0.012585 0.135214
v 0.089411 -0.076795 0.113299
v 0.089411 -0.134622 0.031187
v 0.089411 -0.133622 -0.036654
v 0.089411 -0.073398 -0.117025
v 0.089411 -0.008569 -0.137037
v 0.089411 0.086479 -0.104596
v 0.089411 0.125544 -0.049125
v 0.100971 -0.063458 0.124945
v 0.100971 -0.030259 0.136275
v 0.100971 0.098576 0.096505
v 0.100971 0.119610 0.068433
v 0.100971 0.121599 -0.066385
v 0.100971 0.101401 -0.095065
v 0.100971 -0.026205 -0.138618
v 0.100971 -0.059722 -0.128272
v 0.100971 -0.140575 -0.020370
v 0.100971 -0.141093 0.014705
v 0.100971 0.134030 -0.033584
v 0.100971 0.133003 0.036012
v 0.100971 0.071220 0.118463
v 0.100971 0.004713 0.138993
v 0.100971 -0.092794 0.105714
v 0.100971 -0.132871 0.048806
v 0.100971 -0.131352 -0.054214
v 0.100971 -0.089614 -0.109915
v 0.100971 0.008833 -0.140304
v 0.100971 0.074705 -0.117821
v 0.100971 -0.114001 -0.084701
v 0.100971 -0.116427 0.079791
v 0.100971 0.039263 0.132929
v 0.100971 0.137912 0.001279
v 0.100971 0.043189 -0.133224
v 0.100971 0.126306 0.052223
v 0.100971 0.084898 0.107484
v 0.100971 -0.012773 0.137634
v 0.100971 -0.078126 0.115328
v 0.100971 -0.136982 0.031755
v 0.100971 -0.135963 -0.037291
v 0.100971 -0.074668 -0.119093
v 0.100971 -0.008686 -0.139461
v 0.100971 0.088053 -0.106443
v 0.100971 0.127814 -0.049984
v 0.100971 -0.069428 0.137161
v 0.100971 -0.033004 0.149594
v 0.100971 0.108350 0.105959
v 0.100971 0.131428 0.075159
v 0.100971 0.133610 -0.072760
v 0.100971 0.111450 -0.104227
v 0.100971 -0.028556 -0.152011
v 0.100971 -0.065330 -0.140659
v 0.100971 -0.154040 -0.022273
v 0.100971 -0.154607 0.016210
v 0.100971 0.147249 -0.036771
v 0.100971 0.146122 0.039588
v 0.100971 0.078337 0.130051
v 0.100971 0.005368 0.152575
v 0.100971 -0.101615 0.116062
v 0.100971 -0.145586 0.053624
v 0.100971 -0.143920 -0.059405
v 0.100971 -0.098126 -0.120519
v 0.100971 0.009887 -0.153862
v 0.100971 0.082159 -0.129194
v 0.100971 -0.124883 -0.092855
v 0.100971 -0.127546 0.087621
v 0.100971 0.043274 0.145922
v 0.100971 0.151508 0.001480
v 0.100971 0.047581 -0.146093
v 0.100971 0.138775 0.057373
v 0.100971 0.093343 0.118004
v 0.100971 -0.013819 0.151084
v 0.100971 -0.085522 0.126611
v 0.100971 -0.150098 0.034918
v 0.100971 -0.148979 -0.040839
v 0.100971 -0.081728 -0.130589
v 0.100971 -0.009335 -0.152936
v 0.100971 0.096805 -0.116710
v 0.100971 0.140429 -0.054766
v 0.097871 -0.002013 -0.000785
v 0.085878 -0.051047 0.069030
v 0.085878 -0.005894 0.084441
v 0.085878 0.049233 0.067424
v 0.085878 0.077843 0.029244
v 0.085878 0.078694 -0.028446
v 0.085878 0.051223 -0.067452
v 0.085878 -0.003380 -0.086089
v 0.085878 -0.048967 -0.072017
v 0.085878 -0.083564 -0.025845
v 0.085878 -0.084267 0.021859
v 0.083451 -0.059996 0.091609
v 0.083451 -0.012618 0.107780
v 0.083451 0.067942 0.082911
v 0.083451 0.097961 0.042849
v 0.083451 0.099204 -0.041452
v 0.083451 0.070380 -0.082381
v 0.083451 -0.009412 -0.109615
v 0.083451 -0.057246 -0.094849
v 0.083451 -0.107803 -0.027379
v 0.083451 -0.108541 0.022677
v 0.083164 0.067015 0.007399
v 0.083164 0.067226 -0.006930
v 0.083164 0.011535 0.067393
v 0.083164 0.025226 0.063166
v 0.083164 -0.054416 0.044883
v 0.083164 -0.062667 0.033168
v 0.083164 -0.053046 -0.047979
v 0.083164 -0.061639 -0.036511
v 0.083164 0.027101 -0.063905
v 0.083164 0.013539 -0.068533
v 0.070586 0.127096 -0.027948
v 0.070586 0.126239 0.030174
v 0.070586 0.063718 0.113611
v 0.070586 0.008176 0.130757
v 0.070586 -0.090498 0.097079
v 0.070586 -0.123968 0.049553
v 0.070586 -0.122430 -0.054698
v 0.070586 -0.087573 -0.101216
v 0.070586 0.012051 -0.131969
v 0.070586 0.067063 -0.113193
v 0.070586 -0.107940 -0.080159
v 0.070586 -0.110236 0.075431
v 0.070586 0.037029 0.125692
v 0.070586 0.130340 0.001167
v 0.070586 0.040743 -0.126056
v 0.070586 0.120646 0.043712
v 0.070586 0.075140 0.104443
v 0.070586 -0.006428 0.129621
v 0.070586 -0.078248 0.105110
v 0.070586 -0.127401 0.035313
v 0.070586 -0.126282 -0.040566
v 0.070586 -0.075091 -0.108882
v 0.070586 -0.002580 -0.131266
v 0.070586 0.078211 -0.103691
v 0.070586 0.121906 -0.041645
v -0.097901 -0.062383 0.122746
v -0.097901 -0.029765 0.133878
v -0.097901 0.096817 0.094803
v -0.097901 0.117484 0.067223
v -0.097901 0.119438 -0.065239
v -0.097901 0.099593 -0.093417
v -0.097901 -0.025782 -0.136208
v -0.097901 -0.058713 -0.126043
v -0.097901 -0.138153 -0.020028
v -0.097901 -0.138661 0.014434
v -0.097901 0.131651 -0.033011
v -0.097901 0.130642 0.035369
v -0.097901 0.069940 0.116379
v -0.097901 0.004596 0.136549
v -0.097901 -0.091208 0.103851
v -0.097901 -0.130584 0.047938
v -0.097901 -0.129091 -0.053280
v -0.097901 -0.088082 -0.108006
v -0.097901 0.008644 -0.137866
v -0.097901 0.073364 -0.115775
v -0.097901 -0.112043 -0.083234
v -0.097901 -0.114427 0.078383
v -0.097901 0.038542 0.130592
v -0.097901 0.135466 0.001243
v -0.097901 0.042399 -0.130909
v -0.097901 -0.068109 0.134463
v -0.097901 -0.032398 0.146651
v -0.097901 0.106190 0.103870
v -0.097901 0.128818 0.073673
v -0.097901 0.130957 -0.071352
v -0.097901 0.109230 -0.102204
v -0.097901 -0.028036 -0.149054
v -0.097901 -0.064092 -0.137924
v -0.097901 -0.151066 -0.021852
v -0.097901 -0.151623 0.015877
v -0.097901 0.144329 -0.036067
v -0.097901 0.143226 0.038797
v -0.097901 0.076765 0.127491
v -0.097901 0.005223 0.149575
v -0.097901 -0.099668 0.113776
v -0.097901 -0.142779 0.052561
v -0.097901 -0.141144 -0.058259
v -0.097901 -0.096246 -0.118177
v -0.097901 0.009654 -0.150868
v -0.097901 0.080514 -0.126683
v -0.097901 -0.122480 -0.091054
v -0.097901 -0.125090 0.085891
v -0.097901 0.042389 0.143053
v -0.097901 0.148506 0.001435
v -0.097901 0.046611 -0.143250
v 0.097871 -0.006747 0.024143
v 0.097871 -0.014219 0.021460
v 0.097871 0.020232 0.011420
v 0.097871 0.015372 0.017697
v 0.097871 0.016470 -0.018169
v 0.097871 0.020937 -0.011607
v 0.097871 -0.012835 -0.023734
v 0.097871 -0.005214 -0.025955
v 0.097871 -0.027184 0.002416
v 0.097871 -0.026941 -0.005519
v 0.097871 0.001188 0.024386
v 0.097871 0.008810 0.022165
v 0.097871 0.022915 0.003949
v 0.097871 0.023158 -0.003985
v 0.097871 0.010193 -0.023030
v 0.097871 0.002722 -0.025713
v 0.097871 -0.019397 -0.019268
v 0.097871 -0.024257 -0.012991
v 0.097871 -0.024963 0.010038
v 0.097871 -0.020496 0.016600
vn 0.9948 -0.0960 0.0348
vn 0.9878 0.1542 -0.0235
vn 0.9948 -0.1009 0.0154
vn 0.9948 0.0991 0.0244
vn 0.9878 -0.1558 -0.0070
vn 0.9878 -0.1515 -0.0373
vn 0.9948 -0.0873 0.0528
vn 0.9878 0.1467 -0.0532
vn 0.9948 0.1020 0.0046
vn 0.9878 -0.1542 0.0235
vn 0.9948 -0.0753 0.0689
vn 0.9878 0.1335 -0.0808
vn 0.9948 0.0433 -0.0924
vn 0.9878 -0.0373 0.1515
vn 0.9878 -0.0661 0.1413
vn 0.9948 0.0960 -0.0348
vn 0.9948 0.1009 -0.0154
vn 0.9878 0.0924 -0.1257
vn 0.9878 0.1152 -0.1052
vn 0.9948 0.0046 -0.1020
vn 0.9948 0.0244 -0.0991
vn 0.9948 0.0873 -0.0528
vn 0.9878 -0.1467 0.0532
vn 0.9948 -0.0433 0.0924
vn 0.9948 -0.0605 0.0822
vn 0.9878 0.0235 0.1542
vn 0.9878 -0.0070 0.1558
vn 0.9948 0.0753 -0.0689
vn 0.9878 -0.1335 0.0808
vn 0.9878 0.0373 -0.1515
vn 0.9878 0.0661 -0.1413
vn 0.9948 -0.0348 -0.0960
vn 0.9948 -0.0154 -0.1009
vn 0.9878 -0.0924 0.1257
vn 0.9878 -0.1151 0.1052
vn 0.9948 -0.0244 0.0991
vn 0.9878 0.0070 -0.1558
vn 0.9948 -0.0528 -0.0873
vn 0.9878 0.0532 0.1467
vn 0.5429 -0.3559 0.7606
vn 0.5429 -0.4975 0.6766
vn 0.9948 0.0154 0.1009
vn 0.9948 -0.0046 0.1020
vn 0.9878 0.1052 0.1152
vn 0.9878 0.0807 0.1335
vn 0.9948 0.0348 0.0960
vn 0.9878 -0.0235 -0.1542
vn 0.9948 -0.0822 -0.0605
vn 0.9948 -0.0689 -0.0753
vn 0.9948 0.0528 0.0873
vn 0.9878 -0.0532 -0.1467
vn 0.9878 0.1413 0.0661
vn 0.9878 0.1257 0.0924
vn 0.9878 -0.1052 -0.1152
vn 0.9878 -0.0807 -0.1335
vn 0.9948 -0.0991 -0.0244
vn 0.9948 -0.0924 -0.0433
vn 0.9948 0.0822 0.0605
vn 0.9948 0.0689 0.0753
vn 0.9878 0.1558 0.0070
vn 0.9878 0.1515 0.0373
vn 0.9878 -0.1413 -0.0661
vn 0.9878 -0.1257 -0.0924
vn 0.9948 -0.1020 -0.0046
vn 0.9948 0.0924 0.0433
vn 0.5429 0.8155 0.2007
vn 0.5429 -0.6766 -0.4975
vn 0.5429 0.8390 0.0377
vn 0.5429 -0.8155 -0.2007
vn 0.5429 -0.7606 -0.3559
vn 0.5429 0.8302 -0.1267
vn 0.5429 0.7185 -0.4347
vn 0.5429 0.7895 -0.2862
vn 0.5429 -0.8390 -0.0377
vn 0.5429 -0.8302 0.1267
vn 0.5429 0.4975 -0.6766
vn 0.5429 0.6199 -0.5665
vn 0.5429 -0.2007 0.8155
vn 0.5429 -0.7185 0.4347
vn 0.5429 -0.7895 0.2862
vn 0.5429 0.1267 0.8302
vn 0.5429 -0.0377 0.8390
vn 0.5429 -0.6199 0.5665
vn 0.5429 0.2007 -0.8155
vn 0.5429 0.3559 -0.7607
vn 0.5429 0.2862 0.7895
vn 0.5429 0.4347 0.7185
vn 0.5429 -0.1267 -0.8302
vn 0.5429 0.0377 -0.8390
vn 0.5429 -0.2862 -0.7895
vn 0.5429 0.5665 0.6199
vn 0.5429 -0.4347 -0.7185
vn 0.5429 0.6766 0.4975
vn 0.5429 0.7606 0.3559
vn 0.5429 -0.5666 -0.6199
vn -0.5429 0.5665 0.6199
vn -0.5429 0.6766 0.4975
vn -0.5429 -0.1267 -0.8302
vn -0.5429 -0.2862 -0.7895
vn -0.5429 0.4347 0.7185
vn -0.5429 0.0377 -0.8389
vn -0.5429 0.2862 0.7895
vn -0.5429 0.2007 -0.8155
vn -0.5429 -0.6199 0.5665
vn -0.5429 -0.4975 0.6766
vn -0.5429 0.1267 0.8302
vn -0.5429 0.3559 -0.7606
vn -0.5429 -0.7185 0.4347
vn -0.5429 -0.0377 0.8389
vn -0.5429 0.4975 -0.6766
vn -0.5429 -0.7895 0.2862
vn -0.5429 -0.2007 0.8155
vn -0.5429 0.6199 -0.5665
vn -0.5429 -0.8302 0.1267
vn -0.5429 -0.3559 0.7606
vn -0.5429 0.7185 -0.4347
vn -0.5429 -0.8389 -0.0377
vn -0.5429 0.7895 -0.2862
vn -0.5429 -0.8155 -0.2007
vn -0.5429 0.8302 -0.1267
vn -0.5429 -0.7606 -0.3559
vn -0.5429 0.8389 0.0377
vn -0.5429 -0.6766 -0.4975
vn -0.5429 0.8155 0.2007
vn -0.5429 -0.5665 -0.6199
vn -0.5429 0.7606 0.3559
vn -0.5429 -0.4347 -0.7185
vn 0.9948 0.0605 -0.0822
vn -0.9878 0.1542 -0.0235
vn -0.9948 -0.0960 0.0348
vn -0.9948 -0.1009 0.0154
vn -0.9948 0.0991 0.0244
vn -0.9878 -0.1558 -0.0070
vn -0.9948 0.1020 0.0046
vn -0.9878 0.1467 -0.0532
vn -0.9948 -0.0873 0.0528
vn -0.9878 -0.1542 0.0235
vn -0.9948 0.1009 -0.0154
vn -0.9878 0.1335 -0.0807
vn -0.9948 -0.0753 0.0689
vn -0.9948 0.0433 -0.0924
vn -0.9878 -0.0373 0.1515
vn -0.9948 0.0244 -0.0991
vn -0.9948 0.0960 -0.0348
vn -0.9878 0.0924 -0.1257
vn -0.9948 -0.0605 0.0822
vn -0.9948 0.0046 -0.1020
vn -0.9878 -0.1466 0.0532
vn -0.9948 0.0873 -0.0528
vn -0.9948 -0.0433 0.0924
vn -0.9878 -0.0070 0.1558
vn -0.9948 -0.0154 -0.1009
vn -0.9878 -0.1335 0.0807
vn -0.9948 0.0753 -0.0689
vn -0.9878 0.0373 -0.1515
vn -0.9948 -0.0244 0.0991
vn -0.9878 0.0235 0.1542
vn -0.9948 -0.0348 -0.0960
vn -0.9878 -0.0924 0.1257
vn -0.9948 0.0605 -0.0822
vn -0.9878 0.0070 -0.1558
vn -0.9948 -0.0046 0.1020
vn -0.9878 0.0532 0.1466
vn -0.9948 -0.0528 -0.0873
vn -0.9878 -0.0661 0.1413
vn -0.9948 0.0154 0.1009
vn -0.9878 0.1052 0.1151
vn -0.9948 -0.0689 -0.0753
vn -0.9878 -0.0235 -0.1542
vn -0.9948 0.0348 0.0960
vn -0.9948 -0.0822 -0.0605
vn -0.9878 -0.0532 -0.1467
vn -0.9948 0.0528 0.0873
vn -0.9878 0.1413 0.0661
vn -0.9948 -0.0924 -0.0433
vn -0.9878 -0.1052 -0.1151
vn -0.9948 0.0689 0.0753
vn -0.9948 -0.0991 -0.0244
vn -0.9878 -0.1257 -0.0924
vn -0.9948 0.0822 0.0605
vn -0.9878 0.1558 0.0070
vn -0.9948 -0.1020 -0.0046
vn -0.9948 0.0924 0.0433
vn -0.9878 -0.1413 -0.0661
vn -0.9878 0.1514 0.0373
vn -0.9878 -0.1515 -0.0373
vn -0.9878 0.1151 -0.1052
vn -0.9878 0.0661 -0.1413
vn -0.9878 -0.1151 0.1052
vn -0.9878 0.0807 0.1334
vn -0.9878 0.1257 0.0924
vn -0.9878 -0.0807 -0.1334
vn 0.9869 0.0706 0.1450
vn 0.9988 0.0002 0.0481
vn 0.9869 0.0183 0.1600
vn 0.9869 -0.1423 -0.0758
vn 0.9988 -0.0285 -0.0388
vn 0.9869 -0.1089 -0.1187
vn 0.9869 0.1597 -0.0224
vn 0.9988 0.0458 0.0147
vn 0.9869 0.1579 0.0321
vn 0.9869 -0.1161 0.1120
vn 0.9988 -0.0457 0.0151
vn 0.9869 -0.1466 0.0668
vn 0.9869 0.0281 -0.1588
vn 0.9988 0.0281 -0.0391
vn 0.9869 0.0793 -0.1402
vn 0.9417 -0.1188 -0.3148
vn 0.9417 -0.0793 -0.3270
vn 0.9610 0.2479 0.1225
vn 0.9610 0.1872 0.2035
vn 0.9417 -0.3362 0.0157
vn 0.9417 -0.3355 -0.0256
vn 0.9417 0.2627 -0.2103
vn 0.9417 0.2865 -0.1765
vn 0.9989 0.0015 -0.0478
vn 0.9417 -0.1280 0.3112
vn 0.8665 -0.0919 -0.4906
vn 0.9096 0.2292 0.3466
vn 0.8665 -0.4950 -0.0642
vn 0.8665 0.4382 -0.2390
vn 0.8665 -0.1064 0.4877
vn 0.8665 -0.2140 0.4509
vn 0.9834 0.1318 -0.1245
vn 0.9846 0.1262 -0.1206
vn 0.9836 0.1609 -0.0812
vn 0.9843 0.1612 -0.0721
vn 0.9834 0.1591 0.0869
vn 0.9846 0.1537 0.0827
vn 0.9836 0.1270 0.1279
vn 0.9843 0.1184 0.1311
vn 0.9834 -0.0335 0.1782
vn 0.9846 -0.0312 0.1717
vn 0.9836 -0.0824 0.1603
vn 0.9843 -0.0881 0.1531
vn 0.9834 -0.1798 0.0232
vn 0.9846 -0.1730 0.0234
vn 0.9836 -0.1779 -0.0289
vn 0.9843 -0.1728 -0.0365
vn 0.9834 -0.0777 -0.1638
vn 0.9846 -0.0757 -0.1573
vn 0.9836 -0.0275 -0.1781
vn 0.9843 -0.0187 -0.1756
vn 0.9096 0.3970 0.1226
vn 0.8726 0.4883 -0.0100
vn 0.8726 0.1276 0.4715
vn 0.9417 -0.0889 0.3246
vn 0.8591 -0.0397 0.5102
vn 0.8591 -0.2806 0.4280
vn 0.8665 -0.4967 0.0495
vn 0.8591 -0.4975 0.1199
vn 0.8591 -0.4938 -0.1345
vn 0.8665 -0.2006 -0.4571
vn 0.8591 -0.2678 -0.4361
vn 0.8591 -0.0246 -0.5112
vn 0.8665 0.3727 -0.3320
vn 0.8591 0.3320 -0.3895
vn 0.8591 0.4786 -0.1814
vn 0.2188 -0.8954 -0.3879
vn 0.2847 -0.8328 -0.4747
vn 0.2054 -0.8962 -0.3933
vn 0.2071 -0.5363 0.8182
vn 0.2055 -0.6349 0.7448
vn 0.2070 0.7829 0.5867
vn 0.2070 0.9042 0.3735
vn 0.2070 -0.7230 0.6591
vn 0.2071 -0.8642 0.4586
vn 0.2070 -0.5120 -0.8337
vn 0.2188 -0.6237 -0.7504
vn 0.2055 -0.9151 0.3468
vn 0.2055 -0.9152 0.3468
vn 0.2071 0.7999 -0.5633
vn 0.2070 0.6346 -0.7446
vn 0.2071 0.4035 0.8913
vn 0.2071 0.1691 0.9636
vn 0.2070 0.1691 0.9636
vn 0.2055 0.0758 -0.9757
vn 0.2071 0.1975 -0.9582
vn 0.2055 0.0759 -0.9757
vn 0.2070 -0.2886 -0.9348
vn 0.2071 0.9723 -0.1083
vn 0.2071 0.9687 0.1369
vn 0.2070 0.6347 -0.7445
vn 0.2055 0.5365 -0.8185
vn 0.2071 -0.9511 0.2293
vn 0.2070 -0.9782 -0.0144
vn 0.2055 0.9514 -0.2294
vn 0.2071 -0.3160 0.9259
vn 0.2071 -0.0758 0.9754
vn 0.2055 0.9442 0.2573
vn 0.2071 -0.9439 -0.2573
vn 0.2055 0.5122 0.8340
vn 0.2054 0.5122 0.8340
vn 0.2847 -0.6895 -0.6660
vn 0.2054 -0.6291 -0.7497
vn 0.2055 0.0470 0.9775
vn 0.2070 -0.0470 -0.9772
vn 0.2071 0.4296 -0.8790
vn 0.2054 0.5365 -0.8185
vn 0.2071 0.9148 -0.3467
vn 0.2054 0.9442 0.2573
vn 0.2071 0.6124 0.7629
vn 0.2071 0.1974 -0.9582
vn 0.3030 -0.6850 -0.6625
vn 1.0000 -0.0000 -0.0000
vn 0.9963 -0.0108 -0.0850
vn 0.9963 0.0850 -0.0108
vn 0.9963 0.0412 -0.0751
vn 0.9963 -0.0587 -0.0624
vn 0.9963 0.0624 -0.0587
vn 0.9963 -0.0751 -0.0412
vn 0.9963 -0.0624 0.0587
vn 0.9963 -0.0850 0.0108
vn 0.9963 -0.0842 -0.0160
vn 0.9963 0.0365 0.0775
vn 0.9963 -0.0160 0.0842
vn 0.9963 0.0751 0.0412
vn 0.9963 0.0587 0.0624
vn 0.3140 0.3997 0.8612
vn 0.2878 0.7073 0.6457
vn 0.2889 0.6976 0.6557
vn 0.2811 0.0664 -0.9574
vn 0.2878 -0.3696 -0.8835
vn 0.2889 -0.3823 -0.8777
vn 0.3140 -0.6761 -0.6665
vn 0.3061 0.0738 -0.9491
vn 0.2885 -0.0317 -0.9570
vn 0.2811 0.9238 0.2601
vn 0.2808 0.9342 -0.2199
vn 0.2812 0.9310 -0.2327
vn 0.2877 0.8326 -0.4732
vn 0.2811 0.5328 -0.7982
vn 0.2889 0.8392 -0.4608
vn 0.3141 -0.8296 -0.4617
vn 0.2878 -0.9518 -0.1066
vn 0.2889 -0.9497 -0.1204
vn 0.2878 0.8183 0.4976
vn 0.3140 0.9388 0.1418
vn 0.2890 0.8252 0.4853
vn 0.3061 0.9255 -0.2231
vn 0.2884 0.9003 -0.3259
vn 0.2811 0.0381 0.9589
vn 0.2808 0.4979 0.8206
vn 0.2811 0.5090 0.8135
vn 0.3061 0.4982 0.8112
vn 0.2884 0.5882 0.7556
vn 0.2884 -0.9274 0.2383
vn 0.3061 -0.8902 0.3373
vn 0.3061 -0.6176 0.7245
vn 0.2884 -0.5368 0.7928
vn 0.2884 -0.5133 -0.8083
vn 0.3061 -0.5959 -0.7424
vn 0.3192 0.3774 -0.8693
vn 0.3307 0.2214 -0.9174
vn 0.3140 0.4249 -0.8490
vn 0.2884 0.6102 -0.7379
vn 0.3061 0.5219 -0.7962
vn 0.3307 -0.8183 0.4701
vn 0.3192 -0.7283 0.6064
vn 0.3140 -0.6955 0.6463
vn 0.3192 0.9434 0.0903
vn 0.3307 0.9409 -0.0730
vn 0.2884 0.8904 0.3522
vn 0.3061 0.9185 0.2503
vn 0.3307 -0.7000 -0.6330
vn 0.3192 -0.8017 -0.5053
vn 0.3192 0.2056 0.9251
vn 0.3307 0.3602 0.8723
vn 0.3140 0.1553 0.9366
vn 0.2884 -0.0599 0.9556
vn 0.3061 0.0457 0.9509
vn 0.3307 0.3857 -0.8613
vn 0.3192 0.2328 -0.9187
vn 0.3140 0.1828 -0.9317
vn 0.3192 -0.8163 0.4814
vn 0.3307 -0.7183 0.6121
vn 0.3141 -0.8428 0.4371
vn 0.2829 -0.5129 0.8105
vn 0.2628 -0.3117 0.9131
vn 0.3307 0.9383 0.1007
vn 0.3192 0.9456 -0.0625
vn 0.3140 0.9425 -0.1141
vn 0.2829 -0.9293 -0.2374
vn 0.2628 -0.9647 -0.0142
vn 0.2885 -0.9199 -0.2656
vn 0.3192 -0.7101 -0.6276
vn 0.3307 -0.8041 -0.4940
vn 0.2829 -0.0614 -0.9572
vn 0.2628 -0.2846 -0.9219
vn 0.3307 0.1942 0.9235
vn 0.3192 0.3516 0.8800
vn 0.2829 0.8914 -0.3542
vn 0.2628 0.7889 -0.5556
vn 0.2811 -0.9002 0.3326
vn 0.2808 -0.6266 0.7270
vn 0.2811 -0.6164 0.7355
vn 0.2878 0.7261 -0.6245
vn 0.2890 0.7166 -0.6348
vn 0.2828 0.6123 0.7383
vn 0.2628 0.7721 0.5786
vn 0.2829 0.8805 0.3803
vn 0.2884 0.8904 0.3523
vn 0.2878 -0.9545 0.0785
vn 0.2890 -0.9529 0.0924
vn 0.2829 0.6338 -0.7199
vn 0.2808 -0.6048 -0.7452
vn 0.2811 -0.8900 -0.3589
vn 0.2811 -0.5945 -0.7534
vn 0.2878 -0.3955 0.8722
vn 0.2889 -0.4080 0.8660
vn 0.2829 -0.4888 -0.8253
vn 0.2884 -0.5132 -0.8083
vn 0.2829 -0.9359 0.2099
vn 0.2884 -0.9274 0.2382
vn 0.2878 -0.2203 0.9320
vn 0.2889 -0.2066 0.9348
vn 0.2877 -0.1927 -0.9381
vn 0.2889 -0.1789 -0.9405
vn 0.2828 -0.0896 0.9550
vn 0.2884 -0.0600 0.9556
vn 0.2808 0.0795 -0.9565
vn 0.3061 -0.8799 -0.3635
vn -0.0000 0.9902 0.1399
vn -0.0000 0.9648 0.2629
vn -0.0000 -0.9648 -0.2630
vn -0.0000 -0.9999 -0.0148
vn -0.0000 -0.9999 -0.0147
vn -0.0000 0.6260 0.7798
vn -0.0000 0.5233 0.8521
vn -0.0000 -0.2950 -0.9555
vn -0.0000 -0.0481 -0.9988
vn -0.0000 -0.2949 -0.9555
vn -0.0000 -0.8833 0.4688
vn -0.0000 -0.9351 0.3544
vn -0.0000 -0.9721 0.2344
vn -0.0000 0.9351 -0.3544
vn -0.0000 0.8176 -0.5758
vn -0.0000 0.4391 -0.8985
vn -0.0000 0.2018 -0.9794
vn -0.0000 0.1729 0.9849
vn -0.0000 0.0481 0.9988
vn -0.0000 -0.5482 0.8363
vn -0.0000 -0.6487 0.7610
vn -0.0000 0.8003 0.5997
vn -0.0000 -0.7188 -0.6952
vn -0.0000 -0.8643 -0.5029
vn -0.0000 -0.7254 -0.6883
vn -0.0000 -0.6260 -0.7798
vn -0.0000 0.0775 -0.9970
vn -0.0000 0.9242 0.3818
vn -0.0000 -0.7390 0.6737
vn -1.0000 -0.0000 -0.0000
vn -0.0000 0.4124 0.9110
vn -0.0000 0.6487 -0.7610
vn -0.0000 0.5482 -0.8363
vn -0.0000 -0.5233 -0.8521
vn -0.0000 0.9939 -0.1107
vn -0.0000 -0.3230 0.9464
vn -0.0000 -0.0775 0.9970
vn -0.0000 -0.9242 -0.3818
vn -0.0000 -0.8691 -0.4946
vn -0.0000 0.9721 -0.2344
vn 0.9963 0.0160 -0.0842
vn 0.9963 -0.0775 0.0365
vn 0.9963 0.0108 0.0850
vn 0.9963 0.0842 0.0160
vn 0.9963 -0.0366 -0.0775
vn 0.9963 -0.0412 0.0751
vn 0.9963 0.0775 -0.0365
vn 0.9989 0.0269 0.0395
vn 0.9989 -0.0450 -0.0162
vn 0.9989 0.0459 -0.0134
vn 0.9989 -0.0293 0.0378
vn 0.3030 -0.8283 -0.4714
vn 0.2808 0.9273 0.2474
vn 0.2808 0.5218 -0.8055
vn 0.2808 0.0513 0.9584
vn 0.3295 0.2218 -0.9178
vn 0.3061 0.5220 -0.7961
vn 0.3295 -0.8185 0.4705
vn 0.3295 0.9414 -0.0727
vn 0.3061 0.9185 0.2504
vn 0.3295 -0.7005 -0.6331
vn 0.3294 0.3601 0.8728
vn 0.3295 0.3856 -0.8618
vn 0.3295 -0.7189 0.6121
vn 0.3295 0.9388 0.1005
vn 0.3295 -0.8043 -0.4945
vn 0.3295 0.1946 0.9239
vn 0.2627 0.7889 -0.5556
vn 0.2808 -0.8956 0.3450
vn 0.2808 -0.8851 -0.3712
vt 0.064519 0.310612
vt 0.208919 0.310612
vt 0.208919 0.455013
vt 0.289469 0.305094
vt 0.452718 0.305094
vt 0.452718 0.468343
s 1
g off
g Tire_RR_CarPaint_Atlas
usemtl CarPaint_Atlas
f 14/1/1 45/2/2 13/3/3
f 27/1/4 60/2/5 59/3/6
f 15/1/7 46/2/8 14/3/1
f 28/1/9 61/2/10 60/3/5
f 16/1/11 47/2/12 15/3/7
f 2/1/13 35/2/14 34/3/15
f 30/1/16 61/2/10 29/3/17
f 16/1/11 49/2/18 48/3/19
f 4/1/20 35/2/14 3/3/21
f 31/1/22 62/2/23 30/3/16
f 18/1/24 49/2/18 17/3/25
f 4/1/20 37/2/26 36/3/27
f 32/1/28 63/2/29 31/3/22
f 18/1/24 51/2/30 50/3/31
f 6/1/32 37/2/26 5/3/33
f 32/1/28 33/2/34 64/3/35
f 19/1/36 52/2/37 51/3/30
f 7/1/38 38/2/39 6/3/32
f 33/1/34 66/2/40 65/3/41
f 21/1/42 52/2/37 20/3/43
f 7/1/38 40/2/44 39/3/45
f 22/1/46 53/2/47 21/3/42
f 9/1/48 40/2/44 8/3/49
f 23/1/50 54/2/51 22/3/46
f 9/1/48 42/2/52 41/3/53
f 23/1/50 56/2/54 55/3/55
f 11/1/56 42/2/52 10/3/57
f 25/1/58 56/2/54 24/3/59
f 11/1/56 44/2/60 43/3/61
f 25/1/58 58/2/62 57/3/63
f 12/1/64 45/2/2 44/3/60
f 27/1/4 58/2/62 26/3/65
f 44/1/60 75/2/66 43/3/61
f 58/1/62 89/2/67 57/3/63
f 45/1/2 76/2/68 44/3/60
f 58/1/62 91/2/69 90/3/70
f 46/1/8 77/2/71 45/3/2
f 60/1/5 91/2/69 59/3/6
f 46/1/8 79/2/72 78/3/73
f 61/1/10 92/2/74 60/3/5
f 48/1/19 79/2/72 47/3/12
f 35/1/14 66/2/40 34/3/15
f 62/1/23 93/2/75 61/3/10
f 48/1/19 81/2/76 80/3/77
f 36/1/27 67/2/78 35/3/14
f 62/1/23 95/2/79 94/3/80
f 50/1/31 81/2/76 49/3/18
f 36/1/27 69/2/81 68/3/82
f 63/1/29 96/2/83 95/3/79
f 50/1/31 83/2/84 82/3/85
f 37/1/26 70/2/86 69/3/81
f 33/1/34 96/2/83 64/3/35
f 52/1/37 83/2/84 51/3/30
f 38/1/39 71/2/87 70/3/86
f 52/1/37 85/2/88 84/3/89
f 40/1/44 71/2/87 39/3/45
f 53/1/47 86/2/90 85/3/88
f 41/1/53 72/2/91 40/3/44
f 54/1/51 87/2/92 86/3/90
f 42/1/52 73/2/93 41/3/53
f 56/1/54 87/2/92 55/3/55
f 42/1/52 75/2/66 74/3/94
f 56/1/54 89/2/67 88/3/95
f 168/1/96 73/2/93 169/3/97
f 181/1/98 86/2/90 182/3/99
f 167/1/100 72/2/91 168/3/96
f 180/1/101 85/2/88 181/3/98
f 166/1/102 71/2/87 167/3/100
f 179/1/103 84/2/89 180/3/101
f 192/1/104 65/2/41 161/3/105
f 165/1/106 70/2/86 166/3/102
f 178/1/107 83/2/84 179/3/103
f 191/1/108 96/2/83 192/3/104
f 164/1/109 69/2/81 165/3/106
f 177/1/110 82/2/85 178/3/107
f 190/1/111 95/2/79 191/3/108
f 163/1/112 68/2/82 164/3/109
f 176/1/113 81/2/76 177/3/110
f 189/1/114 94/2/80 190/3/111
f 162/1/115 67/2/78 163/3/112
f 175/1/116 80/2/77 176/3/113
f 188/1/117 93/2/75 189/3/114
f 161/1/105 66/2/40 162/3/115
f 174/1/118 79/2/72 175/3/116
f 187/1/119 92/2/74 188/3/117
f 173/1/120 78/2/73 174/3/118
f 186/1/121 91/2/69 187/3/119
f 172/1/122 77/2/71 173/3/120
f 185/1/123 90/2/70 186/3/121
f 171/1/124 76/2/68 172/3/122
f 184/1/125 89/2/67 185/3/123
f 170/1/126 75/2/66 171/3/124
f 183/1/127 88/2/95 184/3/125
f 169/1/97 74/2/94 170/3/126
f 2/1/13 33/2/34 1/3/128
f 141/1/129 110/2/130 109/3/131
f 123/1/132 156/2/133 124/3/134
f 142/1/135 111/2/136 110/3/130
f 124/1/134 157/2/137 125/3/138
f 143/1/139 112/2/140 111/3/136
f 98/1/141 131/2/142 99/3/143
f 157/1/137 126/2/144 125/3/138
f 112/1/140 145/2/145 113/3/146
f 131/1/142 100/2/147 99/3/143
f 158/1/148 127/2/149 126/3/144
f 145/1/145 114/2/150 113/3/146
f 132/1/151 101/2/152 100/3/147
f 159/1/153 128/2/154 127/3/149
f 114/1/150 147/2/155 115/3/156
f 133/1/157 102/2/158 101/3/152
f 128/1/154 129/2/159 97/3/160
f 115/1/156 148/2/161 116/3/162
f 134/1/163 103/2/164 102/3/158
f 129/1/159 162/2/115 130/3/165
f 148/1/161 117/2/166 116/3/162
f 103/1/164 136/2/167 104/3/168
f 149/1/169 118/2/170 117/3/166
f 136/1/167 105/2/171 104/3/168
f 150/1/172 119/2/173 118/3/170
f 105/1/171 138/2/174 106/3/175
f 119/1/173 152/2/176 120/3/177
f 138/1/174 107/2/178 106/3/175
f 120/1/177 153/2/179 121/3/180
f 107/1/178 140/2/181 108/3/182
f 153/1/179 122/2/183 121/3/180
f 108/1/182 141/2/129 109/3/131
f 154/1/184 123/2/132 122/3/183
f 171/1/124 140/2/181 139/3/185
f 185/1/123 154/2/184 153/3/179
f 172/1/122 141/2/129 140/3/181
f 154/1/184 187/2/119 155/3/186
f 173/1/120 142/2/135 141/3/129
f 187/1/119 156/2/133 155/3/186
f 142/1/135 175/2/116 143/3/139
f 188/1/117 157/2/137 156/3/133
f 175/1/116 144/2/187 143/3/139
f 162/1/115 131/2/142 130/3/165
f 189/1/114 158/2/148 157/3/137
f 144/1/187 177/2/110 145/3/145
f 163/1/112 132/2/151 131/3/142
f 158/1/148 191/2/108 159/3/153
f 177/1/110 146/2/188 145/3/145
f 132/1/151 165/2/106 133/3/157
f 159/1/153 192/2/104 160/3/189
f 146/1/188 179/2/103 147/3/155
f 133/1/157 166/2/102 134/3/163
f 160/1/189 161/2/105 129/3/159
f 179/1/103 148/2/161 147/3/155
f 134/1/163 167/2/100 135/3/190
f 148/1/161 181/2/98 149/3/169
f 167/1/100 136/2/167 135/3/190
f 149/1/169 182/2/99 150/3/172
f 168/1/96 137/2/191 136/3/167
f 150/1/172 183/2/127 151/3/192
f 137/1/191 170/2/126 138/3/174
f 183/1/127 152/2/176 151/3/192
f 138/1/174 171/2/124 139/3/185
f 184/1/125 153/2/179 152/3/176
f 129/1/159 98/2/141 97/3/160
f 182/1/99 87/2/92 183/3/127
f 14/1/1 46/2/8 45/3/2
f 27/1/4 28/2/9 60/3/5
f 15/1/7 47/2/12 46/3/8
f 28/1/9 29/2/17 61/3/10
f 16/1/11 48/2/19 47/3/12
f 2/1/13 3/2/21 35/3/14
f 30/1/16 62/2/23 61/3/10
f 16/1/11 17/2/25 49/3/18
f 4/1/20 36/2/27 35/3/14
f 31/1/22 63/2/29 62/3/23
f 18/1/24 50/2/31 49/3/18
f 4/1/20 5/2/33 37/3/26
f 32/1/28 64/2/35 63/3/29
f 18/1/24 19/2/36 51/3/30
f 6/1/32 38/2/39 37/3/26
f 32/1/28 1/2/128 33/3/34
f 19/1/36 20/2/43 52/3/37
f 7/1/38 39/2/45 38/3/39
f 33/1/34 34/2/15 66/3/40
f 21/1/42 53/2/47 52/3/37
f 7/1/38 8/2/49 40/3/44
f 22/1/46 54/2/51 53/3/47
f 9/1/48 41/2/53 40/3/44
f 23/1/50 55/2/55 54/3/51
f 9/1/48 10/2/57 42/3/52
f 23/1/50 24/2/59 56/3/54
f 11/1/56 43/2/61 42/3/52
f 25/1/58 57/2/63 56/3/54
f 11/1/56 12/2/64 44/3/60
f 25/1/58 26/2/65 58/3/62
f 12/1/64 13/2/3 45/3/2
f 27/1/4 59/2/6 58/3/62
f 44/1/60 76/2/68 75/3/66
f 58/1/62 90/2/70 89/3/67
f 45/1/2 77/2/71 76/3/68
f 58/1/62 59/2/6 91/3/69
f 46/1/8 78/2/73 77/3/71
f 60/1/5 92/2/74 91/3/69
f 46/1/8 47/2/12 79/3/72
f 61/1/10 93/2/75 92/3/74
f 48/1/19 80/2/77 79/3/72
f 35/1/14 67/2/78 66/3/40
f 62/1/23 94/2/80 93/3/75
f 48/1/19 49/2/18 81/3/76
f 36/1/27 68/2/82 67/3/78
f 62/1/23 63/2/29 95/3/79
f 50/1/31 82/2/85 81/3/76
f 36/1/27 37/2/26 69/3/81
f 63/1/29 64/2/35 96/3/83
f 50/1/31 51/2/30 83/3/84
f 37/1/26 38/2/39 70/3/86
f 33/1/34 65/2/41 96/3/83
f 52/1/37 84/2/89 83/3/84
f 38/1/39 39/2/45 71/3/87
f 52/1/37 53/2/47 85/3/88
f 40/1/44 72/2/91 71/3/87
f 53/1/47 54/2/51 86/3/90
f 41/1/53 73/2/93 72/3/91
f 54/1/51 55/2/55 87/3/92
f 42/1/52 74/2/94 73/3/93
f 56/1/54 88/2/95 87/3/92
f 42/1/52 43/2/61 75/3/66
f 56/1/54 57/2/63 89/3/67
f 168/1/96 72/2/91 73/3/93
f 181/1/98 85/2/88 86/3/90
f 167/1/100 71/2/87 72/3/91
f 180/1/101 84/2/89 85/3/88
f 166/1/102 70/2/86 71/3/87
f 179/1/103 83/2/84 84/3/89
f 192/1/104 96/2/83 65/3/41
f 165/1/106 69/2/81 70/3/86
f 178/1/107 82/2/85 83/3/84
f 191/1/108 95/2/79 96/3/83
f 164/1/109 68/2/82 69/3/81
f 177/1/110 81/2/76 82/3/85
f 190/1/111 94/2/80 95/3/79
f 163/1/112 67/2/78 68/3/82
f 176/1/113 80/2/77 81/3/76
f 189/1/114 93/2/75 94/3/80
f 162/1/115 66/2/40 67/3/78
f 175/1/116 79/2/72 80/3/77
f 188/1/117 92/2/74 93/3/75
f 161/1/105 65/2/41 66/3/40
f 174/1/118 78/2/73 79/3/72
f 187/1/119 91/2/69 92/3/74
f 173/1/120 77/2/71 78/3/73
f 186/1/121 90/2/70 91/3/69
f 172/1/122 76/2/68 77/3/71
f 185/1/123 89/2/67 90/3/70
f 171/1/124 75/2/66 76/3/68
f 184/1/125 88/2/95 89/3/67
f 170/1/126 74/2/94 75/3/66
f 183/1/127 87/2/92 88/3/95
f 169/1/97 73/2/93 74/3/94
f 2/1/13 34/2/15 33/3/34
f 141/1/129 142/2/135 110/3/130
f 123/1/132 155/2/186 156/3/133
f 142/1/135 143/2/139 111/3/136
f 124/1/134 156/2/133 157/3/137
f 143/1/139 144/2/187 112/3/140
f 98/1/141 130/2/165 131/3/142
f 157/1/137 158/2/148 126/3/144
f 112/1/140 144/2/187 145/3/145
f 131/1/142 132/2/151 100/3/147
f 158/1/148 159/2/153 127/3/149
f 145/1/145 146/2/188 114/3/150
f 132/1/151 133/2/157 101/3/152
f 159/1/153 160/2/189 128/3/154
f 114/1/150 146/2/188 147/3/155
f 133/1/157 134/2/163 102/3/158
f 128/1/154 160/2/189 129/3/159
f 115/1/156 147/2/155 148/3/161
f 134/1/163 135/2/190 103/3/164
f 129/1/159 161/2/105 162/3/115
f 148/1/161 149/2/169 117/3/166
f 103/1/164 135/2/190 136/3/167
f 149/1/169 150/2/172 118/3/170
f 136/1/167 137/2/191 105/3/171
f 150/1/172 151/2/192 119/3/173
f 105/1/171 137/2/191 138/3/174
f 119/1/173 151/2/192 152/3/176
f 138/1/174 139/2/185 107/3/178
f 120/1/177 152/2/176 153/3/179
f 107/1/178 139/2/185 140/3/181
f 153/1/179 154/2/184 122/3/183
f 108/1/182 140/2/181 141/3/129
f 154/1/184 155/2/186 123/3/132
f 171/1/124 172/2/122 140/3/181
f 185/1/123 186/2/121 154/3/184
f 172/1/122 173/2/120 141/3/129
f 154/1/184 186/2/121 187/3/119
f 173/1/120 174/2/118 142/3/135
f 187/1/119 188/2/117 156/3/133
f 142/1/135 174/2/118 175/3/116
f 188/1/117 189/2/114 157/3/137
f 175/1/116 176/2/113 144/3/187
f 162/1/115 163/2/112 131/3/142
f 189/1/114 190/2/111 158/3/148
f 144/1/187 176/2/113 177/3/110
f 163/1/112 164/2/109 132/3/151
f 158/1/148 190/2/111 191/3/108
f 177/1/110 178/2/107 146/3/188
f 132/1/151 164/2/109 165/3/106
f 159/1/153 191/2/108 192/3/104
f 146/1/188 178/2/107 179/3/103
f 133/1/157 165/2/106 166/3/102
f 160/1/189 192/2/104 161/3/105
f 179/1/103 180/2/101 148/3/161
f 134/1/163 166/2/102 167/3/100
f 148/1/161 180/2/101 181/3/98
f 167/1/100 168/2/96 136/3/167
f 149/1/169 181/2/98 182/3/99
f 168/1/96 169/2/97 137/3/191
f 150/1/172 182/2/99 183/3/127
f 137/1/191 169/2/97 170/3/126
f 183/1/127 184/2/125 152/3/176
f 138/1/174 170/2/126 171/3/124
f 184/1/125 185/2/123 153/3/179
f 129/1/159 130/2/165 98/3/141
f 182/1/99 86/2/90 87/3/92
s 2
f 200/4/193 209/5/194 199/6/195
f 196/4/196 205/5/197 195/6/198
f 202/4/199 211/5/200 201/6/201
f 198/4/202 207/5/203 197/6/204
f 194/4/205 203/5/206 193/6/207
f 209/4/194 220/5/208 219/6/209
f 205/4/197 216/5/210 215/6/211
f 211/4/200 222/5/212 221/6/213
f 207/4/203 218/5/214 217/6/215
f 204/4/216 213/5/217 203/6/206
f 220/4/208 229/5/218 219/6/209
f 216/4/210 225/5/219 215/6/211
f 222/4/212 231/5/220 221/6/213
f 218/4/214 227/5/221 217/6/215
f 213/4/217 224/5/222 223/6/223
f 193/4/207 237/5/224 252/6/225
f 238/4/226 202/5/199 251/6/227
f 252/4/225 238/5/226 251/6/227
f 201/4/201 240/5/228 250/6/229
f 239/4/230 200/5/193 249/6/231
f 250/4/229 239/5/230 249/6/231
f 199/4/195 242/5/232 248/6/233
f 241/4/234 198/5/202 247/6/235
f 248/4/233 241/5/234 247/6/235
f 197/4/204 234/5/236 246/6/237
f 233/4/238 196/5/196 245/6/239
f 246/4/237 233/5/238 245/6/239
f 195/4/198 236/5/240 244/6/241
f 235/4/242 194/5/205 243/6/243
f 244/4/241 235/5/242 243/6/243
f 226/4/244 216/5/210 268/6/245
f 215/4/211 225/5/219 269/6/246
f 224/4/222 214/5/247 270/6/248
f 213/4/217 223/5/223 271/6/249
f 232/4/250 222/5/212 272/6/251
f 221/4/213 231/5/220 273/6/252
f 230/4/253 220/5/208 274/6/254
f 219/4/209 229/5/218 275/6/255
f 228/4/256 218/5/214 276/6/257
f 217/4/215 227/5/221 277/6/258
s 3
f 303/4/259 226/5/260 268/6/261
f 262/4/262 311/5/263 276/6/263
f 263/4/264 294/5/265 298/6/264
f 228/4/266 282/5/267 227/6/267
f 255/4/268 304/5/269 290/6/268
f 227/4/267 312/5/270 277/6/271
f 264/4/272 292/5/273 299/6/272
f 230/4/274 284/5/275 229/6/276
f 305/4/277 224/5/278 270/6/279
f 265/4/280 290/5/268 300/6/280
f 232/4/281 286/5/282 231/6/282
f 257/4/283 306/5/284 292/6/273
f 253/4/285 301/5/286 266/6/286
f 307/4/287 232/5/281 272/6/287
f 267/4/288 296/5/289 302/6/288
f 259/4/265 308/5/290 294/6/265
f 254/4/291 303/5/259 268/6/261
f 309/4/292 230/5/274 274/6/293
f 225/4/294 304/5/269 269/6/295
f 261/4/289 310/5/296 296/6/289
f 256/4/297 305/5/277 270/6/279
f 311/4/263 228/5/266 276/6/263
f 223/4/298 306/5/284 271/6/299
f 262/4/262 302/5/288 297/6/262
f 258/4/300 307/5/287 272/6/287
f 254/4/291 301/5/286 289/6/291
f 231/4/282 308/5/290 273/6/301
f 265/4/280 291/5/297 256/6/297
f 260/4/302 309/5/292 274/6/293
f 264/4/272 293/5/300 258/6/300
f 279/4/303 223/5/298 224/6/278
f 253/4/285 312/5/270 288/6/285
f 229/4/276 310/5/296 275/6/296
f 260/4/302 298/5/264 295/6/302
f 226/4/260 280/5/304 225/6/294
s 4
f 281/4/305 315/5/305 280/6/305
f 278/4/305 341/5/305 306/6/305
f 297/4/305 337/5/305 332/6/305
f 318/4/305 282/5/305 283/6/305
f 293/4/305 342/5/305 307/6/305
f 289/4/305 336/5/305 324/6/305
f 285/4/305 319/5/305 284/6/305
f 286/4/305 343/5/305 308/6/305
f 300/4/305 326/5/305 291/6/305
f 322/4/305 286/5/305 287/6/305
f 295/4/305 344/5/305 309/6/305
f 299/4/305 328/5/305 293/6/305
f 288/4/305 347/5/305 323/6/305
f 284/4/305 345/5/305 310/6/305
f 298/4/305 330/5/305 295/6/305
f 338/4/305 281/5/305 303/6/305
f 297/4/305 346/5/305 311/6/305
f 294/4/305 333/5/305 298/6/305
f 290/4/305 339/5/305 325/6/305
f 282/4/305 347/5/305 312/6/305
f 299/4/305 327/5/305 334/6/305
f 340/4/305 279/5/305 305/6/305
f 290/4/305 335/5/305 300/6/305
f 292/4/305 341/5/305 327/6/305
f 301/4/305 323/5/305 336/6/305
f 342/4/305 287/5/305 307/6/305
f 296/4/305 337/5/305 302/6/305
f 294/4/305 343/5/305 329/6/305
f 289/4/305 338/5/305 303/6/305
f 344/4/305 285/5/305 309/6/305
f 280/4/305 339/5/305 304/6/305
f 296/4/305 345/5/305 331/6/305
f 279/4/305 313/5/305 278/6/305
f 291/4/305 340/5/305 305/6/305
f 346/4/305 283/5/305 311/6/305
s 2
f 194/4/205 464/5/306 243/6/243
f 462/4/307 251/5/227 202/6/199
f 455/4/308 194/5/205 193/6/207
f 244/4/241 457/5/309 195/6/198
f 473/4/310 193/5/207 252/6/225
f 195/4/198 456/5/311 196/6/196
f 456/4/311 245/5/239 196/6/196
f 464/4/306 244/5/241 243/6/243
f 197/4/204 458/5/312 198/6/202
f 467/4/313 197/5/204 246/6/237
f 466/4/314 246/5/237 245/6/239
f 199/4/195 460/5/315 200/6/193
f 458/4/312 247/5/235 198/6/202
f 247/4/235 469/5/316 248/6/233
f 201/4/201 462/5/307 202/6/199
f 469/4/316 199/5/195 248/6/233
f 249/4/231 471/5/317 250/6/229
f 200/4/193 470/5/318 249/6/231
f 251/4/227 473/5/310 252/6/225
f 471/4/317 201/5/201 250/6/229
s 5
f 217/4/319 353/5/320 207/6/321
s 6
f 241/4/322 354/5/323 208/6/324
f 354/4/323 218/5/325 208/6/324
s 7
f 396/4/326 256/5/327 270/6/326
s 5
f 234/4/328 369/5/329 233/6/330
s 6
f 355/4/331 242/5/332 209/6/333
s 8
f 213/4/334 349/5/335 203/6/336
s 9
f 350/4/337 214/5/338 204/6/339
s 10
f 398/4/340 258/5/341 272/6/340
s 9
f 236/4/342 371/5/343 235/6/344
s 11
f 400/4/345 260/5/346 274/6/345
s 12
f 253/4/347 403/5/348 277/6/348
s 13
f 402/4/349 262/5/350 276/6/349
s 14
f 255/4/351 395/5/352 269/6/352
s 5
f 362/4/353 268/5/354 216/6/355
s 15
f 257/4/356 397/5/357 271/6/357
s 9
f 269/4/358 361/5/359 215/6/360
f 360/4/361 270/5/362 214/6/338
s 16
f 259/4/363 399/5/364 273/6/364
s 8
f 271/4/365 359/5/366 213/6/334
f 368/4/367 272/5/368 222/6/369
s 17
f 261/4/370 401/5/371 275/6/371
s 18
f 273/4/372 367/5/373 221/6/374
f 366/4/375 274/5/376 220/6/377
s 13
f 388/4/378 267/5/379 262/6/350
s 6
f 275/4/380 365/5/381 219/6/382
s 19
f 380/4/383 266/5/384 254/6/385
s 6
f 364/4/386 276/5/387 218/6/325
s 7
f 382/4/388 265/5/389 256/6/327
s 5
f 277/4/390 363/5/391 217/6/319
s 10
f 384/4/392 264/5/393 258/6/341
s 8
f 237/4/394 374/5/395 238/6/396
s 5
f 233/4/330 352/5/397 206/6/398
s 11
f 386/4/399 263/5/400 260/6/346
s 5
f 353/4/320 234/5/328 207/6/321
s 6
f 219/4/382 355/5/331 209/6/333
s 11
f 263/4/400 385/5/401 259/6/402
s 9
f 235/4/344 350/5/337 204/6/339
s 18
f 356/4/403 220/5/377 210/6/404
s 10
f 264/4/393 383/5/405 257/6/356
s 18
f 376/4/406 239/5/407 240/6/408
s 9
f 351/4/409 236/5/342 205/6/410
f 215/4/360 351/5/409 205/6/410
s 7
f 265/4/389 381/5/411 255/6/412
s 8
f 349/4/335 237/5/394 203/6/336
s 5
f 352/4/397 216/5/355 206/6/398
s 19
f 266/4/384 379/5/413 253/6/414
s 8
f 238/4/396 358/5/415 212/6/416
s 18
f 221/4/374 357/5/417 211/6/418
s 13
f 267/4/379 387/5/419 261/6/420
s 6
f 242/4/332 377/5/421 241/6/322
s 18
f 239/4/407 356/5/403 210/6/404
s 8
f 358/4/415 222/5/369 212/6/416
s 19
f 394/4/422 254/5/385 268/6/422
s 18
f 357/4/417 240/5/408 211/6/418
s 20
f 412/4/423 231/5/423 273/6/424
f 254/4/425 427/5/426 266/6/427
f 421/4/428 260/5/428 274/6/429
f 265/4/430 417/5/431 426/6/432
f 408/4/433 277/5/434 414/6/435
f 258/4/436 425/5/437 264/6/437
f 404/4/438 224/5/439 223/6/438
f 410/4/440 229/5/440 275/6/441
f 423/4/442 262/5/442 276/6/443
f 260/4/428 424/5/444 263/6/444
f 406/4/445 226/5/446 225/6/447
f 406/4/445 225/5/447 269/6/448
f 270/4/449 405/5/439 417/6/431
f 263/4/444 420/5/450 259/6/450
f 408/4/433 228/5/451 227/6/433
s 21
f 432/4/452 415/5/452 407/6/452
s 20
f 229/4/440 411/5/453 230/6/453
f 264/4/437 418/5/454 257/6/454
f 404/4/438 223/5/438 271/6/455
f 255/4/456 426/5/432 416/6/456
f 231/4/423 413/5/457 232/6/457
s 21
f 436/4/452 421/5/452 411/6/452
s 20
f 253/4/435 427/5/426 414/6/435
f 267/4/458 422/5/459 261/6/459
f 262/4/442 428/5/458 267/6/458
s 21
f 442/4/452 426/5/452 417/6/452
f 437/4/452 413/5/452 412/6/452
f 414/4/452 433/5/452 408/6/452
f 419/4/452 450/5/452 425/6/452
f 422/4/452 435/5/452 410/6/452
f 434/4/452 423/5/452 409/6/452
f 446/4/452 424/5/452 421/6/452
f 416/4/452 431/5/452 406/6/452
f 405/4/452 442/5/452 417/6/452
f 449/4/452 420/5/452 424/6/452
f 425/4/452 443/5/452 418/6/452
f 443/4/452 404/5/452 418/6/452
f 451/4/452 416/5/452 426/6/452
f 438/4/452 419/5/452 413/6/452
f 427/4/452 439/5/452 414/6/452
f 445/4/452 412/5/452 420/6/452
f 453/4/452 422/5/452 428/6/452
f 404/4/452 430/5/452 405/6/452
f 406/4/452 432/5/452 407/6/452
f 423/4/452 453/5/452 428/6/452
f 433/4/452 409/5/452 408/6/452
f 440/4/452 427/5/452 415/6/452
f 435/4/452 411/5/452 410/6/452
s 20
f 268/4/460 407/5/461 415/6/425
f 419/4/436 258/5/436 272/6/462
s 2
f 348/4/305 454/5/463 455/6/308
f 348/4/305 456/5/311 457/6/309
f 348/4/305 458/5/312 459/6/464
f 348/4/305 460/5/315 461/6/465
f 348/4/305 462/5/307 463/6/466
f 348/4/305 465/5/467 464/6/306
f 348/4/305 467/5/313 466/6/314
f 348/4/305 469/5/316 468/6/468
f 348/4/305 471/5/317 470/6/318
f 348/4/305 473/5/310 472/6/469
f 348/4/305 464/5/306 454/6/463
f 348/4/305 457/5/309 465/6/467
f 348/4/305 466/5/314 456/6/311
f 348/4/305 459/5/464 467/6/313
f 348/4/305 468/5/468 458/6/312
f 348/4/305 461/5/465 469/6/316
f 348/4/305 470/5/318 460/6/315
f 348/4/305 463/5/466 471/6/317
f 348/4/305 472/5/469 462/6/307
f 348/4/305 455/5/308 473/6/310
f 200/4/193 210/5/470 209/6/194
f 196/4/196 206/5/471 205/6/197
f 202/4/199 212/5/472 211/6/200
f 198/4/202 208/5/473 207/6/203
f 194/4/205 204/5/216 203/6/206
f 209/4/194 210/5/470 220/6/208
f 205/4/197 206/5/471 216/6/210
f 211/4/200 212/5/472 222/6/212
f 207/4/203 208/5/473 218/6/214
f 204/4/216 214/5/247 213/6/217
f 220/4/208 230/5/253 229/6/218
f 216/4/210 226/5/244 225/6/219
f 222/4/212 232/5/250 231/6/220
f 218/4/214 228/5/256 227/6/221
f 213/4/217 214/5/247 224/6/222
f 193/4/207 203/5/206 237/6/224
f 238/4/226 212/5/472 202/6/199
f 252/4/225 237/5/224 238/6/226
f 201/4/201 211/5/200 240/6/228
f 239/4/230 210/5/470 200/6/193
f 250/4/229 240/5/228 239/6/230
f 199/4/195 209/5/194 242/6/232
f 241/4/234 208/5/473 198/6/202
f 248/4/233 242/5/232 241/6/234
f 197/4/204 207/5/203 234/6/236
f 233/4/238 206/5/471 196/6/196
f 246/4/237 234/5/236 233/6/238
f 195/4/198 205/5/197 236/6/240
f 235/4/242 204/5/216 194/6/205
f 244/4/241 236/5/240 235/6/242
s 3
f 303/4/259 281/5/474 226/6/260
f 262/4/262 297/5/262 311/6/263
f 263/4/264 259/5/265 294/6/265
f 228/4/266 283/5/266 282/6/267
f 255/4/268 269/5/295 304/6/269
f 227/4/267 282/5/267 312/6/270
f 264/4/272 257/5/283 292/6/273
f 230/4/274 285/5/274 284/6/275
f 305/4/277 279/5/303 224/6/278
f 265/4/280 255/5/268 290/6/268
f 232/4/281 287/5/281 286/6/282
f 257/4/283 271/5/299 306/6/284
f 253/4/285 288/5/285 301/6/286
f 307/4/287 287/5/281 232/6/281
f 267/4/288 261/5/289 296/6/289
f 259/4/265 273/5/301 308/6/290
f 254/4/291 289/5/291 303/6/259
f 309/4/292 285/5/274 230/6/274
f 225/4/294 280/5/304 304/6/269
f 261/4/289 275/5/296 310/6/296
f 256/4/297 291/5/297 305/6/277
f 311/4/263 283/5/266 228/6/266
f 223/4/298 278/5/298 306/6/284
f 262/4/262 267/5/288 302/6/288
f 258/4/300 293/5/300 307/6/287
f 254/4/291 266/5/286 301/6/286
f 231/4/282 286/5/282 308/6/290
f 265/4/280 300/5/280 291/6/297
f 260/4/302 295/5/302 309/6/292
f 264/4/272 299/5/272 293/6/300
f 279/4/303 278/5/298 223/6/298
f 253/4/285 277/5/271 312/6/270
f 229/4/276 284/5/275 310/6/296
f 260/4/302 263/5/264 298/6/264
f 226/4/260 281/5/474 280/6/304
s 4
f 281/4/305 316/5/305 315/6/305
f 278/4/305 313/5/305 341/6/305
f 297/4/305 302/5/305 337/6/305
f 318/4/305 317/5/305 282/6/305
f 293/4/305 328/5/305 342/6/305
f 289/4/305 301/5/305 336/6/305
f 285/4/305 320/5/305 319/6/305
f 286/4/305 321/5/305 343/6/305
f 300/4/305 335/5/305 326/6/305
f 322/4/305 321/5/305 286/6/305
f 295/4/305 330/5/305 344/6/305
f 299/4/305 334/5/305 328/6/305
f 288/4/305 312/5/305 347/6/305
f 284/4/305 319/5/305 345/6/305
f 298/4/305 333/5/305 330/6/305
f 338/4/305 316/5/305 281/6/305
f 297/4/305 332/5/305 346/6/305
f 294/4/305 329/5/305 333/6/305
f 290/4/305 304/5/305 339/6/305
f 282/4/305 317/5/305 347/6/305
f 299/4/305 292/5/305 327/6/305
f 340/4/305 314/5/305 279/6/305
f 290/4/305 325/5/305 335/6/305
f 292/4/305 306/5/305 341/6/305
f 301/4/305 288/5/305 323/6/305
f 342/4/305 322/5/305 287/6/305
f 296/4/305 331/5/305 337/6/305
f 294/4/305 308/5/305 343/6/305
f 289/4/305 324/5/305 338/6/305
f 344/4/305 320/5/305 285/6/305
f 280/4/305 315/5/305 339/6/305
f 296/4/305 310/5/305 345/6/305
f 279/4/305 314/5/305 313/6/305
f 291/4/305 326/5/305 340/6/305
f 346/4/305 318/5/305 283/6/305
s 2
f 194/4/205 454/5/463 464/6/306
f 462/4/307 472/5/469 251/6/227
f 455/4/308 454/5/463 194/6/205
f 244/4/241 465/5/467 457/6/309
f 473/4/310 455/5/308 193/6/207
f 195/4/198 457/5/309 456/6/311
f 456/4/311 466/5/314 245/6/239
f 464/4/306 465/5/467 244/6/241
f 197/4/204 459/5/464 458/6/312
f 467/4/313 459/5/464 197/6/204
f 466/4/314 467/5/313 246/6/237
f 199/4/195 461/5/465 460/6/315
f 458/4/312 468/5/468 247/6/235
f 247/4/235 468/5/468 469/6/316
f 201/4/201 463/5/466 462/6/307
f 469/4/316 461/5/465 199/6/195
f 249/4/231 470/5/318 471/6/317
f 200/4/193 460/5/315 470/6/318
f 251/4/227 472/5/469 473/6/310
f 471/4/317 463/5/466 201/6/201
s 5
f 217/4/319 363/5/391 353/6/320
s 6
f 241/4/322 377/5/421 354/6/323
f 354/4/323 364/5/386 218/6/325
s 7
f 396/4/326 382/5/388 256/6/327
s 5
f 234/4/328 370/5/475 369/6/329
s 6
f 355/4/331 378/5/476 242/6/332
s 8
f 213/4/334 359/5/366 349/6/335
s 9
f 350/4/337 360/5/361 214/6/338
s 10
f 398/4/340 384/5/392 258/6/341
s 9
f 236/4/342 372/5/477 371/6/343
s 11
f 400/4/345 386/5/399 260/6/346
s 19
f 253/4/414 379/5/413 403/6/348
s 13
f 402/4/349 388/5/378 262/6/350
s 7
f 255/4/412 381/5/411 395/6/352
s 5
f 362/4/353 394/5/478 268/6/354
s 10
f 257/4/356 383/5/405 397/6/479
s 9
f 269/4/358 395/5/480 361/6/359
f 360/4/361 396/5/481 270/6/362
s 11
f 259/4/402 385/5/401 399/6/482
s 8
f 271/4/365 397/5/483 359/6/366
f 368/4/367 398/5/484 272/6/368
s 13
f 261/4/420 387/5/419 401/6/371
s 18
f 273/4/372 399/5/485 367/6/373
f 366/4/375 400/5/486 274/6/376
s 13
f 388/4/378 393/5/379 267/6/379
s 6
f 275/4/380 401/5/487 365/6/381
s 19
f 380/4/383 392/5/384 266/6/384
s 6
f 364/4/386 402/5/488 276/6/387
s 7
f 382/4/388 391/5/389 265/6/389
s 5
f 277/4/390 403/5/489 363/6/391
s 10
f 384/4/392 390/5/490 264/6/393
s 8
f 237/4/394 373/5/491 374/6/395
s 5
f 233/4/330 369/5/329 352/6/397
s 11
f 386/4/399 389/5/400 263/6/400
s 5
f 353/4/320 370/5/475 234/6/328
s 6
f 219/4/382 365/5/381 355/6/331
s 11
f 263/4/400 389/5/400 385/6/401
s 9
f 235/4/344 371/5/343 350/6/337
s 18
f 356/4/403 366/5/375 220/6/377
s 10
f 264/4/393 390/5/490 383/6/405
s 18
f 376/4/406 375/5/492 239/6/407
s 9
f 351/4/409 372/5/477 236/6/342
f 215/4/360 361/5/359 351/6/409
s 7
f 265/4/389 391/5/389 381/6/411
s 8
f 349/4/335 373/5/491 237/6/394
s 5
f 352/4/397 362/5/353 216/6/355
s 19
f 266/4/384 392/5/384 379/6/413
s 8
f 238/4/396 374/5/395 358/6/415
s 18
f 221/4/374 367/5/373 357/6/417
s 13
f 267/4/379 393/5/379 387/6/419
s 6
f 242/4/332 378/5/476 377/6/421
s 18
f 239/4/407 375/5/492 356/6/403
s 8
f 358/4/415 368/5/367 222/6/369
s 19
f 394/4/422 380/5/383 254/6/385
s 18
f 357/4/417 376/5/406 240/6/408
s 20
f 259/4/450 420/5/450 273/6/424
f 420/4/450 412/5/423 273/6/424
f 254/4/425 415/5/425 427/6/426
f 274/4/429 230/5/453 411/6/453
f 411/4/453 421/5/428 274/6/429
f 265/4/430 256/5/431 417/6/431
f 227/4/433 277/5/434 408/6/433
f 277/4/434 253/5/435 414/6/435
f 258/4/436 419/5/436 425/6/437
f 404/4/438 405/5/439 224/6/439
f 261/4/459 422/5/459 275/6/441
f 422/4/459 410/5/440 275/6/441
f 276/4/443 228/5/451 409/6/451
f 409/4/451 423/5/442 276/6/443
f 260/4/428 421/5/428 424/6/444
f 406/4/445 407/5/461 226/6/446
f 269/4/448 255/5/456 416/6/456
f 416/4/456 406/5/445 269/6/448
f 417/4/431 256/5/431 270/6/449
f 270/4/449 224/5/439 405/6/439
f 263/4/444 424/5/444 420/6/450
f 408/4/433 409/5/451 228/6/451
s 21
f 432/4/452 440/5/452 415/6/452
s 20
f 229/4/440 410/5/440 411/6/453
f 264/4/437 425/5/437 418/6/454
f 271/4/455 257/5/454 418/6/454
f 418/4/454 404/5/438 271/6/455
f 255/4/456 265/5/430 426/6/432
f 231/4/423 412/5/423 413/6/457
s 21
f 436/4/452 446/5/452 421/6/452
s 20
f 253/4/435 266/5/427 427/6/426
f 267/4/458 428/5/458 422/6/459
f 262/4/442 423/5/442 428/6/458
s 21
f 442/4/452 451/5/452 426/6/452
f 437/4/452 438/5/452 413/6/452
f 414/4/452 439/5/452 433/6/452
f 419/4/452 444/5/452 450/6/452
f 422/4/452 447/5/452 435/6/452
f 434/4/452 448/5/452 423/6/452
f 446/4/452 449/5/452 424/6/452
f 416/4/452 441/5/452 431/6/452
f 405/4/452 430/5/452 442/6/452
f 449/4/452 445/5/452 420/6/452
f 425/4/452 450/5/452 443/6/452
f 443/4/452 429/5/452 404/6/452
f 451/4/452 441/5/452 416/6/452
f 438/4/452 444/5/452 419/6/452
f 427/4/452 452/5/452 439/6/452
f 445/4/452 437/5/452 412/6/452
f 453/4/452 447/5/452 422/6/452
f 404/4/452 429/5/452 430/6/452
f 406/4/452 431/5/452 432/6/452
f 423/4/452 448/5/452 453/6/452
f 433/4/452 434/5/452 409/6/452
f 440/4/452 452/5/452 427/6/452
f 435/4/452 436/5/452 411/6/452
s 20
f 415/4/425 254/5/425 268/6/460
f 268/4/460 226/5/446 407/6/461
f 272/4/462 232/5/457 413/6/457
f 413/4/457 419/5/436 272/6/462
