# Blender 5.0.1
# www.blender.org
mtllib RuedaIzquierda.mtl
g Tire_RL_Mesh
v -0.096002 -0.142709 0.040880
v -0.096002 -0.131549 0.067525
v -0.096002 -0.115405 0.091482
v -0.096002 -0.094897 0.111828
v -0.096002 -0.070814 0.127783
v -0.096002 -0.044081 0.138733
v -0.096002 -0.015726 0.144257
v -0.096002 0.013162 0.144142
v -0.096002 0.041473 0.138395
v -0.096002 0.068118 0.127234
v -0.096002 0.092075 0.111091
v -0.096002 0.112421 0.090583
v -0.096002 0.128376 0.066500
v -0.096002 0.139325 0.039767
v -0.096002 0.144849 0.011412
v -0.096002 0.144735 -0.017477
v -0.096002 0.138988 -0.045787
v -0.096002 0.127828 -0.072432
v -0.096002 0.111683 -0.096389
v -0.096002 0.091175 -0.116735
v -0.096002 0.067093 -0.132690
v -0.096002 0.040360 -0.143640
v -0.096002 0.012005 -0.149163
v -0.096002 -0.016883 -0.149050
v -0.096002 -0.045194 -0.143302
v -0.096002 -0.071839 -0.132142
v -0.096002 -0.095796 -0.115997
v -0.096002 -0.116142 -0.095491
v -0.096002 -0.132097 -0.071407
v -0.096002 -0.143047 -0.044674
v -0.096002 -0.148571 -0.016319
v -0.096002 -0.148456 0.012569
v -0.100847 -0.187842 0.054765
v -0.100847 -0.173106 0.089950
v -0.100847 -0.151788 0.121583
v -0.100847 -0.124710 0.148449
v -0.100847 -0.092910 0.169516
v -0.100847 -0.057611 0.183974
v -0.100847 -0.020170 0.191268
v -0.100847 0.017976 0.191118
v -0.100847 0.055359 0.183528
v -0.100847 0.090543 0.168792
v -0.100847 0.122175 0.147474
v -0.100847 0.149042 0.120396
v -0.100847 0.170108 0.088596
v -0.100847 0.184568 0.053296
v -0.100847 0.191861 0.015855
v -0.100847 0.191711 -0.022290
v -0.100847 0.184121 -0.059673
v -0.100847 0.169385 -0.094857
v -0.100847 0.148067 -0.126490
v -0.100847 0.120989 -0.153356
v -0.100847 0.089188 -0.174423
v -0.100847 0.053890 -0.188882
v -0.100847 0.016448 -0.196175
v -0.100847 -0.021697 -0.196025
v -0.100847 -0.059080 -0.188436
v -0.100847 -0.094264 -0.173699
v -0.100847 -0.125897 -0.152382
v -0.100847 -0.152763 -0.125303
v -0.100847 -0.173831 -0.093503
v -0.100847 -0.188289 -0.058204
v -0.100847 -0.195582 -0.020763
v -0.100847 -0.195432 0.017382
v -0.087412 -0.219466 0.064495
v -0.087412 -0.202223 0.105660
v -0.087412 -0.177282 0.142673
v -0.087412 -0.145599 0.174107
v -0.087412 -0.108391 0.198756
v -0.087412 -0.067090 0.215672
v -0.087412 -0.023282 0.224208
v -0.087412 0.021349 0.224031
v -0.087412 0.065088 0.215151
v -0.087412 0.106254 0.197909
v -0.087412 0.143266 0.172968
v -0.087412 0.174700 0.141283
v -0.087412 0.199350 0.104077
v -0.087412 0.216266 0.062776
v -0.087412 0.224800 0.018968
v -0.087412 0.224624 -0.025663
v -0.087412 0.215745 -0.069402
v -0.087412 0.198502 -0.110568
v -0.087412 0.173560 -0.147580
v -0.087412 0.141877 -0.179014
v -0.087412 0.104670 -0.203664
v -0.087412 0.063369 -0.220580
v -0.087412 0.019561 -0.229115
v -0.087412 -0.025070 -0.228938
v -0.087412 -0.068809 -0.220059
v -0.087412 -0.109975 -0.202816
v -0.087412 -0.146987 -0.177875
v -0.087412 -0.178421 -0.146191
v -0.087412 -0.203071 -0.108984
v -0.087412 -0.219987 -0.067683
v -0.087412 -0.228522 -0.023875
v -0.087412 -0.228345 0.020756
v 0.103168 -0.142709 0.040880
v 0.103168 -0.131549 0.067525
v 0.103168 -0.115405 0.091482
v 0.103168 -0.094897 0.111828
v 0.103168 -0.070814 0.127783
v 0.103168 -0.044081 0.138733
v 0.103168 -0.015726 0.144257
v 0.103168 0.013162 0.144142
v 0.103168 0.041473 0.138395
v 0.103168 0.068118 0.127234
v 0.103168 0.092075 0.111091
v 0.103168 0.112421 0.090583
v 0.103168 0.128376 0.066500
v 0.103168 0.139325 0.039767
v 0.103168 0.144849 0.011412
v 0.103168 0.144735 -0.017477
v 0.103168 0.138988 -0.045787
v 0.103168 0.127828 -0.072432
v 0.103168 0.111683 -0.096389
v 0.103168 0.091175 -0.116735
v 0.103168 0.067093 -0.132690
v 0.103168 0.040360 -0.143640
v 0.103168 0.012005 -0.149163
v 0.103168 -0.016883 -0.149050
v 0.103168 -0.045194 -0.143302
v 0.103168 -0.071839 -0.132142
v 0.103168 -0.095796 -0.115997
v 0.103168 -0.116142 -0.095491
v 0.103168 -0.132097 -0.071407
v 0.103168 -0.143047 -0.044674
v 0.103168 -0.148571 -0.016319
v 0.103168 -0.148456 0.012569
v 0.108013 -0.187842 0.054765
v 0.108013 -0.173106 0.089950
v 0.108013 -0.151788 0.121583
v 0.108013 -0.124710 0.148449
v 0.108013 -0.092910 0.169516
v 0.108013 -0.057611 0.183974
v 0.108013 -0.020170 0.191268
v 0.108013 0.017976 0.191118
v 0.108013 0.055359 0.183528
v 0.108013 0.090543 0.168792
v 0.108013 0.122175 0.147474
v 0.108013 0.149042 0.120396
v 0.108013 0.170108 0.088596
v 0.108013 0.184568 0.053296
v 0.108013 0.191861 0.015855
v 0.108013 0.191711 -0.022290
v 0.108013 0.184121 -0.059673
v 0.108013 0.169385 -0.094857
v 0.108013 0.148067 -0.126490
v 0.108013 0.120989 -0.153356
v 0.108013 0.089188 -0.174423
v 0.108013 0.053890 -0.188882
v 0.108013 0.016448 -0.196175
v 0.108013 -0.021697 -0.196025
v 0.108013 -0.059080 -0.188436
v 0.108013 -0.094264 -0.173699
v 0.108013 -0.125897 -0.152382
v 0.108013 -0.152763 -0.125303
v 0.108013 -0.173831 -0.093503
v 0.108013 -0.188289 -0.058204
v 0.108013 -0.195582 -0.020763
v 0.108013 -0.195432 0.017382
v 0.094579 -0.219466 0.064495
v 0.094579 -0.202223 0.105660
v 0.094579 -0.177282 0.142673
v 0.094579 -0.145599 0.174107
v 0.094579 -0.108391 0.198756
v 0.094579 -0.067090 0.215672
v 0.094579 -0.023282 0.224208
v 0.094579 0.021349 0.224031
v 0.094579 0.065088 0.215151
v 0.094579 0.106254 0.197909
v 0.094579 0.143266 0.172968
v 0.094579 0.174700 0.141283
v 0.094579 0.199350 0.104077
v 0.094579 0.216266 0.062776
v 0.094579 0.224800 0.018968
v 0.094579 0.224624 -0.025663
v 0.094579 0.215745 -0.069402
v 0.094579 0.198502 -0.110568
v 0.094579 0.173560 -0.147580
v 0.094579 0.141877 -0.179014
v 0.094579 0.104670 -0.203664
v 0.094579 0.063369 -0.220580
v 0.094579 0.019561 -0.229115
v 0.094579 -0.025070 -0.228938
v 0.094579 -0.068809 -0.220059
v 0.094579 -0.109975 -0.202816
v 0.094579 -0.146987 -0.177875
v 0.094579 -0.178421 -0.146191
v 0.094579 -0.203071 -0.108984
v 0.094579 -0.219987 -0.067683
v 0.094579 -0.228522 -0.023875
v 0.094579 -0.228345 0.020756
v -0.097461 -0.052056 0.020605
v -0.097461 -0.042473 0.034988
v -0.097461 0.004559 0.052410
v -0.097461 0.021198 0.047742
v -0.097461 0.052303 0.008396
v -0.097461 0.053005 -0.008873
v -0.097461 0.025195 -0.050613
v -0.097461 0.008989 -0.056617
v -0.097461 -0.039302 -0.043067
v -0.097461 -0.050020 -0.029509
v -0.102081 -0.078904 0.029587
v -0.102081 -0.059211 0.058153
v -0.102081 0.004804 0.080720
v -0.102081 0.038058 0.070819
v -0.102081 0.079303 0.016910
v -0.102081 0.080161 -0.017776
v -0.102081 0.041637 -0.073661
v -0.102081 0.008914 -0.085196
v -0.102081 -0.056140 -0.065826
v -0.102081 -0.077223 -0.038269
v -0.099227 -0.103186 0.044646
v -0.099227 -0.081923 0.075490
v -0.099227 0.011623 0.108468
v -0.099227 0.047529 0.097776
v -0.099227 0.107799 0.018999
v -0.099227 0.108727 -0.018452
v -0.099227 0.052429 -0.100117
v -0.099227 0.017098 -0.112572
v -0.099227 -0.077966 -0.084266
v -0.099227 -0.100731 -0.054512
v -0.084302 -0.123950 0.060780
v -0.084302 -0.104388 0.089157
v -0.088166 0.020552 0.133200
v -0.088166 0.053584 0.123365
v -0.084302 0.134081 0.018151
v -0.084302 0.134934 -0.016303
v -0.084302 0.059743 -0.125374
v -0.084302 0.027239 -0.136833
v -0.084302 -0.099727 -0.099027
v -0.084302 -0.120669 -0.071655
v -0.099100 0.043140 0.042589
v -0.099100 0.053385 0.029199
v -0.099100 -0.030793 0.054264
v -0.099100 -0.014892 0.059869
v -0.099100 -0.065160 0.004410
v -0.099100 -0.064742 -0.012444
v -0.099100 -0.011791 -0.065345
v -0.099100 -0.027949 -0.060534
v -0.099100 0.054884 -0.031334
v -0.099100 0.045315 -0.045214
v -0.097461 -0.028916 0.045705
v -0.097461 -0.012709 0.051709
v -0.097461 0.035582 0.038160
v -0.097461 0.046300 0.024602
v -0.097461 0.048335 -0.025513
v -0.097461 0.038753 -0.039896
v -0.097461 -0.008280 -0.057319
v -0.097461 -0.024919 -0.052649
v -0.097461 -0.056024 -0.013303
v -0.097461 -0.056725 0.003965
v -0.084302 0.124685 0.051311
v -0.084302 0.083131 0.105624
v -0.084302 -0.013888 0.134513
v -0.084302 -0.078385 0.111776
v -0.084302 -0.135840 0.028431
v -0.084302 -0.134147 -0.039934
v -0.084302 -0.072637 -0.120332
v -0.084302 -0.007094 -0.139847
v -0.084302 0.088377 -0.106192
v -0.084302 0.127192 -0.049888
v -0.084302 -0.041097 -0.134230
v -0.084302 -0.139312 -0.005858
v -0.084302 -0.047572 0.127218
v -0.084302 0.107340 0.081092
v -0.084302 0.111341 -0.080492
v -0.084302 0.068358 0.114495
v -0.084302 0.003332 0.133857
v -0.084302 -0.091386 0.100466
v -0.084302 -0.129895 0.044606
v -0.084302 -0.127408 -0.055794
v -0.084302 -0.086182 -0.109680
v -0.084302 0.010073 -0.138341
v -0.084302 0.074061 -0.115783
v -0.084302 0.131063 -0.033096
v -0.084302 0.129383 0.034730
v -0.095862 -0.126123 0.061906
v -0.095862 -0.106213 0.090787
v -0.095862 0.020951 0.135615
v -0.095862 0.054570 0.125604
v -0.095862 0.136499 0.018518
v -0.095862 0.137368 -0.016550
v -0.095862 0.060840 -0.127561
v -0.095862 0.027758 -0.139224
v -0.095862 -0.101469 -0.100746
v -0.095862 -0.122784 -0.072886
v -0.095862 0.126938 0.052267
v -0.095862 0.084644 0.107547
v -0.095862 -0.014102 0.136949
v -0.095862 -0.079746 0.113808
v -0.095862 -0.138224 0.028982
v -0.095862 -0.136501 -0.040600
v -0.095862 -0.073895 -0.122430
v -0.095862 -0.007187 -0.142293
v -0.095862 0.089983 -0.108038
v -0.095862 0.129488 -0.050732
v -0.095862 -0.041795 -0.136574
v -0.095862 -0.141757 -0.005918
v -0.095862 -0.048386 0.129526
v -0.095862 0.109283 0.082578
v -0.095862 0.113355 -0.081880
v -0.095862 0.069607 0.116575
v -0.095862 0.003424 0.136282
v -0.095862 -0.092979 0.102298
v -0.095862 -0.132173 0.045443
v -0.095862 -0.129642 -0.056744
v -0.095862 -0.087682 -0.111587
v -0.095862 0.010285 -0.140758
v -0.095862 0.075411 -0.117800
v -0.095862 0.133428 -0.033641
v -0.095862 0.131718 0.035393
v -0.095862 -0.138197 0.068160
v -0.095862 -0.116353 0.099848
v -0.095862 0.023167 0.149031
v -0.095862 0.060053 0.138048
v -0.095862 0.149944 0.020555
v -0.095862 0.150897 -0.017920
v -0.095862 0.066932 -0.139719
v -0.095862 0.030635 -0.152514
v -0.095862 -0.111148 -0.110297
v -0.095862 -0.134534 -0.079730
v -0.095862 0.139453 0.057584
v -0.095862 0.093049 0.118236
v -0.095862 -0.015291 0.150496
v -0.095862 -0.087314 0.125106
v -0.095862 -0.151474 0.032036
v -0.095862 -0.149583 -0.044307
v -0.095862 -0.080896 -0.134088
v -0.095862 -0.007704 -0.155881
v -0.095862 0.098908 -0.118298
v -0.095862 0.142251 -0.055424
v -0.095862 -0.045676 -0.149607
v -0.095862 -0.155352 -0.006256
v -0.095862 -0.052907 0.142350
v -0.095862 0.120082 0.090841
v -0.095862 0.124551 -0.089599
v -0.095862 0.076552 0.128141
v -0.095862 0.003938 0.149763
v -0.095862 -0.101833 0.112476
v -0.095862 -0.144836 0.050098
v -0.095862 -0.142060 -0.062019
v -0.095862 -0.096022 -0.122192
v -0.095862 0.011465 -0.154197
v -0.095862 0.082920 -0.129008
v -0.095862 0.146574 -0.036672
v -0.095862 0.144698 0.039069
v -0.092762 -0.001861 -0.002454
v -0.080769 -0.082839 0.024397
v -0.080769 -0.055760 0.063678
v -0.080769 -0.001348 0.082859
v -0.080769 0.044378 0.069244
v -0.080769 0.079437 0.023421
v -0.080769 0.080617 -0.024273
v -0.080769 0.047871 -0.071775
v -0.080769 0.002875 -0.087637
v -0.080769 -0.052421 -0.071172
v -0.080769 -0.081410 -0.033280
v -0.078342 -0.103480 0.037197
v -0.078342 -0.075066 0.078414
v -0.078342 0.004449 0.106445
v -0.078342 0.052428 0.092158
v -0.078342 0.103658 0.025197
v -0.078342 0.104897 -0.024848
v -0.078342 0.057045 -0.094263
v -0.078342 0.009831 -0.110907
v -0.078342 -0.070974 -0.086847
v -0.078342 -0.101392 -0.047087
v -0.078055 0.048698 0.045249
v -0.078055 0.057406 0.033867
v -0.078055 -0.031604 0.060371
v -0.078055 -0.018090 0.065135
v -0.078055 -0.071156 0.002997
v -0.078055 -0.070802 -0.011328
v -0.078055 -0.014724 -0.070763
v -0.078055 -0.028458 -0.066674
v -0.078055 0.059131 -0.035797
v -0.078055 0.050997 -0.047595
v -0.065477 0.118011 0.052662
v -0.065477 0.082690 0.098828
v -0.065477 -0.017236 0.128583
v -0.065477 -0.072058 0.109257
v -0.065477 -0.131234 0.023415
v -0.065477 -0.129796 -0.034696
v -0.065477 -0.066442 -0.117503
v -0.065477 -0.010731 -0.134091
v -0.065477 0.087601 -0.099427
v -0.065477 0.120593 -0.051569
v -0.065477 -0.039634 -0.129316
v -0.065477 -0.134187 -0.005731
v -0.065477 -0.045868 0.122382
v -0.065477 0.103268 0.077977
v -0.065477 0.107120 -0.077582
v -0.065477 0.070132 0.106368
v -0.065477 -0.002600 0.128025
v -0.065477 -0.083109 0.099643
v -0.065477 -0.126182 0.037164
v -0.065477 -0.124068 -0.048177
v -0.065477 -0.077956 -0.108448
v -0.065477 0.003861 -0.132810
v -0.065477 0.075432 -0.107580
v -0.065477 0.123884 -0.037295
v -0.065477 0.122005 0.038569
v 0.103010 -0.123950 0.060780
v 0.103010 -0.104388 0.089157
v 0.103010 0.020552 0.133200
v 0.103010 0.053584 0.123365
v 0.103010 0.134081 0.018151
v 0.103010 0.134934 -0.016303
v 0.103010 0.059743 -0.125374
v 0.103010 0.027240 -0.136833
v 0.103010 -0.099728 -0.099028
v 0.103010 -0.120669 -0.071655
v 0.103010 0.124686 0.051310
v 0.103010 0.083131 0.105624
v 0.103010 -0.013888 0.134513
v 0.103010 -0.078384 0.111776
v 0.103010 -0.135840 0.028431
v 0.103010 -0.134147 -0.039934
v 0.103010 -0.072636 -0.120332
v 0.103010 -0.007094 -0.139847
v 0.103010 0.088378 -0.106193
v 0.103010 0.127192 -0.049888
v 0.103010 -0.041097 -0.134230
v 0.103010 -0.139312 -0.005858
v 0.103010 -0.047572 0.127218
v 0.103010 0.107340 0.081092
v 0.103010 0.111342 -0.080492
v 0.103010 -0.135530 0.066779
v 0.103010 -0.114113 0.097845
v 0.103010 0.022677 0.146067
v 0.103010 0.058843 0.135299
v 0.103010 0.146974 0.020105
v 0.103010 0.147909 -0.017618
v 0.103010 0.065587 -0.137033
v 0.103010 0.030000 -0.149579
v 0.103010 -0.109011 -0.108187
v 0.103010 -0.131939 -0.078219
v 0.103010 0.136689 0.056410
v 0.103010 0.091194 0.115875
v 0.103010 -0.015029 0.147503
v 0.103010 -0.085643 0.122610
v 0.103010 -0.148548 0.031361
v 0.103010 -0.146695 -0.043488
v 0.103010 -0.079349 -0.131513
v 0.103010 -0.007590 -0.152880
v 0.103010 0.096937 -0.116032
v 0.103010 0.139433 -0.054387
v 0.103010 -0.044819 -0.146729
v 0.103010 -0.152349 -0.006181
v 0.103010 -0.051908 0.139518
v 0.103010 0.117698 0.089016
v 0.103010 0.122078 -0.087894
v -0.092762 -0.020516 0.014744
v -0.092762 -0.024917 0.008138
v -0.092762 0.008732 0.020603
v -0.092762 0.001088 0.022747
v -0.092762 0.023342 -0.005402
v -0.092762 0.023019 0.002530
v -0.092762 0.003123 -0.027333
v -0.092762 0.010567 -0.024575
v -0.092762 -0.023982 -0.014882
v -0.092762 -0.019059 -0.021109
v -0.092762 -0.014288 0.019668
v -0.092762 -0.006844 0.022426
v -0.092762 0.015339 0.016202
v -0.092762 0.020261 0.009974
v -0.092762 0.021197 -0.013046
v -0.092762 0.016796 -0.019652
v -0.092762 -0.004809 -0.027656
v -0.092762 -0.012452 -0.025511
v -0.092762 -0.026740 -0.007437
v -0.092762 -0.027063 0.000495
vn -0.9948 -0.0902 -0.0478
vn -0.9878 0.1495 0.0447
vn -0.9948 -0.0978 -0.0292
vn -0.9948 0.0651 0.0786
vn -0.9878 -0.1210 -0.0985
vn -0.9948 0.0792 0.0644
vn -0.9948 -0.1016 -0.0096
vn -0.9878 -0.1379 -0.0730
vn -0.9948 0.0902 0.0478
vn -0.9878 0.1553 0.0147
vn -0.9948 -0.1015 0.0104
vn -0.9948 0.0898 -0.0485
vn -0.9878 -0.1202 0.0994
vn -0.9948 0.0786 -0.0651
vn -0.9878 -0.1495 -0.0447
vn -0.9948 0.0978 0.0292
vn -0.9878 0.1491 -0.0459
vn -0.9948 -0.0976 0.0300
vn -0.9878 -0.0985 0.1210
vn -0.9948 0.0644 -0.0792
vn -0.9948 0.1016 0.0096
vn -0.9948 -0.0898 0.0485
vn -0.9948 0.0478 -0.0902
vn -0.9878 -0.1553 -0.0147
vn -0.9948 0.1015 -0.0104
vn -0.9878 0.1202 -0.0994
vn -0.9948 -0.0786 0.0651
vn -0.9878 -0.0730 0.1379
vn -0.9948 0.0292 -0.0978
vn -0.9878 -0.1491 0.0459
vn -0.9948 0.0976 -0.0300
vn -0.9878 0.0985 -0.1210
vn -0.9948 -0.0644 0.0792
vn -0.9878 -0.0447 0.1495
vn -0.9948 0.0096 -0.1016
vn -0.5429 -0.7391 0.3988
vn -0.9878 -0.1373 0.0741
vn -0.9948 -0.0478 0.0902
vn -0.9878 0.0159 0.1552
vn -0.9948 -0.0104 -0.1015
vn -0.9878 0.0730 -0.1379
vn -0.9948 -0.0292 0.0978
vn -0.9948 -0.0300 -0.0976
vn -0.9878 0.0447 -0.1495
vn -0.9948 -0.0096 0.1016
vn -0.9878 0.0741 0.1373
vn -0.9948 -0.0485 -0.0898
vn -0.9878 -0.0159 -0.1552
vn -0.9948 0.0104 0.1015
vn -0.9948 -0.0651 -0.0786
vn -0.9948 0.0300 0.0976
vn -0.9878 0.1210 0.0985
vn -0.9948 -0.0792 -0.0644
vn -0.9878 -0.0741 -0.1373
vn -0.9948 0.0485 0.0898
vn -0.9878 0.1379 0.0730
vn -0.5429 0.5353 0.6471
vn -0.9878 0.0994 0.1202
vn -0.5429 -0.2470 -0.8027
vn -0.9878 -0.0459 -0.1491
vn -0.5429 0.6513 0.5302
vn -0.5429 -0.5353 -0.6471
vn -0.9878 -0.0994 -0.1202
vn -0.5429 0.7422 0.3930
vn -0.5429 0.8361 0.0790
vn -0.5429 -0.6513 -0.5302
vn -0.9878 0.1552 -0.0159
vn -0.5429 -0.7422 -0.3930
vn -0.5429 0.8027 -0.2469
vn -0.5429 -0.6471 0.5353
vn -0.5429 -0.8361 -0.0790
vn -0.9878 0.1373 -0.0741
vn -0.5429 -0.3930 0.7422
vn -0.5429 -0.8354 0.0856
vn -0.9878 -0.1552 0.0159
vn -0.5429 0.6471 -0.5353
vn -0.5429 -0.2406 0.8046
vn -0.5429 -0.8027 0.2470
vn -0.5429 -0.0790 0.8361
vn -0.9878 -0.0147 0.1553
vn -0.5429 0.3930 -0.7422
vn -0.5429 0.2406 -0.8046
vn -0.5429 0.0856 0.8354
vn -0.9878 0.0459 0.1491
vn -0.5429 0.0790 -0.8361
vn -0.9878 0.0147 -0.1553
vn -0.5429 0.2470 0.8027
vn -0.5429 -0.0856 -0.8354
vn 0.5429 0.0856 0.8354
vn 0.5429 0.2469 0.8027
vn 0.5429 0.3930 -0.7422
vn 0.5429 0.2406 -0.8046
vn 0.5429 -0.0790 0.8361
vn 0.5429 0.5302 -0.6513
vn 0.5429 -0.2406 0.8046
vn -0.5429 0.5302 -0.6513
vn 0.5429 0.6471 -0.5353
vn 0.5429 -0.8354 0.0856
vn 0.5429 -0.8027 0.2469
vn 0.5429 -0.3929 0.7422
vn 0.5429 0.7391 -0.3988
vn 0.5429 -0.8361 -0.0790
vn -0.5429 -0.5302 0.6513
vn 0.5429 -0.5302 0.6513
vn -0.5429 0.7391 -0.3988
vn 0.5429 0.8027 -0.2469
vn 0.5429 -0.8046 -0.2406
vn 0.5429 -0.6471 0.5353
vn 0.5429 0.8354 -0.0856
vn -0.5429 -0.8046 -0.2406
vn 0.5429 -0.7422 -0.3930
vn 0.5429 -0.7391 0.3988
vn -0.5429 0.8354 -0.0856
vn 0.5429 0.8361 0.0790
vn 0.5429 -0.6513 -0.5302
vn 0.5429 0.8046 0.2406
vn 0.5429 -0.5353 -0.6471
vn -0.5429 0.8046 0.2406
vn 0.5429 0.7422 0.3930
vn 0.5429 -0.3988 -0.7391
vn 0.5429 0.6513 0.5302
vn -0.5429 -0.3988 -0.7391
vn 0.5429 -0.2469 -0.8027
vn 0.5429 0.5353 0.6471
vn 0.5429 -0.0856 -0.8354
vn 0.5429 0.3988 0.7391
vn 0.5429 0.0790 -0.8361
vn -0.5429 0.3988 0.7391
vn 0.9948 -0.0978 -0.0292
vn 0.9878 0.1379 0.0730
vn 0.9948 -0.0902 -0.0478
vn 0.9948 0.0651 0.0786
vn 0.9878 -0.1210 -0.0985
vn 0.9878 -0.0994 -0.1202
vn 0.9948 -0.1016 -0.0096
vn 0.9878 0.1495 0.0447
vn 0.9948 0.0792 0.0644
vn 0.9878 -0.1379 -0.0730
vn 0.9948 -0.1015 0.0104
vn 0.9878 0.1553 0.0147
vn 0.9948 0.0898 -0.0485
vn 0.9878 -0.1202 0.0994
vn 0.9878 -0.1373 0.0741
vn 0.9948 0.0978 0.0292
vn 0.9948 0.0902 0.0478
vn 0.9878 0.1491 -0.0459
vn 0.9878 0.1552 -0.0159
vn 0.9948 0.0644 -0.0792
vn 0.9948 0.0786 -0.0651
vn 0.9948 0.1016 0.0096
vn 0.9878 -0.1494 -0.0447
vn 0.9948 -0.0898 0.0485
vn 0.9948 -0.0976 0.0300
vn 0.9948 0.0478 -0.0902
vn 0.9878 -0.0985 0.1210
vn 0.9948 0.1015 -0.0104
vn 0.9878 -0.1553 -0.0147
vn 0.9878 0.1202 -0.0994
vn 0.9878 0.1373 -0.0741
vn 0.9948 0.0292 -0.0978
vn 0.9878 -0.0730 0.1379
vn 0.9878 -0.1491 0.0459
vn 0.9878 -0.1552 0.0159
vn 0.9948 -0.0786 0.0651
vn 0.9878 0.0985 -0.1210
vn 0.9948 0.0096 -0.1016
vn 0.9878 -0.0447 0.1494
vn 0.9948 -0.0478 0.0902
vn 0.9948 -0.0644 0.0792
vn 0.9878 0.0159 0.1552
vn 0.9878 -0.0147 0.1553
vn 0.9948 -0.0292 0.0978
vn 0.9878 0.0730 -0.1379
vn 0.9948 -0.0300 -0.0976
vn 0.9948 -0.0104 -0.1015
vn 0.9948 -0.0096 0.1016
vn 0.9878 0.0447 -0.1494
vn 0.9878 0.0741 0.1373
vn 0.9878 0.0459 0.1491
vn 0.9878 -0.0159 -0.1552
vn 0.9878 0.0147 -0.1553
vn 0.9948 -0.0651 -0.0786
vn 0.9948 -0.0485 -0.0898
vn 0.9948 0.0300 0.0976
vn 0.9948 0.0104 0.1015
vn 0.9878 0.1210 0.0985
vn 0.9878 0.0994 0.1202
vn 0.9948 0.0485 0.0898
vn 0.9878 -0.0459 -0.1491
vn 0.9948 -0.0792 -0.0644
vn 0.9878 -0.0741 -0.1373
vn 0.9948 0.0976 -0.0300
vn -0.9988 -0.0285 0.0388
vn -0.9869 -0.0297 0.1585
vn -0.9869 -0.0807 0.1394
vn -0.9988 0.0002 -0.0481
vn -0.9869 -0.0691 -0.1457
vn -0.9869 -0.0167 -0.1602
vn -0.9988 0.0281 0.0391
vn -0.9869 0.1416 0.0772
vn -0.9869 0.1076 0.1198
vn -0.9988 -0.0457 -0.0151
vn -0.9869 -0.1599 0.0208
vn -0.9869 -0.1575 -0.0337
vn -0.9988 0.0459 -0.0146
vn -0.9869 0.1172 -0.1108
vn -0.9869 0.1472 -0.0654
vn -0.9417 0.0922 -0.3236
vn -0.9989 -0.0020 0.0477
vn -0.9610 0.0290 0.2750
vn -0.9989 -0.0265 -0.0398
vn -0.9417 -0.2793 -0.1877
vn -0.9989 0.0448 0.0166
vn -0.9417 0.3363 -0.0123
vn -0.9989 -0.0460 0.0129
vn -0.9417 -0.2883 0.1736
vn -0.9989 0.0296 -0.0375
vn -0.8665 0.2185 -0.4488
vn -0.9417 0.1312 -0.3099
vn -0.9096 -0.0225 0.4149
vn -0.9610 0.1261 0.2460
vn -0.8665 -0.3593 -0.3465
vn -0.9417 -0.2542 -0.2205
vn -0.8665 0.4943 0.0691
vn -0.9417 0.3353 0.0290
vn -0.8665 -0.3760 0.3283
vn -0.9417 -0.2648 0.2076
vn -0.9834 0.1800 -0.0214
vn -0.9846 0.1732 -0.0217
vn -0.9836 0.1776 0.0306
vn -0.9834 0.0760 0.1646
vn -0.9846 0.0741 0.1580
vn -0.9836 0.0258 0.1784
vn -0.9843 0.0169 0.1758
vn -0.9834 -0.1330 0.1231
vn -0.9846 -0.1274 0.1193
vn -0.9836 -0.1617 0.0796
vn -0.9843 -0.1619 0.0704
vn -0.9834 -0.1582 -0.0885
vn -0.9846 -0.1529 -0.0843
vn -0.9836 -0.1257 -0.1292
vn -0.9843 -0.1170 -0.1323
vn -0.9834 0.0352 -0.1778
vn -0.9846 0.0329 -0.1714
vn -0.9836 0.0840 -0.1595
vn -0.9843 0.0896 -0.1522
vn -0.9096 0.2458 0.3350
vn -0.8726 0.3981 0.2830
vn -0.8726 -0.1785 0.4547
vn -0.8591 -0.3359 0.3861
vn -0.8591 -0.4803 0.1766
vn -0.8665 -0.4405 0.2346
vn -0.8665 -0.4284 -0.2562
vn -0.8591 -0.4710 -0.2001
vn -0.8591 -0.3164 -0.4023
vn -0.8665 0.1112 -0.4866
vn -0.8591 0.0448 -0.5098
vn -0.8591 0.2848 -0.4252
vn -0.8665 0.4971 -0.0446
vn -0.8591 0.4987 -0.1150
vn -0.8591 0.4924 0.1395
vn -0.2847 -0.3860 -0.8775
vn -0.2188 -0.4880 -0.8450
vn -0.2054 -0.4854 -0.8498
vn -0.2055 -0.9536 0.2198
vn -0.2071 -0.9183 0.3375
vn -0.2070 0.2792 0.9377
vn -0.2070 0.5036 0.8388
vn -0.2070 -0.9734 0.0986
vn -0.2071 -0.9673 -0.1466
vn -0.2070 0.0856 -0.9746
vn -0.2188 -0.0538 -0.9743
vn -0.2054 -0.0586 -0.9769
vn -0.2055 -0.9416 -0.2668
vn -0.2071 0.9780 0.0242
vn -0.2070 0.9533 -0.2198
vn -0.2071 -0.2070 0.9562
vn -0.2071 -0.4383 0.8746
vn -0.2071 -0.2071 0.9562
vn -0.2071 0.7295 -0.6519
vn -0.2055 0.6423 -0.7384
vn -0.2070 0.3253 -0.9227
vn -0.2071 0.8454 0.4924
vn -0.2071 0.6964 0.6872
vn -0.2055 0.9186 -0.3376
vn -0.2054 0.9186 -0.3376
vn -0.2070 -0.7770 -0.5945
vn -0.2071 -0.9004 -0.3825
vn -0.2055 0.9007 0.3827
vn -0.2071 -0.8055 0.5553
vn -0.2071 -0.6421 0.7381
vn -0.2055 0.6050 0.7693
vn -0.2054 0.6050 0.7693
vn -0.2071 -0.6047 -0.7690
vn -0.2055 -0.0856 0.9749
vn -0.2054 -0.0856 0.9749
vn -0.2847 -0.1569 -0.9457
vn -0.3030 -0.1553 -0.9402
vn -0.2055 -0.5447 0.8131
vn -0.2070 0.5445 -0.8128
vn -0.2071 0.8687 -0.4499
vn -0.2071 0.9413 0.2667
vn -0.2071 0.0372 0.9776
vn -0.2070 -0.4383 0.8746
vn -0.3030 -0.3843 -0.8721
vn -1.0000 -0.0000 -0.0000
vn -0.9963 0.0420 -0.0747
vn -0.9963 0.0630 -0.0581
vn -0.9843 0.1724 0.0382
vn -0.9963 0.0747 0.0420
vn -0.9963 0.0779 -0.0358
vn -0.9963 -0.0100 -0.0851
vn -0.9963 0.0168 -0.0840
vn -0.9963 0.0851 -0.0100
vn -0.9963 -0.0358 -0.0779
vn -0.9963 -0.0851 0.0100
vn -0.9963 -0.0840 -0.0168
vn -0.9963 -0.0747 -0.0420
vn -0.9963 -0.0581 -0.0630
vn -0.9963 -0.0168 0.0840
vn -0.9963 -0.0420 0.0747
vn -0.9963 -0.0630 0.0581
vn -0.9963 -0.0779 0.0358
vn -0.9963 0.0581 0.0630
vn -0.9963 0.0100 0.0851
vn -0.9963 0.0840 0.0168
vn -0.9963 0.0358 0.0779
vn -0.3140 -0.1921 0.9298
vn -0.2878 0.1833 0.9400
vn -0.3192 -0.2420 0.9163
vn -0.2811 0.6238 -0.7293
vn -0.2878 0.2297 -0.9298
vn -0.2808 0.6338 -0.7208
vn -0.3140 -0.1459 -0.9381
vn -0.2890 0.2159 -0.9327
vn -0.2884 0.5448 -0.7874
vn -0.3061 0.6248 -0.7183
vn -0.2811 0.5869 0.7593
vn -0.2808 0.8813 0.3801
vn -0.2808 0.5973 0.7512
vn -0.2811 0.9035 -0.3235
vn -0.2878 0.9506 0.1161
vn -0.2889 0.9485 0.1299
vn -0.3141 -0.3911 -0.8651
vn -0.2878 -0.7008 -0.6527
vn -0.3192 -0.3428 -0.8835
vn -0.3140 0.6694 0.6732
vn -0.2878 0.3607 0.8872
vn -0.2890 0.3735 0.8815
vn -0.2884 0.9172 0.2747
vn -0.3061 0.8762 0.3723
vn -0.2811 -0.5408 0.7928
vn -0.2808 -0.0891 0.9556
vn -0.2808 -0.5299 0.8003
vn -0.2884 0.0221 0.9572
vn -0.3061 -0.0832 0.9484
vn -0.2884 -0.8868 -0.3612
vn -0.3061 -0.9159 -0.2596
vn -0.2829 -0.8767 -0.3891
vn -0.2884 -0.9036 0.3169
vn -0.3061 -0.9277 0.2139
vn -0.2885 0.0695 -0.9550
vn -0.3061 -0.0362 -0.9513
vn -0.2829 0.0992 -0.9540
vn -0.3307 0.7244 -0.6049
vn -0.3192 0.8211 -0.4732
vn -0.3140 0.8471 -0.4286
vn -0.2885 0.9297 -0.2290
vn -0.3061 0.8936 -0.3284
vn -0.2829 0.9380 -0.2005
vn -0.3307 -0.9373 -0.1101
vn -0.3192 -0.9462 0.0530
vn -0.3295 -0.9377 -0.1098
vn -0.3307 0.7991 0.5020
vn -0.3192 0.7038 0.6347
vn -0.2885 0.5051 0.8134
vn -0.3061 0.5885 0.7483
vn -0.2829 0.4805 0.8301
vn -0.3307 -0.1850 -0.9254
vn -0.3295 -0.1853 -0.9258
vn -0.3307 -0.2305 0.9152
vn -0.3192 -0.3861 0.8655
vn -0.3140 -0.4334 0.8447
vn -0.2884 -0.6175 0.7317
vn -0.3061 -0.5299 0.7909
vn -0.2828 -0.6410 0.7135
vn -0.3307 0.8230 -0.4619
vn -0.3192 0.7343 -0.5991
vn -0.3295 0.8232 -0.4623
vn -0.3307 -0.9416 0.0635
vn -0.3192 -0.9424 -0.0998
vn -0.3141 -0.9373 -0.1512
vn -0.2628 -0.7944 0.5476
vn -0.2829 -0.8949 0.3453
vn -0.2884 -0.9035 0.3169
vn -0.3307 0.6936 0.6400
vn -0.3192 0.7967 0.5133
vn -0.3295 0.6941 0.6401
vn -0.2628 -0.7663 -0.5863
vn -0.2829 -0.6049 -0.7444
vn -0.2884 -0.5806 -0.7614
vn -0.3307 -0.3514 -0.8759
vn -0.3192 -0.1963 -0.9271
vn -0.2628 0.3208 -0.9100
vn -0.2829 0.5210 -0.8053
vn -0.2884 0.5447 -0.7874
vn -0.3307 -0.3943 0.8574
vn -0.3295 -0.3942 0.8579
vn -0.2628 0.9646 0.0239
vn -0.2829 0.9269 0.2467
vn -0.2884 0.9173 0.2747
vn -0.2811 -0.9211 -0.2693
vn -0.2808 -0.9364 0.2105
vn -0.2808 -0.9248 -0.2566
vn -0.2812 0.8864 0.3679
vn -0.2878 0.9552 -0.0689
vn -0.2628 0.2753 0.9247
vn -0.2828 0.0518 0.9578
vn -0.2884 0.0222 0.9573
vn -0.2889 0.1695 0.9422
vn -0.3140 0.8249 0.4700
vn -0.2628 0.2754 0.9247
vn -0.2811 -0.0759 0.9567
vn -0.2878 -0.8133 -0.5057
vn -0.2890 -0.8203 -0.4936
vn -0.2627 0.9646 0.0239
vn -0.2811 -0.5009 -0.8186
vn -0.2808 -0.0417 -0.9589
vn -0.2811 -0.0285 -0.9593
vn -0.2878 -0.8373 0.4648
vn -0.2890 -0.8437 0.4524
vn -0.3140 -0.9436 0.1046
vn -0.2890 -0.6910 -0.6626
vn -0.2890 0.9537 -0.0828
vn -0.2811 -0.9333 0.2234
vn -0.2878 -0.7323 0.6172
vn -0.3140 0.7019 -0.6393
vn -0.2877 0.4042 -0.8682
vn -0.2808 0.8991 -0.3360
vn -0.2808 -0.4896 -0.8255
vn -0.2889 -0.7229 0.6276
vn -0.2884 -0.5805 -0.7614
vn -0.3061 -0.4901 -0.8162
vn -0.2889 0.4167 -0.8619
vn -0.0000 0.6182 0.7860
vn -0.0000 0.7118 0.7024
vn -0.0000 -0.7942 -0.6076
vn -0.0000 -0.6181 -0.7861
vn -0.0000 -0.0875 0.9962
vn -0.0000 0.0381 0.9993
vn -0.0000 -0.2116 0.9773
vn -0.0000 0.3325 -0.9431
vn -0.0000 0.5566 -0.8308
vn -0.0000 -0.9204 -0.3910
vn -0.0000 -0.9621 -0.2726
vn -0.0000 -0.9887 -0.1499
vn -0.0000 0.9997 0.0248
vn -0.0000 0.9621 0.2726
vn -0.0000 0.7457 -0.6663
vn -0.0000 0.8880 -0.4599
vn -0.0000 -0.5566 0.8308
vn -0.0000 -0.4480 0.8940
vn -0.0000 -0.9744 0.2246
vn -0.0000 -0.9386 0.3450
vn -0.0000 -0.9949 0.1007
vn -0.0000 0.2854 0.9584
vn -0.0000 -0.3945 -0.9189
vn -0.0000 -0.1630 -0.9866
vn -0.0000 -0.1724 -0.9850
vn -0.0000 0.0875 -0.9962
vn -0.0000 -0.0381 -0.9993
vn -0.0000 0.6563 -0.7545
vn -0.0000 0.5148 0.8573
vn 1.0000 -0.0000 -0.0000
vn -0.0000 0.9744 -0.2246
vn -0.0000 0.9386 -0.3450
vn -0.0000 0.8641 0.5033
vn -0.0000 -0.6563 0.7545
vn -0.0000 -0.8233 0.5676
vn -0.0000 -0.4032 -0.9151
vn -0.0000 -0.5148 -0.8573
vn -0.0000 0.9204 0.3910
vn -0.3061 -0.0833 0.9484
vn -0.3061 -0.9160 -0.2595
vn -0.3295 0.7249 -0.6049
vn -0.3295 0.7993 0.5025
vn -0.3294 -0.2309 0.9155
vn -0.3295 -0.9421 0.0632
vn -0.3295 -0.3513 -0.8764
vn -0.0000 -0.2117 0.9773
vt 0.064519 0.310612
vt 0.208919 0.310612
vt 0.208919 0.455013
vt 0.289469 0.305094
vt 0.452718 0.305094
vt 0.452718 0.468343
s 1
g off
g Tire_RL_CarPaint_Atlas
usemtl CarPaint_Atlas
f 13/1/1 46/2/2 14/3/3
f 27/1/4 60/2/5 28/3/6
f 46/1/2 15/2/7 14/3/3
f 28/1/6 61/2/8 29/3/9
f 47/1/10 16/2/11 15/3/7
f 2/1/12 35/2/13 3/3/14
f 29/1/9 62/2/15 30/3/16
f 16/1/11 49/2/17 17/3/18
f 3/1/14 36/2/19 4/3/20
f 62/1/15 31/2/21 30/3/16
f 49/1/17 18/2/22 17/3/18
f 36/1/19 5/2/23 4/3/20
f 63/1/24 32/2/25 31/3/21
f 18/1/22 51/2/26 19/3/27
f 37/1/28 6/2/29 5/3/23
f 32/1/25 33/2/30 1/3/31
f 19/1/27 52/2/32 20/3/33
f 38/1/34 7/2/35 6/3/29
f 33/1/30 66/2/36 34/3/37
f 52/1/32 21/2/38 20/3/33
f 7/1/35 40/2/39 8/3/40
f 53/1/41 22/2/42 21/3/38
f 40/1/39 9/2/43 8/3/40
f 54/1/44 23/2/45 22/3/42
f 9/1/43 42/2/46 10/3/47
f 23/1/45 56/2/48 24/3/49
f 42/1/46 11/2/50 10/3/47
f 56/1/48 25/2/51 24/3/49
f 11/1/50 44/2/52 12/3/53
f 25/1/51 58/2/54 26/3/55
f 12/1/53 45/2/56 13/3/1
f 58/1/54 27/2/4 26/3/55
f 75/1/57 44/2/52 43/3/58
f 89/1/59 58/2/54 57/3/60
f 76/1/61 45/2/56 44/3/52
f 58/1/54 91/2/62 59/3/63
f 77/1/64 46/2/2 45/3/56
f 91/1/62 60/2/5 59/3/63
f 46/1/2 79/2/65 47/3/10
f 92/1/66 61/2/8 60/3/5
f 79/1/65 48/2/67 47/3/10
f 66/1/36 35/2/13 34/3/37
f 93/1/68 62/2/15 61/3/8
f 48/1/67 81/2/69 49/3/17
f 67/1/70 36/2/19 35/3/13
f 62/1/15 95/2/71 63/3/24
f 81/1/69 50/2/72 49/3/17
f 36/1/19 69/2/73 37/3/28
f 63/1/24 96/2/74 64/3/75
f 50/1/72 83/2/76 51/3/26
f 37/1/28 70/2/77 38/3/34
f 64/1/75 65/2/78 33/3/30
f 83/1/76 52/2/32 51/3/26
f 38/1/34 71/2/79 39/3/80
f 52/1/32 85/2/81 53/3/41
f 71/1/79 40/2/39 39/3/80
f 53/1/41 86/2/82 54/3/44
f 72/1/83 41/2/84 40/3/39
f 54/1/44 87/2/85 55/3/86
f 73/1/87 42/2/46 41/3/84
f 87/1/85 56/2/48 55/3/86
f 42/1/46 75/2/57 43/3/58
f 88/1/88 57/2/60 56/3/48
f 73/1/87 168/2/89 169/3/90
f 86/1/82 181/2/91 182/3/92
f 72/1/83 167/2/93 168/3/89
f 85/1/81 180/2/94 181/3/91
f 71/1/79 166/2/95 167/3/93
f 84/1/96 179/2/97 180/3/94
f 65/1/78 192/2/98 161/3/99
f 70/1/77 165/2/100 166/3/95
f 83/1/76 178/2/101 179/3/97
f 96/1/74 191/2/102 192/3/98
f 165/1/100 68/2/103 164/3/104
f 82/1/105 177/2/106 178/3/101
f 95/1/71 190/2/107 191/3/102
f 164/1/104 67/2/70 163/3/108
f 81/1/69 176/2/109 177/3/106
f 94/1/110 189/2/111 190/3/107
f 67/1/70 162/2/112 163/3/108
f 80/1/113 175/2/114 176/3/109
f 93/1/68 188/2/115 189/3/111
f 66/1/36 161/2/99 162/3/112
f 79/1/65 174/2/116 175/3/114
f 92/1/66 187/2/117 188/3/115
f 78/1/118 173/2/119 174/3/116
f 91/1/62 186/2/120 187/3/117
f 77/1/64 172/2/121 173/3/119
f 90/1/122 185/2/123 186/3/120
f 76/1/61 171/2/124 172/3/121
f 89/1/59 184/2/125 185/3/123
f 75/1/57 170/2/126 171/3/124
f 88/1/88 183/2/127 184/3/125
f 74/1/128 169/2/90 170/3/126
f 33/1/30 2/2/12 1/3/31
f 110/1/129 141/2/130 109/3/131
f 123/1/132 156/2/133 155/3/134
f 111/1/135 142/2/136 110/3/129
f 124/1/137 157/2/138 156/3/133
f 112/1/139 143/2/140 111/3/135
f 98/1/141 131/2/142 130/3/143
f 126/1/144 157/2/138 125/3/145
f 112/1/139 145/2/146 144/3/147
f 100/1/148 131/2/142 99/3/149
f 127/1/150 158/2/151 126/3/144
f 114/1/152 145/2/146 113/3/153
f 101/1/154 132/2/155 100/3/148
f 128/1/156 159/2/157 127/3/150
f 114/1/152 147/2/158 146/3/159
f 102/1/160 133/2/161 101/3/154
f 128/1/156 129/2/162 160/3/163
f 115/1/164 148/2/165 147/3/158
f 103/1/166 134/2/167 102/3/160
f 129/1/162 162/2/112 161/3/99
f 117/1/168 148/2/165 116/3/169
f 103/1/166 136/2/170 135/3/171
f 118/1/172 149/2/173 117/3/168
f 105/1/174 136/2/170 104/3/175
f 119/1/176 150/2/177 118/3/172
f 105/1/174 138/2/178 137/3/179
f 119/1/176 152/2/180 151/3/181
f 107/1/182 138/2/178 106/3/183
f 121/1/184 152/2/180 120/3/185
f 107/1/182 140/2/186 139/3/187
f 122/1/188 153/2/189 121/3/184
f 108/1/190 141/2/130 140/3/186
f 123/1/132 154/2/191 122/3/188
f 140/1/186 171/2/124 139/3/187
f 154/1/191 185/2/123 153/3/189
f 141/1/130 172/2/121 140/3/186
f 154/1/191 187/2/117 186/3/120
f 142/1/136 173/2/119 141/3/130
f 156/1/133 187/2/117 155/3/134
f 142/1/136 175/2/114 174/3/116
f 157/1/138 188/2/115 156/3/133
f 144/1/147 175/2/114 143/3/140
f 131/1/142 162/2/112 130/3/143
f 158/1/151 189/2/111 157/3/138
f 144/1/147 177/2/106 176/3/109
f 132/1/155 163/2/108 131/3/142
f 158/1/151 191/2/102 190/3/107
f 146/1/159 177/2/106 145/3/146
f 132/1/155 165/2/100 164/3/104
f 159/1/157 192/2/98 191/3/102
f 146/1/159 179/2/97 178/3/101
f 133/1/161 166/2/95 165/3/100
f 129/1/162 192/2/98 160/3/163
f 148/1/165 179/2/97 147/3/158
f 134/1/167 167/2/93 166/3/95
f 148/1/165 181/2/91 180/3/94
f 136/1/170 167/2/93 135/3/171
f 149/1/173 182/2/92 181/3/91
f 137/1/179 168/2/89 136/3/170
f 150/1/177 183/2/127 182/3/92
f 138/1/178 169/2/90 137/3/179
f 152/1/180 183/2/127 151/3/181
f 138/1/178 171/2/124 170/3/126
f 153/1/189 184/2/125 152/3/180
f 98/1/141 129/2/162 97/3/192
f 87/1/85 182/2/92 183/3/127
f 13/1/1 45/2/56 46/3/2
f 27/1/4 59/2/63 60/3/5
f 46/1/2 47/2/10 15/3/7
f 28/1/6 60/2/5 61/3/8
f 47/1/10 48/2/67 16/3/11
f 2/1/12 34/2/37 35/3/13
f 29/1/9 61/2/8 62/3/15
f 16/1/11 48/2/67 49/3/17
f 3/1/14 35/2/13 36/3/19
f 62/1/15 63/2/24 31/3/21
f 49/1/17 50/2/72 18/3/22
f 36/1/19 37/2/28 5/3/23
f 63/1/24 64/2/75 32/3/25
f 18/1/22 50/2/72 51/3/26
f 37/1/28 38/2/34 6/3/29
f 32/1/25 64/2/75 33/3/30
f 19/1/27 51/2/26 52/3/32
f 38/1/34 39/2/80 7/3/35
f 33/1/30 65/2/78 66/3/36
f 52/1/32 53/2/41 21/3/38
f 7/1/35 39/2/80 40/3/39
f 53/1/41 54/2/44 22/3/42
f 40/1/39 41/2/84 9/3/43
f 54/1/44 55/2/86 23/3/45
f 9/1/43 41/2/84 42/3/46
f 23/1/45 55/2/86 56/3/48
f 42/1/46 43/2/58 11/3/50
f 56/1/48 57/2/60 25/3/51
f 11/1/50 43/2/58 44/3/52
f 25/1/51 57/2/60 58/3/54
f 12/1/53 44/2/52 45/3/56
f 58/1/54 59/2/63 27/3/4
f 75/1/57 76/2/61 44/3/52
f 89/1/59 90/2/122 58/3/54
f 76/1/61 77/2/64 45/3/56
f 58/1/54 90/2/122 91/3/62
f 77/1/64 78/2/118 46/3/2
f 91/1/62 92/2/66 60/3/5
f 46/1/2 78/2/118 79/3/65
f 92/1/66 93/2/68 61/3/8
f 79/1/65 80/2/113 48/3/67
f 66/1/36 67/2/70 35/3/13
f 93/1/68 94/2/110 62/3/15
f 48/1/67 80/2/113 81/3/69
f 67/1/70 68/2/103 36/3/19
f 62/1/15 94/2/110 95/3/71
f 81/1/69 82/2/105 50/3/72
f 36/1/19 68/2/103 69/3/73
f 63/1/24 95/2/71 96/3/74
f 50/1/72 82/2/105 83/3/76
f 37/1/28 69/2/73 70/3/77
f 64/1/75 96/2/74 65/3/78
f 83/1/76 84/2/96 52/3/32
f 38/1/34 70/2/77 71/3/79
f 52/1/32 84/2/96 85/3/81
f 71/1/79 72/2/83 40/3/39
f 53/1/41 85/2/81 86/3/82
f 72/1/83 73/2/87 41/3/84
f 54/1/44 86/2/82 87/3/85
f 73/1/87 74/2/128 42/3/46
f 87/1/85 88/2/88 56/3/48
f 42/1/46 74/2/128 75/3/57
f 88/1/88 89/2/59 57/3/60
f 73/1/87 72/2/83 168/3/89
f 86/1/82 85/2/81 181/3/91
f 72/1/83 71/2/79 167/3/93
f 85/1/81 84/2/96 180/3/94
f 71/1/79 70/2/77 166/3/95
f 84/1/96 83/2/76 179/3/97
f 65/1/78 96/2/74 192/3/98
f 70/1/77 69/2/73 165/3/100
f 83/1/76 82/2/105 178/3/101
f 96/1/74 95/2/71 191/3/102
f 165/1/100 69/2/73 68/3/103
f 82/1/105 81/2/69 177/3/106
f 95/1/71 94/2/110 190/3/107
f 164/1/104 68/2/103 67/3/70
f 81/1/69 80/2/113 176/3/109
f 94/1/110 93/2/68 189/3/111
f 67/1/70 66/2/36 162/3/112
f 80/1/113 79/2/65 175/3/114
f 93/1/68 92/2/66 188/3/115
f 66/1/36 65/2/78 161/3/99
f 79/1/65 78/2/118 174/3/116
f 92/1/66 91/2/62 187/3/117
f 78/1/118 77/2/64 173/3/119
f 91/1/62 90/2/122 186/3/120
f 77/1/64 76/2/61 172/3/121
f 90/1/122 89/2/59 185/3/123
f 76/1/61 75/2/57 171/3/124
f 89/1/59 88/2/88 184/3/125
f 75/1/57 74/2/128 170/3/126
f 88/1/88 87/2/85 183/3/127
f 74/1/128 73/2/87 169/3/90
f 33/1/30 34/2/37 2/3/12
f 110/1/129 142/2/136 141/3/130
f 123/1/132 124/2/137 156/3/133
f 111/1/135 143/2/140 142/3/136
f 124/1/137 125/2/145 157/3/138
f 112/1/139 144/2/147 143/3/140
f 98/1/141 99/2/149 131/3/142
f 126/1/144 158/2/151 157/3/138
f 112/1/139 113/2/153 145/3/146
f 100/1/148 132/2/155 131/3/142
f 127/1/150 159/2/157 158/3/151
f 114/1/152 146/2/159 145/3/146
f 101/1/154 133/2/161 132/3/155
f 128/1/156 160/2/163 159/3/157
f 114/1/152 115/2/164 147/3/158
f 102/1/160 134/2/167 133/3/161
f 128/1/156 97/2/192 129/3/162
f 115/1/164 116/2/169 148/3/165
f 103/1/166 135/2/171 134/3/167
f 129/1/162 130/2/143 162/3/112
f 117/1/168 149/2/173 148/3/165
f 103/1/166 104/2/175 136/3/170
f 118/1/172 150/2/177 149/3/173
f 105/1/174 137/2/179 136/3/170
f 119/1/176 151/2/181 150/3/177
f 105/1/174 106/2/183 138/3/178
f 119/1/176 120/2/185 152/3/180
f 107/1/182 139/2/187 138/3/178
f 121/1/184 153/2/189 152/3/180
f 107/1/182 108/2/190 140/3/186
f 122/1/188 154/2/191 153/3/189
f 108/1/190 109/2/131 141/3/130
f 123/1/132 155/2/134 154/3/191
f 140/1/186 172/2/121 171/3/124
f 154/1/191 186/2/120 185/3/123
f 141/1/130 173/2/119 172/3/121
f 154/1/191 155/2/134 187/3/117
f 142/1/136 174/2/116 173/3/119
f 156/1/133 188/2/115 187/3/117
f 142/1/136 143/2/140 175/3/114
f 157/1/138 189/2/111 188/3/115
f 144/1/147 176/2/109 175/3/114
f 131/1/142 163/2/108 162/3/112
f 158/1/151 190/2/107 189/3/111
f 144/1/147 145/2/146 177/3/106
f 132/1/155 164/2/104 163/3/108
f 158/1/151 159/2/157 191/3/102
f 146/1/159 178/2/101 177/3/106
f 132/1/155 133/2/161 165/3/100
f 159/1/157 160/2/163 192/3/98
f 146/1/159 147/2/158 179/3/97
f 133/1/161 134/2/167 166/3/95
f 129/1/162 161/2/99 192/3/98
f 148/1/165 180/2/94 179/3/97
f 134/1/167 135/2/171 167/3/93
f 148/1/165 149/2/173 181/3/91
f 136/1/170 168/2/89 167/3/93
f 149/1/173 150/2/177 182/3/92
f 137/1/179 169/2/90 168/3/89
f 150/1/177 151/2/181 183/3/127
f 138/1/178 170/2/126 169/3/90
f 152/1/180 184/2/125 183/3/127
f 138/1/178 139/2/187 171/3/124
f 153/1/189 185/2/123 184/3/125
f 98/1/141 130/2/143 129/3/162
f 87/1/85 86/2/82 182/3/92
s 2
f 209/4/193 200/5/194 199/6/195
f 205/4/196 196/5/197 195/6/198
f 211/4/199 202/5/200 201/6/201
f 207/4/202 198/5/203 197/6/204
f 203/4/205 194/5/206 193/6/207
f 209/4/193 220/5/208 210/6/209
f 215/4/210 206/5/211 205/6/196
f 211/4/199 222/5/212 212/6/213
f 207/4/202 218/5/214 208/6/215
f 213/4/216 204/5/217 203/6/205
f 229/4/218 220/5/208 219/6/219
f 225/4/220 216/5/221 215/6/210
f 231/4/222 222/5/212 221/6/223
f 227/4/224 218/5/214 217/6/225
f 213/4/216 224/5/226 214/6/227
f 237/4/228 193/5/207 252/6/229
f 238/4/230 202/5/200 212/6/213
f 252/4/229 238/5/230 237/6/228
f 240/4/231 201/5/201 250/6/232
f 239/4/233 200/5/194 210/6/209
f 239/4/233 250/5/232 249/6/234
f 242/4/235 199/5/195 248/6/236
f 241/4/237 198/5/203 208/6/215
f 241/4/237 248/5/236 247/6/238
f 234/4/239 197/5/204 246/6/240
f 233/4/241 196/5/197 206/6/211
f 233/4/241 246/5/240 245/6/242
f 236/4/243 195/5/198 244/6/244
f 235/4/245 194/5/206 204/6/217
f 235/4/245 244/5/244 243/6/246
f 226/4/247 268/5/248 216/6/221
f 215/4/210 269/5/249 225/6/220
f 224/4/226 270/5/250 214/6/227
f 213/4/216 271/5/251 223/6/252
f 232/4/253 272/5/254 222/6/212
f 221/4/223 273/5/255 231/6/222
f 230/4/256 274/5/257 220/6/208
f 219/4/219 275/5/258 229/6/218
f 228/4/259 276/5/260 218/6/214
f 217/4/225 277/5/261 227/6/224
s 3
f 226/4/262 303/5/263 268/6/264
f 311/4/265 262/5/266 276/6/265
f 263/4/267 294/5/268 259/6/268
f 228/4/269 282/5/270 283/6/269
f 255/4/271 304/5/272 269/6/273
f 227/4/270 312/5/274 282/6/270
f 264/4/275 292/5/276 257/6/276
f 230/4/277 284/5/278 285/6/279
f 224/4/280 305/5/281 270/6/281
f 265/4/282 290/5/271 255/6/271
f 232/4/283 286/5/284 287/6/283
f 257/4/276 306/5/285 271/6/286
f 301/4/287 253/5/288 266/6/287
f 232/4/283 307/5/289 272/6/289
f 267/4/290 296/5/291 261/6/291
f 259/4/268 308/5/292 273/6/293
f 303/4/263 254/5/294 268/6/264
f 230/4/277 309/5/295 274/6/296
f 225/4/297 304/5/272 280/6/298
f 261/4/291 310/5/299 275/6/299
f 305/4/281 256/5/300 270/6/281
f 228/4/269 311/5/265 276/6/265
f 223/4/301 306/5/285 278/6/301
f 262/4/266 302/5/290 267/6/290
f 307/4/289 258/5/302 272/6/289
f 254/4/294 301/5/287 266/6/287
f 231/4/284 308/5/292 286/6/284
f 291/4/300 265/5/282 256/6/300
f 309/4/295 260/5/303 274/6/296
f 293/4/302 264/5/275 258/6/302
f 223/4/301 279/5/280 224/6/280
f 253/4/288 312/5/274 277/6/274
f 229/4/304 310/5/299 284/6/278
f 260/4/303 298/5/267 263/6/267
f 226/4/262 280/5/298 281/6/305
s 4
f 281/4/306 315/5/306 316/6/306
f 278/4/306 341/5/306 313/6/306
f 297/4/306 337/5/306 302/6/306
f 282/4/306 318/5/306 283/6/306
f 342/4/306 293/5/306 307/6/306
f 289/4/306 336/5/306 301/6/306
f 285/4/306 319/5/306 320/6/306
f 286/4/306 343/5/306 321/6/306
f 326/4/306 300/5/306 291/6/306
f 286/4/306 322/5/306 287/6/306
f 344/4/306 295/5/306 309/6/306
f 328/4/306 299/5/306 293/6/306
f 288/4/306 347/5/306 312/6/306
f 284/4/306 345/5/306 319/6/306
f 330/4/306 298/5/306 295/6/306
f 281/4/306 338/5/306 303/6/306
f 346/4/306 297/5/306 311/6/306
f 333/4/306 294/5/306 298/6/306
f 290/4/306 339/5/306 304/6/306
f 282/4/306 347/5/306 317/6/306
f 299/4/306 327/5/306 292/6/306
f 279/4/306 340/5/306 305/6/306
f 335/4/306 290/5/306 300/6/306
f 292/4/306 341/5/306 306/6/306
f 301/4/306 323/5/306 288/6/306
f 287/4/306 342/5/306 307/6/306
f 337/4/306 296/5/306 302/6/306
f 294/4/306 343/5/306 308/6/306
f 338/4/306 289/5/306 303/6/306
f 285/4/306 344/5/306 309/6/306
f 280/4/306 339/5/306 315/6/306
f 296/4/306 345/5/306 310/6/306
f 279/4/306 313/5/306 314/6/306
f 340/4/306 291/5/306 305/6/306
f 283/4/306 346/5/306 311/6/306
s 2
f 194/4/206 464/5/307 454/6/308
f 251/4/309 462/5/310 202/6/200
f 194/4/206 455/5/311 193/6/207
f 244/4/244 457/5/312 465/6/313
f 193/4/207 473/5/314 252/6/229
f 195/4/198 456/5/315 457/6/312
f 245/4/242 456/5/315 196/6/197
f 244/4/244 464/5/307 243/6/246
f 197/4/204 458/5/316 459/6/317
f 197/4/204 467/5/318 246/6/240
f 246/4/240 466/5/319 245/6/242
f 199/4/195 460/5/320 461/6/321
f 247/4/238 458/5/316 198/6/203
f 247/4/238 469/5/322 468/6/323
f 201/4/201 462/5/310 463/6/324
f 199/4/195 469/5/322 248/6/236
f 250/4/232 470/5/325 249/6/234
f 200/4/194 470/5/325 460/6/320
f 251/4/309 473/5/314 472/6/326
f 201/4/201 471/5/327 250/6/232
s 5
f 217/4/328 353/5/329 363/6/330
s 6
f 241/4/331 354/5/332 377/6/333
f 218/4/334 354/5/332 208/6/335
s 7
f 256/4/336 396/5/337 270/6/337
s 5
f 234/4/338 369/5/339 370/6/340
s 6
f 242/4/341 355/5/342 209/6/343
s 8
f 213/4/344 349/5/345 359/6/346
s 9
f 214/4/347 350/5/348 204/6/349
s 10
f 258/4/350 398/5/351 272/6/351
s 9
f 236/4/352 371/5/353 372/6/354
s 11
f 260/4/355 400/5/356 274/6/356
s 12
f 253/4/357 403/5/358 379/6/359
s 13
f 262/4/360 402/5/361 276/6/361
s 14
f 255/4/362 395/5/363 381/6/364
s 5
f 268/4/365 362/5/366 216/6/367
s 15
f 257/4/368 397/5/369 383/6/370
s 9
f 269/4/371 361/5/372 395/6/373
f 270/4/374 360/5/375 214/6/347
s 16
f 259/4/376 399/5/377 385/6/378
s 8
f 271/4/379 359/5/346 397/6/380
f 272/4/381 368/5/382 222/6/383
s 17
f 261/4/384 401/5/385 387/6/386
s 18
f 273/4/387 367/5/388 399/6/389
f 274/4/390 366/5/391 220/6/392
s 17
f 267/4/393 388/5/394 262/6/395
s 6
f 275/4/396 365/5/397 401/6/398
s 12
f 266/4/399 380/5/400 254/6/401
s 6
f 276/4/402 364/5/403 218/6/334
s 14
f 265/4/404 382/5/405 256/6/406
s 5
f 277/4/407 363/5/330 403/6/408
s 15
f 264/4/409 384/5/410 258/6/411
s 8
f 237/4/412 374/5/413 373/6/414
s 5
f 233/4/415 352/5/416 369/6/339
s 16
f 263/4/417 386/5/418 260/6/419
s 5
f 234/4/338 353/5/329 207/6/420
s 6
f 219/4/421 355/5/342 365/6/397
s 16
f 263/4/417 385/5/378 389/6/422
s 9
f 235/4/423 350/5/348 371/6/353
s 18
f 220/4/392 356/5/424 210/6/425
s 15
f 264/4/409 383/5/370 390/6/426
s 18
f 239/4/427 376/5/428 240/6/429
s 9
f 236/4/352 351/5/430 205/6/431
f 215/4/432 351/5/430 361/6/372
s 14
f 265/4/404 381/5/364 391/6/404
s 8
f 237/4/412 349/5/345 203/6/433
s 5
f 216/4/367 352/5/416 206/6/434
s 12
f 266/4/399 379/5/359 392/6/399
s 8
f 238/4/435 358/5/436 374/6/413
s 18
f 221/4/437 357/5/438 367/6/388
s 17
f 267/4/393 387/5/386 393/6/393
s 6
f 242/4/341 377/5/333 378/6/439
s 18
f 239/4/427 356/5/424 375/6/440
s 8
f 222/4/383 358/5/436 212/6/441
s 19
f 254/4/442 394/5/443 268/6/443
s 18
f 240/4/429 357/5/438 211/6/444
s 20
f 273/4/445 231/5/446 412/6/446
f 427/4/447 254/5/448 266/6/447
f 274/4/449 421/5/450 411/6/451
f 265/4/452 417/5/453 256/6/453
f 414/4/454 277/5/455 408/6/456
f 425/4/457 258/5/458 264/6/457
f 224/4/459 404/5/460 223/6/460
f 275/4/461 229/5/462 410/6/462
f 276/4/463 423/5/464 409/6/465
f 424/4/466 260/5/450 263/6/466
f 226/4/467 406/5/468 225/6/469
f 416/4/470 255/5/470 269/6/471
f 405/4/459 224/5/459 270/6/472
f 420/4/473 263/5/466 259/6/473
f 228/4/465 408/5/456 227/6/456
s 21
f 415/4/474 432/5/474 407/6/474
s 20
f 229/4/462 411/5/451 410/6/462
f 418/4/475 264/5/457 257/6/475
f 418/4/475 257/5/475 271/6/476
f 255/4/470 426/5/452 265/6/452
f 232/4/477 412/5/446 231/6/446
s 21
f 421/4/474 436/5/474 411/6/474
s 20
f 253/4/454 427/5/447 266/6/447
f 422/4/478 267/5/479 261/6/478
f 428/4/479 262/5/464 267/6/479
s 21
f 426/4/474 442/5/474 417/6/474
f 413/4/474 437/5/474 412/6/474
f 414/4/474 433/5/474 439/6/474
f 419/4/474 450/5/474 444/6/474
f 422/4/474 435/5/474 447/6/474
f 423/4/474 434/5/474 409/6/474
f 424/4/474 446/5/474 421/6/474
f 416/4/474 431/5/474 441/6/474
f 405/4/474 442/5/474 430/6/474
f 420/4/474 449/5/474 424/6/474
f 425/4/474 443/5/474 450/6/474
f 404/4/474 443/5/474 418/6/474
f 416/4/474 451/5/474 426/6/474
f 419/4/474 438/5/474 413/6/474
f 427/4/474 439/5/474 452/6/474
f 412/4/474 445/5/474 420/6/474
f 422/4/474 453/5/474 428/6/474
f 404/4/474 430/5/474 429/6/474
f 406/4/474 432/5/474 431/6/474
f 423/4/474 453/5/474 448/6/474
f 409/4/474 433/5/474 408/6/474
f 427/4/474 440/5/474 415/6/474
f 411/4/474 435/5/474 410/6/474
s 20
f 407/4/480 226/5/467 268/6/481
f 272/4/482 419/5/458 413/6/477
s 2
f 348/4/306 455/5/311 454/6/308
f 348/4/306 457/5/312 456/6/315
f 348/4/306 459/5/317 458/6/316
f 348/4/306 461/5/321 460/6/320
f 348/4/306 463/5/324 462/6/310
f 348/4/306 464/5/307 465/6/313
f 348/4/306 466/5/319 467/6/318
f 348/4/306 468/5/323 469/6/322
f 348/4/306 470/5/325 471/6/327
f 348/4/306 472/5/326 473/6/314
f 348/4/306 454/5/308 464/6/307
f 348/4/306 465/5/313 457/6/312
f 348/4/306 456/5/315 466/6/319
f 348/4/306 467/5/318 459/6/317
f 348/4/306 458/5/316 468/6/323
f 348/4/306 469/5/322 461/6/321
f 348/4/306 460/5/320 470/6/325
f 348/4/306 471/5/327 463/6/324
f 348/4/306 462/5/310 472/6/326
f 348/4/306 473/5/314 455/6/311
f 209/4/193 210/5/209 200/6/194
f 205/4/196 206/5/211 196/6/197
f 211/4/199 212/5/213 202/6/200
f 207/4/202 208/5/215 198/6/203
f 203/4/205 204/5/217 194/6/206
f 209/4/193 219/5/219 220/6/208
f 215/4/210 216/5/221 206/6/211
f 211/4/199 221/5/223 222/6/212
f 207/4/202 217/5/225 218/6/214
f 213/4/216 214/5/227 204/6/217
f 229/4/218 230/5/256 220/6/208
f 225/4/220 226/5/247 216/6/221
f 231/4/222 232/5/253 222/6/212
f 227/4/224 228/5/259 218/6/214
f 213/4/216 223/5/252 224/6/226
f 237/4/228 203/5/205 193/6/207
f 238/4/230 251/5/309 202/6/200
f 252/4/229 251/5/309 238/6/230
f 240/4/231 211/5/199 201/6/201
f 239/4/233 249/5/234 200/6/194
f 239/4/233 240/5/231 250/6/232
f 242/4/235 209/5/193 199/6/195
f 241/4/237 247/5/238 198/6/203
f 241/4/237 242/5/235 248/6/236
f 234/4/239 207/5/202 197/6/204
f 233/4/241 245/5/242 196/6/197
f 233/4/241 234/5/239 246/6/240
f 236/4/243 205/5/196 195/6/198
f 235/4/245 243/5/246 194/6/206
f 235/4/245 236/5/243 244/6/244
s 3
f 226/4/262 281/5/305 303/6/263
f 311/4/265 297/5/266 262/6/266
f 263/4/267 298/5/267 294/6/268
f 228/4/269 227/5/270 282/6/270
f 255/4/271 290/5/271 304/6/272
f 227/4/270 277/5/274 312/6/274
f 264/4/275 299/5/275 292/6/276
f 230/4/277 229/5/304 284/6/278
f 224/4/280 279/5/280 305/6/281
f 265/4/282 300/5/282 290/6/271
f 232/4/283 231/5/284 286/6/284
f 257/4/276 292/5/276 306/6/285
f 301/4/287 288/5/288 253/6/288
f 232/4/283 287/5/283 307/6/289
f 267/4/290 302/5/290 296/6/291
f 259/4/268 294/5/268 308/6/292
f 303/4/263 289/5/294 254/6/294
f 230/4/277 285/5/279 309/6/295
f 225/4/297 269/5/273 304/6/272
f 261/4/291 296/5/291 310/6/299
f 305/4/281 291/5/300 256/6/300
f 228/4/269 283/5/269 311/6/265
f 223/4/301 271/5/286 306/6/285
f 262/4/266 297/5/266 302/6/290
f 307/4/289 293/5/302 258/6/302
f 254/4/294 289/5/294 301/6/287
f 231/4/284 273/5/293 308/6/292
f 291/4/300 300/5/282 265/6/282
f 309/4/295 295/5/303 260/6/303
f 293/4/302 299/5/275 264/6/275
f 223/4/301 278/5/301 279/6/280
f 253/4/288 288/5/288 312/6/274
f 229/4/304 275/5/299 310/6/299
f 260/4/303 295/5/303 298/6/267
f 226/4/262 225/5/297 280/6/298
s 4
f 281/4/306 280/5/306 315/6/306
f 278/4/306 306/5/306 341/6/306
f 297/4/306 332/5/306 337/6/306
f 282/4/306 317/5/306 318/6/306
f 342/4/306 328/5/306 293/6/306
f 289/4/306 324/5/306 336/6/306
f 285/4/306 284/5/306 319/6/306
f 286/4/306 308/5/306 343/6/306
f 326/4/306 335/5/306 300/6/306
f 286/4/306 321/5/306 322/6/306
f 344/4/306 330/5/306 295/6/306
f 328/4/306 334/5/306 299/6/306
f 288/4/306 323/5/306 347/6/306
f 284/4/306 310/5/306 345/6/306
f 330/4/306 333/5/306 298/6/306
f 281/4/306 316/5/306 338/6/306
f 346/4/306 332/5/306 297/6/306
f 333/4/306 329/5/306 294/6/306
f 290/4/306 325/5/306 339/6/306
f 282/4/306 312/5/306 347/6/306
f 299/4/306 334/5/306 327/6/306
f 279/4/306 314/5/306 340/6/306
f 335/4/306 325/5/306 290/6/306
f 292/4/306 327/5/306 341/6/306
f 301/4/306 336/5/306 323/6/306
f 287/4/306 322/5/306 342/6/306
f 337/4/306 331/5/306 296/6/306
f 294/4/306 329/5/306 343/6/306
f 338/4/306 324/5/306 289/6/306
f 285/4/306 320/5/306 344/6/306
f 280/4/306 304/5/306 339/6/306
f 296/4/306 331/5/306 345/6/306
f 279/4/306 278/5/306 313/6/306
f 340/4/306 326/5/306 291/6/306
f 283/4/306 318/5/306 346/6/306
s 2
f 194/4/206 243/5/246 464/6/307
f 251/4/309 472/5/326 462/6/310
f 194/4/206 454/5/308 455/6/311
f 244/4/244 195/5/198 457/6/312
f 193/4/207 455/5/311 473/6/314
f 195/4/198 196/5/197 456/6/315
f 245/4/242 466/5/319 456/6/315
f 244/4/244 465/5/313 464/6/307
f 197/4/204 198/5/203 458/6/316
f 197/4/204 459/5/317 467/6/318
f 246/4/240 467/5/318 466/6/319
f 199/4/195 200/5/194 460/6/320
f 247/4/238 468/5/323 458/6/316
f 247/4/238 248/5/236 469/6/322
f 201/4/201 202/5/200 462/6/310
f 199/4/195 461/5/321 469/6/322
f 250/4/232 471/5/327 470/6/325
f 200/4/194 249/5/234 470/6/325
f 251/4/309 252/5/229 473/6/314
f 201/4/201 463/5/324 471/6/327
s 5
f 217/4/328 207/5/420 353/6/329
s 6
f 241/4/331 208/5/335 354/6/332
f 218/4/334 364/5/403 354/6/332
s 14
f 256/4/406 382/5/405 396/6/337
s 5
f 234/4/338 233/5/415 369/6/339
s 6
f 242/4/341 378/5/439 355/6/342
s 8
f 213/4/344 203/5/433 349/6/345
s 9
f 214/4/347 360/5/375 350/6/348
s 15
f 258/4/411 384/5/410 398/6/351
s 9
f 236/4/352 235/5/423 371/6/353
s 16
f 260/4/419 386/5/418 400/6/483
s 12
f 253/4/357 277/5/484 403/6/358
s 17
f 262/4/395 388/5/394 402/6/361
s 14
f 255/4/362 269/5/363 395/6/363
s 5
f 268/4/365 394/5/485 362/6/366
s 15
f 257/4/368 271/5/369 397/6/369
s 9
f 269/4/371 215/5/432 361/6/372
f 270/4/374 396/5/486 360/6/375
s 16
f 259/4/376 273/5/377 399/6/377
s 8
f 271/4/379 213/5/344 359/6/346
f 272/4/381 398/5/487 368/6/382
s 17
f 261/4/384 275/5/385 401/6/385
s 18
f 273/4/387 221/5/437 367/6/388
f 274/4/390 400/5/488 366/6/391
s 17
f 267/4/393 393/5/393 388/6/394
s 6
f 275/4/396 219/5/421 365/6/397
s 12
f 266/4/399 392/5/399 380/6/400
s 6
f 276/4/402 402/5/489 364/6/403
s 14
f 265/4/404 391/5/404 382/6/405
s 5
f 277/4/407 217/5/328 363/6/330
s 15
f 264/4/409 390/5/426 384/6/410
s 8
f 237/4/412 238/5/435 374/6/413
s 5
f 233/4/415 206/5/434 352/6/416
s 16
f 263/4/417 389/5/422 386/6/418
s 5
f 234/4/338 370/5/340 353/6/329
s 6
f 219/4/421 209/5/343 355/6/342
s 16
f 263/4/417 259/5/376 385/6/378
s 9
f 235/4/423 204/5/349 350/6/348
s 18
f 220/4/392 366/5/391 356/6/424
s 15
f 264/4/409 257/5/368 383/6/370
s 18
f 239/4/427 375/5/440 376/6/428
s 9
f 236/4/352 372/5/354 351/6/430
f 215/4/432 205/5/431 351/6/430
s 14
f 265/4/404 255/5/362 381/6/364
s 8
f 237/4/412 373/5/414 349/6/345
s 5
f 216/4/367 362/5/366 352/6/416
s 12
f 266/4/399 253/5/357 379/6/359
s 8
f 238/4/435 212/5/441 358/6/436
s 18
f 221/4/437 211/5/444 357/6/438
s 17
f 267/4/393 261/5/384 387/6/386
s 6
f 242/4/341 241/5/331 377/6/333
s 18
f 239/4/427 210/5/425 356/6/424
s 8
f 222/4/383 368/5/382 358/6/436
s 12
f 254/4/401 380/5/400 394/6/443
s 18
f 240/4/429 376/5/428 357/6/438
s 20
f 412/4/446 420/5/473 273/6/445
f 420/4/473 259/5/473 273/6/445
f 427/4/447 415/5/448 254/6/448
f 411/4/451 230/5/490 274/6/449
f 274/4/449 260/5/450 421/6/450
f 265/4/452 426/5/452 417/6/453
f 253/4/454 277/5/455 414/6/454
f 277/4/455 227/5/456 408/6/456
f 425/4/457 419/5/458 258/6/458
f 224/4/459 405/5/459 404/6/460
f 410/4/462 422/5/478 275/6/461
f 422/4/478 261/5/478 275/6/461
f 409/4/465 228/5/465 276/6/463
f 276/4/463 262/5/464 423/6/464
f 424/4/466 421/5/450 260/6/450
f 226/4/467 407/5/480 406/6/468
f 269/4/471 225/5/469 406/6/468
f 406/4/468 416/5/470 269/6/471
f 270/4/472 256/5/453 417/6/453
f 417/4/453 405/5/459 270/6/472
f 420/4/473 424/5/466 263/6/466
f 228/4/465 409/5/465 408/6/456
s 21
f 415/4/474 440/5/474 432/6/474
s 20
f 229/4/462 230/5/490 411/6/451
f 418/4/475 425/5/457 264/6/457
f 271/4/476 223/5/460 404/6/460
f 404/4/460 418/5/475 271/6/476
f 255/4/470 416/5/470 426/6/452
f 232/4/477 413/5/477 412/6/446
s 21
f 421/4/474 446/5/474 436/6/474
s 20
f 253/4/454 414/5/454 427/6/447
f 422/4/478 428/5/479 267/6/479
f 428/4/479 423/5/464 262/6/464
s 21
f 426/4/474 451/5/474 442/6/474
f 413/4/474 438/5/474 437/6/474
f 414/4/474 408/5/474 433/6/474
f 419/4/474 425/5/474 450/6/474
f 422/4/474 410/5/474 435/6/474
f 423/4/474 448/5/474 434/6/474
f 424/4/474 449/5/474 446/6/474
f 416/4/474 406/5/474 431/6/474
f 405/4/474 417/5/474 442/6/474
f 420/4/474 445/5/474 449/6/474
f 425/4/474 418/5/474 443/6/474
f 404/4/474 429/5/474 443/6/474
f 416/4/474 441/5/474 451/6/474
f 419/4/474 444/5/474 438/6/474
f 427/4/474 414/5/474 439/6/474
f 412/4/474 437/5/474 445/6/474
f 422/4/474 447/5/474 453/6/474
f 404/4/474 405/5/474 430/6/474
f 406/4/474 407/5/474 432/6/474
f 423/4/474 428/5/474 453/6/474
f 409/4/474 434/5/474 433/6/474
f 427/4/474 452/5/474 440/6/474
f 411/4/474 436/5/474 435/6/474
s 20
f 268/4/481 254/5/448 415/6/448
f 415/4/448 407/5/480 268/6/481
f 413/4/477 232/5/477 272/6/482
f 272/4/482 258/5/458 419/6/458
