# Blender 5.0.1
# www.blender.org
g Sphere.001_Mesh
v 0.000000 2.815252 -0.559989
v 0.000000 2.651909 -1.098457
v 0.000000 2.386655 -1.594712
v 0.000000 2.029683 -2.029684
v 0.000000 1.594712 -2.386656
v 0.000000 1.098456 -2.651909
v 0.000000 0.559988 -2.815252
v 0.000000 -0.000000 -2.870406
v 0.000000 -0.559989 -2.815252
v 0.000000 -2.386656 -1.594712
v 0.109248 2.815252 -0.549229
v 0.214299 2.651909 -1.077351
v 0.311113 2.386655 -1.564070
v 0.395972 2.029683 -1.990684
v 0.465614 1.594712 -2.340797
v 0.517362 1.098456 -2.600954
v 0.549229 0.559988 -2.761157
v 0.559989 -0.000000 -2.815252
v 0.549229 -0.559989 -2.761158
v 0.517362 -1.098457 -2.600953
v 0.465614 -1.594712 -2.340796
v 0.395972 -2.029684 -1.990683
v 0.311113 -2.386656 -1.564070
v 0.214298 -2.651910 -1.077349
v 0.109248 -2.815252 -0.549227
v 0.214299 2.815252 -0.517362
v 0.420362 2.651909 -1.014842
v 0.610270 2.386655 -1.473322
v 0.776727 2.029683 -1.875183
v 0.913334 1.594712 -2.204982
v 1.014842 1.098456 -2.450045
v 1.077351 0.559988 -2.600953
v 1.098457 -0.000000 -2.651909
v 1.077351 -0.559988 -2.600953
v 1.014842 -1.098457 -2.450044
v 0.913334 -1.594712 -2.204982
v 0.776727 -2.029684 -1.875182
v 0.610270 -2.386656 -1.473321
v 0.420361 -2.651910 -1.014841
v 0.214298 -2.815252 -0.517361
v 0.311113 2.815252 -0.465614
v 0.610270 2.651909 -0.913334
v 0.885975 2.386655 -1.325955
v 1.127632 2.029683 -1.687620
v 1.325955 1.594712 -1.984431
v 1.473322 1.098456 -2.204982
v 1.564070 0.559988 -2.340796
v 1.594713 -0.000000 -2.386655
v 1.564070 -0.559988 -2.340796
v 1.473322 -1.098457 -2.204982
v 1.325955 -1.594712 -1.984431
v 1.127632 -2.029684 -1.687620
v 0.885975 -2.386656 -1.325954
v 0.610270 -2.651910 -0.913333
v 0.311113 -2.815252 -0.465612
v 0.395972 2.815252 -0.395972
v 0.776727 2.651909 -0.776726
v 1.127632 2.386655 -1.127632
v 1.435203 2.029683 -1.435203
v 1.687621 1.594712 -1.687620
v 1.875183 1.098456 -1.875183
v 1.990684 0.559988 -1.990683
v 2.029684 -0.000000 -2.029683
v 1.990684 -0.559988 -1.990683
v 1.875183 -1.098457 -1.875183
v 1.687621 -1.594712 -1.687619
v 1.435203 -2.029684 -1.435202
v 1.127632 -2.386656 -1.127631
v 0.776727 -2.651910 -0.776725
v 0.395972 -2.815252 -0.395970
v 0.465614 2.815252 -0.311113
v 0.913334 2.651909 -0.610270
v 1.325955 2.386655 -0.885975
v 1.687621 2.029683 -1.127632
v 1.984432 1.594712 -1.325954
v 2.204983 1.098457 -1.473322
v 2.340797 0.559988 -1.564069
v 2.386656 -0.000000 -1.594711
v 2.340797 -0.559988 -1.564069
v 2.204983 -1.098457 -1.473321
v 1.984432 -1.594712 -1.325954
v 1.687621 -2.029684 -1.127631
v 1.325955 -2.386656 -0.885974
v 0.913334 -2.651910 -0.610269
v 0.465614 -2.815252 -0.311112
v 0.517363 2.815252 -0.214298
v 1.014843 2.651909 -0.420361
v 1.473323 2.386655 -0.610270
v 1.875184 2.029683 -0.776726
v 2.204983 1.594712 -0.913333
v 2.450045 1.098457 -1.014841
v 2.600954 0.559988 -1.077349
v 2.651910 0.000000 -1.098456
v 2.600954 -0.559988 -1.077349
v 2.450045 -1.098457 -1.014841
v 2.204983 -1.594712 -0.913332
v 1.875184 -2.029684 -0.776725
v 1.473322 -2.386655 -0.610269
v 1.014842 -2.651910 -0.420360
v 0.517362 -2.815252 -0.214297
v 0.549229 2.815252 -0.109248
v 1.077351 2.651909 -0.214298
v 1.564071 2.386655 -0.311113
v 1.990684 2.029683 -0.395971
v 2.340797 1.594712 -0.465613
v 2.600954 1.098457 -0.517361
v 2.761158 0.559988 -0.549227
v 2.815253 0.000000 -0.559987
v 2.761158 -0.559988 -0.549227
v 2.600954 -1.098457 -0.517361
v 2.340797 -1.594712 -0.465612
v 1.990684 -2.029683 -0.395971
v 1.564071 -2.386655 -0.311112
v 1.077351 -2.651910 -0.214297
v 0.549228 -2.815252 -0.109247
v 0.559989 2.815252 0.000000
v 1.098458 2.651909 0.000000
v 1.594713 2.386655 0.000001
v 2.029684 2.029683 0.000001
v 2.386656 1.594712 0.000001
v 2.651910 1.098457 0.000001
v 2.815252 0.559988 0.000001
v 2.870407 0.000000 0.000001
v 2.815252 -0.559988 0.000001
v 2.651910 -1.098456 0.000001
v 2.386656 -1.594712 0.000001
v 2.029684 -2.029683 0.000001
v 1.594712 -2.386655 0.000001
v 1.098457 -2.651910 0.000001
v 0.559989 -2.815252 0.000001
v 0.549229 2.815252 0.109249
v 1.077351 2.651909 0.214299
v 1.564071 2.386655 0.311114
v 1.990684 2.029683 0.395972
v 2.340797 1.594712 0.465614
v 2.600954 1.098457 0.517363
v 2.761157 0.559989 0.549229
v 2.815253 0.000000 0.559990
v 2.761157 -0.559988 0.549230
v 2.600954 -1.098456 0.517363
v 2.340797 -1.594712 0.465615
v 1.990684 -2.029683 0.395973
v 1.564070 -2.386655 0.311114
v 1.077351 -2.651910 0.214300
v 0.549228 -2.815252 0.109250
v 0.517363 2.815252 0.214299
v 1.014842 2.651909 0.420362
v 1.473322 2.386655 0.610271
v 1.875183 2.029684 0.776727
v 2.204982 1.594712 0.913334
v 2.450045 1.098457 1.014842
v 2.600953 0.559989 1.077351
v 2.651910 0.000000 1.098458
v 2.600953 -0.559988 1.077351
v 2.450045 -1.098456 1.014843
v 2.204982 -1.594712 0.913335
v 1.875183 -2.029683 0.776728
v 1.473322 -2.386655 0.610271
v 1.014842 -2.651910 0.420363
v 0.517362 -2.815252 0.214300
v 0.465614 2.815252 0.311114
v 0.913334 2.651909 0.610271
v 1.325955 2.386656 0.885975
v 1.687621 2.029684 1.127632
v 1.984432 1.594712 1.325956
v 2.204982 1.098457 1.473323
v 2.340796 0.559989 1.564071
v 2.386656 0.000000 1.594713
v 2.340796 -0.559988 1.564071
v 2.204982 -1.098456 1.473323
v 1.984432 -1.594712 1.325956
v 1.687621 -2.029683 1.127633
v 1.325955 -2.386655 0.885976
v 0.913334 -2.651910 0.610271
v 0.465613 -2.815252 0.311114
v 0.395972 2.815252 0.395973
v 0.776727 2.651909 0.776727
v 1.127632 2.386656 1.127633
v 1.435203 2.029684 1.435204
v 1.687620 1.594712 1.687621
v 1.875183 1.098457 1.875184
v 1.990683 0.559989 1.990684
v 2.029684 0.000001 2.029685
v 1.990683 -0.559988 1.990685
v 1.875183 -1.098456 1.875184
v 1.687620 -1.594712 1.687621
v 1.435203 -2.029683 1.435204
v 1.127632 -2.386655 1.127633
v 0.776726 -2.651909 0.776728
v 0.395972 -2.815252 0.395973
v 0.311113 2.815252 0.465614
v 0.610270 2.651909 0.913334
v 0.885975 2.386656 1.325955
v 1.127632 2.029684 1.687621
v 1.325955 1.594712 1.984432
v 1.473322 1.098457 2.204983
v 1.564070 0.559989 2.340797
v 1.594712 0.000001 2.386657
v 1.564070 -0.559988 2.340797
v 1.473322 -1.098456 2.204983
v 1.325955 -1.594712 1.984433
v 1.127632 -2.029683 1.687622
v 0.885975 -2.386655 1.325956
v 0.610270 -2.651909 0.913335
v 0.311113 -2.815252 0.465615
v 0.000000 -2.870406 0.000001
v 0.214299 2.815252 0.517363
v 0.420361 2.651909 1.014843
v 0.610270 2.386656 1.473323
v 0.776726 2.029684 1.875184
v 0.913333 1.594712 2.204983
v 1.014842 1.098457 2.450045
v 1.077350 0.559989 2.600954
v 1.098457 0.000001 2.651911
v 1.077350 -0.559988 2.600954
v 1.014842 -1.098456 2.450046
v 0.913333 -1.594712 2.204983
v 0.776726 -2.029683 1.875184
v 0.610270 -2.386655 1.473323
v 0.420361 -2.651909 1.014843
v 0.214298 -2.815252 0.517363
v 0.109248 2.815252 0.549229
v 0.214298 2.651909 1.077351
v 0.311113 2.386656 1.564071
v 0.395972 2.029684 1.990684
v 0.465613 1.594712 2.340797
v 0.517362 1.098457 2.600954
v 0.549228 0.559989 2.761158
v 0.559988 0.000001 2.815253
v 0.549228 -0.559988 2.761158
v 0.517362 -1.098456 2.600955
v 0.465613 -1.594712 2.340797
v 0.395972 -2.029683 1.990685
v 0.311113 -2.386655 1.564071
v 0.214298 -2.651909 1.077352
v 0.109248 -2.815252 0.549230
v -0.000000 2.815252 0.559989
v 0.000000 2.651909 1.098457
v 0.000000 2.386656 1.594713
v -0.000000 2.029684 2.029684
v -0.000000 1.594712 2.386655
v 0.000000 1.098457 2.651910
v -0.000000 0.559989 2.815252
v -0.000000 0.000001 2.870407
v -0.000000 -0.559988 2.815252
v 0.000000 -1.098456 2.651911
v -0.000000 -1.594712 2.386656
v -0.000000 -2.029683 2.029685
v -0.000000 -2.386655 1.594713
v 0.000000 -2.651909 1.098458
v 0.000000 -2.815252 0.559990
v -0.109248 2.815252 0.549229
v -0.214298 2.651909 1.077351
v -0.311113 2.386656 1.564071
v -0.395972 2.029684 1.990684
v -0.465614 1.594712 2.340796
v -0.517362 1.098457 2.600954
v -0.549228 0.559989 2.761158
v -0.559989 0.000001 2.815253
v -0.549228 -0.559988 2.761158
v -0.517362 -1.098456 2.600955
v -0.465614 -1.594712 2.340797
v -0.395972 -2.029683 1.990685
v -0.311113 -2.386655 1.564071
v -0.214298 -2.651909 1.077351
v -0.109248 -2.815252 0.549230
v -0.214299 2.815252 0.517363
v -0.420361 2.651909 1.014842
v -0.610270 2.386656 1.473323
v -0.776726 2.029684 1.875183
v -0.913333 1.594712 2.204982
v -1.014842 1.098457 2.450045
v -1.077350 0.559989 2.600954
v -1.098457 0.000001 2.651910
v -1.077350 -0.559988 2.600954
v -1.014842 -1.098456 2.450046
v -0.913333 -1.594712 2.204982
v -0.776726 -2.029683 1.875184
v -0.610270 -2.386655 1.473323
v -0.420361 -2.651909 1.014843
v -0.214298 -2.815252 0.517363
v -0.311113 2.815252 0.465614
v -0.610270 2.651909 0.913334
v -0.885975 2.386656 1.325955
v -1.127632 2.029684 1.687621
v -1.325954 1.594712 1.984431
v -1.473322 1.098457 2.204983
v -1.564070 0.559989 2.340796
v -1.594712 0.000001 2.386656
v -1.564070 -0.559988 2.340796
v -1.473322 -1.098456 2.204983
v -1.325954 -1.594712 1.984432
v -1.127632 -2.029683 1.687621
v -0.885974 -2.386655 1.325956
v -0.610270 -2.651909 0.913334
v -0.311113 -2.815252 0.465615
v -0.000001 2.870406 0.000001
v -0.395972 2.815252 0.395972
v -0.776726 2.651909 0.776727
v -1.127632 2.386656 1.127632
v -1.435203 2.029684 1.435203
v -1.687620 1.594712 1.687620
v -1.875183 1.098457 1.875184
v -1.990683 0.559989 1.990683
v -2.029684 0.000001 2.029684
v -1.990683 -0.559988 1.990684
v -1.875183 -1.098456 1.875184
v -1.687620 -1.594712 1.687620
v -1.435203 -2.029683 1.435204
v -1.127632 -2.386655 1.127633
v -0.776726 -2.651909 0.776727
v -0.395971 -2.815252 0.395973
v -0.465614 2.815252 0.311114
v -0.913333 2.651909 0.610270
v -1.325955 2.386656 0.885975
v -1.687620 2.029684 1.127632
v -1.984431 1.594712 1.325954
v -2.204982 1.098457 1.473323
v -2.340796 0.559989 1.564070
v -2.386655 0.000000 1.594712
v -2.340796 -0.559988 1.564070
v -2.204982 -1.098456 1.473323
v -1.984431 -1.594712 1.325955
v -1.687620 -2.029683 1.127633
v -1.325954 -2.386655 0.885976
v -0.913333 -2.651910 0.610271
v -0.465613 -2.815252 0.311114
v -0.517362 2.815252 0.214299
v -1.014842 2.651909 0.420362
v -1.473322 2.386655 0.610270
v -1.875183 2.029684 0.776726
v -2.204981 1.594712 0.913333
v -2.450045 1.098457 1.014842
v -2.600953 0.559989 1.077350
v -2.651909 0.000000 1.098457
v -2.600953 -0.559988 1.077350
v -2.450045 -1.098456 1.014843
v -2.204981 -1.594712 0.913334
v -1.875183 -2.029683 0.776727
v -1.473322 -2.386655 0.610271
v -1.014841 -2.651910 0.420362
v -0.517362 -2.815252 0.214300
v -0.549229 2.815252 0.109249
v -1.077350 2.651909 0.214299
v -1.564070 2.386655 0.311113
v -1.990684 2.029683 0.395972
v -2.340795 1.594712 0.465613
v -2.600953 1.098457 0.517363
v -2.761157 0.559989 0.549228
v -2.815252 0.000000 0.559989
v -2.761157 -0.559988 0.549229
v -2.600953 -1.098456 0.517363
v -2.340795 -1.594712 0.465614
v -1.990684 -2.029683 0.395972
v -1.564070 -2.386655 0.311114
v -1.077350 -2.651910 0.214299
v -0.549228 -2.815252 0.109250
v -0.559989 2.815252 0.000000
v -1.098457 2.651909 0.000000
v -1.594712 2.386655 0.000000
v -2.029683 2.029683 0.000000
v -2.386654 1.594712 0.000000
v -2.651909 1.098457 0.000001
v -2.815251 0.559988 0.000000
v -2.870405 0.000000 0.000000
v -2.815251 -0.559988 0.000000
v -2.651909 -1.098456 0.000001
v -2.386654 -1.594712 0.000001
v -2.029683 -2.029683 0.000001
v -1.594712 -2.386655 0.000001
v -1.098456 -2.651910 0.000001
v -0.559988 -2.815252 0.000001
v -0.549229 2.815252 -0.109248
v -1.077350 2.651909 -0.214298
v -1.564070 2.386655 -0.311112
v -1.990683 2.029683 -0.395971
v -2.340795 1.594712 -0.465613
v -2.600953 1.098457 -0.517361
v -2.761156 0.559988 -0.549228
v -2.815251 0.000000 -0.559988
v -2.761156 -0.559988 -0.549228
v -2.600953 -1.098457 -0.517361
v -2.340795 -1.594712 -0.465612
v -1.990683 -2.029683 -0.395971
v -1.564070 -2.386655 -0.311112
v -1.077350 -2.651910 -0.214297
v -0.549228 -2.815252 -0.109247
v -0.517362 2.815252 -0.214298
v -1.014842 2.651909 -0.420361
v -1.473322 2.386655 -0.610269
v -1.875183 2.029683 -0.776726
v -2.204981 1.594712 -0.913333
v -2.450044 1.098457 -1.014841
v -2.600952 0.559988 -1.077350
v -2.651908 0.000000 -1.098456
v -2.600952 -0.559988 -1.077349
v -2.450044 -1.098457 -1.014841
v -2.204981 -1.594712 -0.913332
v -1.875183 -2.029684 -0.776725
v -1.473321 -2.386655 -0.610269
v -1.014841 -2.651910 -0.420360
v -0.517362 -2.815252 -0.214297
v -0.465614 2.815252 -0.311113
v -0.913333 2.651909 -0.610269
v -1.325954 2.386655 -0.885974
v -1.687620 2.029683 -1.127631
v -1.984430 1.594712 -1.325954
v -2.204982 1.098457 -1.473321
v -2.340795 0.559988 -1.564069
v -2.386654 -0.000000 -1.594711
v -2.340795 -0.559988 -1.564069
v -2.204982 -1.098457 -1.473321
v -1.984430 -1.594712 -1.325953
v -1.687620 -2.029684 -1.127631
v -1.325954 -2.386656 -0.885973
v -0.913333 -2.651910 -0.610268
v -0.465613 -2.815252 -0.311111
v -0.395972 2.815252 -0.395971
v -0.776726 2.651909 -0.776726
v -1.127631 2.386655 -1.127631
v -1.435202 2.029683 -1.435203
v -1.687619 1.594712 -1.687619
v -1.875183 1.098456 -1.875182
v -1.990682 0.559988 -1.990682
v -2.029682 -0.000000 -2.029682
v -1.990682 -0.559988 -1.990682
v -1.875183 -1.098457 -1.875182
v -1.687619 -1.594712 -1.687619
v -1.435202 -2.029684 -1.435202
v -1.127631 -2.386656 -1.127630
v -0.776726 -2.651910 -0.776725
v -0.395971 -2.815252 -0.395970
v -0.311113 2.815252 -0.465613
v -0.610270 2.651909 -0.913333
v -0.885974 2.386655 -1.325954
v -1.127631 2.029683 -1.687620
v -1.325953 1.594712 -1.984430
v -1.473322 1.098456 -2.204981
v -1.564069 0.559988 -2.340794
v -1.594711 -0.000000 -2.386654
v -1.564069 -0.559988 -2.340794
v -1.473322 -1.098457 -2.204981
v -1.325953 -1.594712 -1.984429
v -1.127631 -2.029684 -1.687619
v -0.885974 -2.386656 -1.325953
v -0.610269 -2.651910 -0.913332
v -0.311113 -2.815252 -0.465612
v -0.214298 2.815252 -0.517362
v -0.420361 2.651909 -1.014841
v -0.610269 2.386655 -1.473321
v -0.776726 2.029683 -1.875182
v -0.913332 1.594712 -2.204980
v -1.014841 1.098456 -2.450044
v -1.077349 0.559988 -2.600951
v -1.098456 -0.000000 -2.651907
v -1.077349 -0.559988 -2.600951
v -1.014841 -1.098457 -2.450043
v -0.913332 -1.594712 -2.204980
v -0.776726 -2.029684 -1.875182
v -0.610269 -2.386656 -1.473320
v -0.420361 -2.651910 -1.014840
v -0.214298 -2.815252 -0.517360
v -0.109248 2.815252 -0.549228
v -0.214298 2.651909 -1.077350
v -0.311112 2.386655 -1.564069
v -0.395971 2.029683 -1.990683
v -0.465612 1.594712 -2.340794
v -0.517362 1.098456 -2.600952
v -0.549227 0.559988 -2.761155
v -0.559987 -0.000000 -2.815250
v -0.549227 -0.559989 -2.761155
v -0.517362 -1.098457 -2.600952
v -0.465612 -1.594712 -2.340794
v -0.395971 -2.029684 -1.990682
v -0.311112 -2.386656 -1.564068
v -0.214298 -2.651910 -1.077348
v -0.109248 -2.815252 -0.549227
v 0.000000 -1.098457 -2.651908
v 0.000001 -1.594712 -2.386653
v 0.000000 -2.029684 -2.029682
v 0.000000 -2.651910 -1.098455
v 0.000000 -2.815252 -0.559987
vn -0.0000 -0.1939 -0.9810
vn 0.1804 -0.3805 -0.9070
vn -0.0000 -0.3805 -0.9248
vn -0.0000 0.8286 -0.5598
vn 0.0757 0.9217 -0.3804
vn 0.1092 0.8286 -0.5490
vn 0.1626 -0.5528 -0.8173
vn -0.0000 -0.5528 -0.8333
vn 0.1385 0.7041 -0.6965
vn -0.0000 0.7041 -0.7101
vn 0.1385 -0.7041 -0.6965
vn -0.0000 -0.7041 -0.7101
vn 0.1626 0.5528 -0.8173
vn -0.0000 0.5528 -0.8333
vn 0.1092 -0.8286 -0.5490
vn -0.0000 -0.8286 -0.5598
vn 0.1804 0.3805 -0.9070
vn -0.0000 0.3805 -0.9248
vn 0.0757 -0.9217 -0.3804
vn -0.0000 -0.9217 -0.3879
vn 0.1914 0.1939 -0.9622
vn -0.0000 0.1939 -0.9810
vn 0.0392 -0.9796 -0.1971
vn -0.0000 -0.9796 -0.2010
vn 0.1951 -0.0000 -0.9808
vn -0.0000 -0.0000 -1.0000
vn -0.0000 0.9796 -0.2010
vn -0.0000 1.0000 -0.0000
vn 0.0392 0.9796 -0.1971
vn -0.0000 -1.0000 -0.0000
vn 0.1914 -0.1939 -0.9622
vn -0.0000 0.9217 -0.3879
vn 0.0769 -0.9796 -0.1857
vn 0.3827 -0.0000 -0.9239
vn 0.3754 -0.1939 -0.9063
vn 0.1484 0.9217 -0.3584
vn 0.3539 -0.3805 -0.8544
vn 0.2142 0.8286 -0.5172
vn 0.3189 -0.5528 -0.7699
vn 0.2718 0.7041 -0.6561
vn 0.2718 -0.7041 -0.6561
vn 0.3189 0.5528 -0.7699
vn 0.2142 -0.8286 -0.5172
vn 0.3539 0.3805 -0.8544
vn 0.1484 -0.9217 -0.3584
vn 0.3754 0.1939 -0.9063
vn 0.0769 0.9796 -0.1857
vn 0.3110 -0.8286 -0.4654
vn 0.5138 0.3805 -0.7689
vn 0.2155 -0.9217 -0.3225
vn 0.5450 0.1939 -0.8157
vn 0.1117 -0.9796 -0.1671
vn 0.5556 -0.0000 -0.8315
vn 0.1117 0.9796 -0.1671
vn 0.5450 -0.1939 -0.8157
vn 0.2155 0.9217 -0.3225
vn 0.5138 -0.3805 -0.7689
vn 0.3110 0.8286 -0.4654
vn 0.4630 -0.5528 -0.6929
vn 0.3945 0.7041 -0.5905
vn 0.3945 -0.7041 -0.5905
vn 0.4630 0.5528 -0.6929
vn 0.2743 0.9217 -0.2743
vn 0.6539 -0.3805 -0.6539
vn 0.3958 0.8286 -0.3958
vn 0.5893 -0.5528 -0.5893
vn 0.5021 0.7041 -0.5021
vn 0.5021 -0.7041 -0.5021
vn 0.5893 0.5528 -0.5893
vn 0.3958 -0.8286 -0.3958
vn 0.6539 0.3805 -0.6539
vn 0.2743 -0.9217 -0.2743
vn 0.6937 0.1939 -0.6937
vn 0.1421 -0.9796 -0.1421
vn 0.7071 -0.0000 -0.7071
vn 0.1421 0.9796 -0.1421
vn 0.6937 -0.1939 -0.6937
vn 0.7689 0.3805 -0.5138
vn 0.4654 -0.8286 -0.3110
vn 0.3225 -0.9217 -0.2155
vn 0.8157 0.1939 -0.5450
vn 0.1671 -0.9796 -0.1117
vn 0.8315 -0.0000 -0.5556
vn 0.1671 0.9796 -0.1117
vn 0.8157 -0.1939 -0.5450
vn 0.3225 0.9217 -0.2155
vn 0.7689 -0.3805 -0.5138
vn 0.4654 0.8286 -0.3110
vn 0.6929 -0.5528 -0.4630
vn 0.5905 0.7041 -0.3945
vn 0.5905 -0.7041 -0.3945
vn 0.6929 0.5528 -0.4630
vn 0.8544 -0.3805 -0.3539
vn 0.5172 0.8286 -0.2142
vn 0.7699 -0.5528 -0.3189
vn 0.6561 0.7041 -0.2718
vn 0.6561 -0.7041 -0.2718
vn 0.7699 0.5528 -0.3189
vn 0.5172 -0.8286 -0.2142
vn 0.8544 0.3805 -0.3539
vn 0.3584 -0.9217 -0.1484
vn 0.9063 0.1939 -0.3754
vn 0.1857 -0.9796 -0.0769
vn 0.9239 -0.0000 -0.3827
vn 0.1857 0.9796 -0.0769
vn 0.9063 -0.1939 -0.3754
vn 0.3584 0.9217 -0.1484
vn 0.3804 -0.9217 -0.0757
vn 0.9070 0.3805 -0.1804
vn 0.9622 0.1939 -0.1914
vn 0.1971 -0.9796 -0.0392
vn 0.9808 -0.0000 -0.1951
vn 0.1971 0.9796 -0.0392
vn 0.9622 -0.1939 -0.1914
vn 0.3804 0.9217 -0.0757
vn 0.9070 -0.3805 -0.1804
vn 0.5490 0.8286 -0.1092
vn 0.8173 -0.5528 -0.1626
vn 0.6965 0.7041 -0.1385
vn 0.6965 -0.7041 -0.1385
vn 0.8173 0.5528 -0.1626
vn 0.5490 -0.8286 -0.1092
vn 0.5598 0.8286 -0.0000
vn 0.9248 -0.3805 -0.0000
vn 0.8333 -0.5528 -0.0000
vn 0.7101 0.7041 -0.0000
vn 0.7101 -0.7041 -0.0000
vn 0.8333 0.5528 -0.0000
vn 0.5598 -0.8286 -0.0000
vn 0.9248 0.3805 -0.0000
vn 0.3879 -0.9217 -0.0000
vn 0.9810 0.1939 -0.0000
vn 0.2010 -0.9796 -0.0000
vn 1.0000 -0.0000 -0.0000
vn 0.2010 0.9796 -0.0000
vn 0.9810 -0.1939 -0.0000
vn 0.3879 0.9217 -0.0000
vn 0.9070 0.3805 0.1804
vn 0.9622 0.1939 0.1914
vn 0.3804 -0.9217 0.0757
vn 0.1971 -0.9796 0.0392
vn 0.9808 -0.0000 0.1951
vn 0.1971 0.9796 0.0392
vn 0.9622 -0.1939 0.1914
vn 0.3804 0.9217 0.0757
vn 0.9070 -0.3805 0.1804
vn 0.5490 0.8286 0.1092
vn 0.8173 -0.5528 0.1626
vn 0.6965 0.7041 0.1385
vn 0.6965 -0.7041 0.1385
vn 0.8173 0.5528 0.1626
vn 0.5490 -0.8286 0.1092
vn 0.8544 -0.3805 0.3539
vn 0.7699 -0.5528 0.3189
vn 0.6561 0.7041 0.2718
vn 0.6561 -0.7041 0.2718
vn 0.7699 0.5528 0.3189
vn 0.5172 -0.8286 0.2142
vn 0.8544 0.3805 0.3539
vn 0.3584 -0.9217 0.1484
vn 0.9063 0.1939 0.3754
vn 0.1857 -0.9796 0.0769
vn 0.9239 -0.0000 0.3827
vn 0.1857 0.9796 0.0769
vn 0.9063 -0.1939 0.3754
vn 0.3584 0.9217 0.1484
vn 0.5172 0.8286 0.2142
vn 0.1671 -0.9796 0.1117
vn 0.8315 -0.0000 0.5556
vn 0.1671 0.9796 0.1117
vn 0.8157 -0.1939 0.5450
vn 0.3225 0.9217 0.2155
vn 0.7689 -0.3805 0.5138
vn 0.4654 0.8286 0.3110
vn 0.6929 -0.5528 0.4630
vn 0.5905 0.7041 0.3945
vn 0.5905 -0.7041 0.3945
vn 0.6929 0.5528 0.4630
vn 0.4654 -0.8286 0.3110
vn 0.7689 0.3805 0.5138
vn 0.3225 -0.9217 0.2155
vn 0.8157 0.1939 0.5450
vn 0.5021 -0.7041 0.5021
vn 0.5893 0.5528 0.5893
vn 0.3958 -0.8286 0.3958
vn 0.6539 0.3805 0.6539
vn 0.2743 -0.9217 0.2743
vn 0.6937 0.1939 0.6937
vn 0.1421 -0.9796 0.1421
vn 0.7071 -0.0000 0.7071
vn 0.1421 0.9796 0.1421
vn 0.6937 -0.1939 0.6937
vn 0.2743 0.9217 0.2743
vn 0.6539 -0.3805 0.6539
vn 0.3958 0.8286 0.3958
vn 0.5893 -0.5528 0.5893
vn 0.5021 0.7041 0.5021
vn 0.1117 0.9796 0.1671
vn 0.1117 -0.9796 0.1671
vn 0.5556 -0.0000 0.8315
vn 0.5450 -0.1939 0.8157
vn 0.2155 0.9217 0.3225
vn 0.5138 -0.3805 0.7689
vn 0.3110 0.8286 0.4654
vn 0.4630 -0.5528 0.6929
vn 0.3945 0.7041 0.5905
vn 0.3945 -0.7041 0.5905
vn 0.4630 0.5528 0.6929
vn 0.3110 -0.8286 0.4654
vn 0.5138 0.3805 0.7689
vn 0.2155 -0.9217 0.3225
vn 0.5450 0.1939 0.8157
vn 0.3189 0.5528 0.7699
vn 0.2718 -0.7041 0.6561
vn 0.2142 -0.8286 0.5172
vn 0.3539 0.3805 0.8544
vn 0.1484 -0.9217 0.3584
vn 0.3754 0.1939 0.9063
vn 0.0769 -0.9796 0.1857
vn 0.3827 -0.0000 0.9239
vn 0.0769 0.9796 0.1857
vn 0.3754 -0.1939 0.9063
vn 0.1484 0.9217 0.3584
vn 0.3539 -0.3805 0.8544
vn 0.2142 0.8286 0.5172
vn 0.3189 -0.5528 0.7699
vn 0.2718 0.7041 0.6561
vn 0.1914 -0.1939 0.9622
vn 0.0757 0.9217 0.3804
vn 0.1804 -0.3805 0.9070
vn 0.1092 0.8286 0.5490
vn 0.1626 -0.5528 0.8173
vn 0.1385 0.7041 0.6965
vn 0.1385 -0.7041 0.6965
vn 0.1626 0.5528 0.8173
vn 0.1092 -0.8286 0.5490
vn 0.1804 0.3805 0.9070
vn 0.0757 -0.9217 0.3804
vn 0.1914 0.1939 0.9622
vn 0.0392 -0.9796 0.1971
vn 0.1951 -0.0000 0.9808
vn 0.0392 0.9796 0.1971
vn -0.0000 -0.7041 0.7101
vn -0.0000 -0.8286 0.5598
vn -0.0000 0.3805 0.9248
vn -0.0000 -0.9217 0.3879
vn -0.0000 0.1939 0.9810
vn -0.0000 -0.9796 0.2010
vn -0.0000 -0.0000 1.0000
vn -0.0000 0.9796 0.2010
vn -0.0000 -0.1939 0.9810
vn -0.0000 0.9217 0.3879
vn -0.0000 -0.3805 0.9248
vn -0.0000 0.8286 0.5598
vn -0.0000 -0.5528 0.8333
vn -0.0000 0.7041 0.7101
vn -0.0000 0.5528 0.8333
vn -0.0757 0.9217 0.3804
vn -0.1804 -0.3805 0.9070
vn -0.1092 0.8286 0.5490
vn -0.1626 -0.5528 0.8173
vn -0.1385 0.7041 0.6965
vn -0.1385 -0.7041 0.6965
vn -0.1626 0.5528 0.8173
vn -0.1092 -0.8286 0.5490
vn -0.1804 0.3805 0.9070
vn -0.0757 -0.9217 0.3804
vn -0.1914 0.1939 0.9622
vn -0.0392 -0.9796 0.1971
vn -0.1951 -0.0000 0.9808
vn -0.0392 0.9796 0.1971
vn -0.1914 -0.1939 0.9622
vn -0.3539 0.3805 0.8544
vn -0.2142 -0.8286 0.5172
vn -0.1484 -0.9217 0.3584
vn -0.3754 0.1939 0.9063
vn -0.0769 -0.9796 0.1857
vn -0.3827 -0.0000 0.9239
vn -0.0769 0.9796 0.1857
vn -0.3754 -0.1939 0.9063
vn -0.1484 0.9217 0.3584
vn -0.3539 -0.3805 0.8544
vn -0.2142 0.8286 0.5172
vn -0.3189 -0.5528 0.7699
vn -0.2718 0.7041 0.6561
vn -0.2718 -0.7041 0.6561
vn -0.3189 0.5528 0.7699
vn -0.5138 -0.3805 0.7689
vn -0.3110 0.8286 0.4654
vn -0.4630 -0.5528 0.6929
vn -0.3945 0.7041 0.5905
vn -0.3945 -0.7041 0.5905
vn -0.4630 0.5528 0.6929
vn -0.3110 -0.8286 0.4654
vn -0.5138 0.3805 0.7689
vn -0.2155 -0.9217 0.3225
vn -0.5450 0.1939 0.8157
vn -0.1117 -0.9796 0.1671
vn -0.5556 -0.0000 0.8315
vn -0.1117 0.9796 0.1671
vn -0.5450 -0.1939 0.8157
vn -0.2155 0.9217 0.3225
vn -0.2743 -0.9217 0.2743
vn -0.6539 0.3805 0.6539
vn -0.6937 0.1939 0.6937
vn -0.1421 -0.9796 0.1421
vn -0.7071 -0.0000 0.7071
vn -0.1421 0.9796 0.1421
vn -0.6937 -0.1939 0.6937
vn -0.2743 0.9217 0.2743
vn -0.6539 -0.3805 0.6539
vn -0.3958 0.8286 0.3958
vn -0.5893 -0.5528 0.5893
vn -0.5021 0.7041 0.5021
vn -0.5021 -0.7041 0.5021
vn -0.5893 0.5528 0.5893
vn -0.3958 -0.8286 0.3958
vn -0.7689 -0.3805 0.5138
vn -0.6929 -0.5528 0.4630
vn -0.4654 0.8286 0.3110
vn -0.5905 0.7041 0.3945
vn -0.5905 -0.7041 0.3945
vn -0.6929 0.5528 0.4630
vn -0.4654 -0.8286 0.3110
vn -0.7689 0.3805 0.5138
vn -0.3225 -0.9217 0.2155
vn -0.8157 0.1939 0.5450
vn -0.1671 -0.9796 0.1117
vn -0.8315 -0.0000 0.5556
vn -0.1671 0.9796 0.1117
vn -0.8157 -0.1939 0.5450
vn -0.3225 0.9217 0.2155
vn -0.3584 -0.9217 0.1484
vn -0.1857 -0.9796 0.0769
vn -0.9239 -0.0000 0.3827
vn -0.1857 0.9796 0.0769
vn -0.9063 -0.1939 0.3754
vn -0.3584 0.9217 0.1484
vn -0.8544 -0.3805 0.3539
vn -0.5172 0.8286 0.2142
vn -0.7699 -0.5528 0.3189
vn -0.6561 0.7041 0.2718
vn -0.6561 -0.7041 0.2718
vn -0.7699 0.5528 0.3189
vn -0.5172 -0.8286 0.2142
vn -0.8544 0.3805 0.3539
vn -0.9063 0.1939 0.3754
vn -0.5490 0.8286 0.1092
vn -0.6965 0.7041 0.1385
vn -0.6965 -0.7041 0.1385
vn -0.8173 0.5528 0.1626
vn -0.5490 -0.8286 0.1092
vn -0.9070 0.3805 0.1804
vn -0.3804 -0.9217 0.0757
vn -0.9622 0.1939 0.1914
vn -0.1971 -0.9796 0.0392
vn -0.9808 -0.0000 0.1951
vn -0.1971 0.9796 0.0392
vn -0.9622 -0.1939 0.1914
vn -0.3804 0.9217 0.0757
vn -0.9070 -0.3805 0.1804
vn -0.8173 -0.5528 0.1626
vn -1.0000 -0.0000 -0.0000
vn -0.2010 0.9796 -0.0000
vn -0.2010 -0.9796 -0.0000
vn -0.9810 -0.1939 -0.0000
vn -0.3879 0.9217 -0.0000
vn -0.9248 -0.3805 -0.0000
vn -0.5598 0.8286 -0.0000
vn -0.8333 -0.5528 -0.0000
vn -0.7101 0.7041 -0.0000
vn -0.7101 -0.7041 -0.0000
vn -0.8333 0.5528 -0.0000
vn -0.5598 -0.8286 -0.0000
vn -0.9248 0.3805 -0.0000
vn -0.3879 -0.9217 -0.0000
vn -0.9810 0.1939 -0.0000
vn -0.6965 -0.7041 -0.1385
vn -0.6965 0.7041 -0.1385
vn -0.8173 0.5528 -0.1626
vn -0.5490 -0.8286 -0.1092
vn -0.9070 0.3805 -0.1804
vn -0.3804 -0.9217 -0.0757
vn -0.9622 0.1939 -0.1914
vn -0.1971 -0.9796 -0.0392
vn -0.9808 -0.0000 -0.1951
vn -0.1971 0.9796 -0.0392
vn -0.9622 -0.1939 -0.1914
vn -0.3804 0.9217 -0.0757
vn -0.9070 -0.3805 -0.1804
vn -0.5490 0.8286 -0.1092
vn -0.8173 -0.5528 -0.1626
vn -0.1857 0.9796 -0.0769
vn -0.1857 -0.9796 -0.0769
vn -0.9063 -0.1939 -0.3754
vn -0.3584 0.9217 -0.1484
vn -0.8544 -0.3805 -0.3539
vn -0.5172 0.8286 -0.2142
vn -0.7699 -0.5528 -0.3189
vn -0.6561 0.7041 -0.2718
vn -0.6561 -0.7041 -0.2718
vn -0.7699 0.5528 -0.3189
vn -0.5172 -0.8286 -0.2142
vn -0.8544 0.3805 -0.3539
vn -0.3584 -0.9217 -0.1484
vn -0.9063 0.1939 -0.3754
vn -0.9239 -0.0000 -0.3827
vn -0.5905 0.7041 -0.3945
vn -0.6929 0.5528 -0.4630
vn -0.4654 -0.8286 -0.3110
vn -0.7689 0.3805 -0.5138
vn -0.3225 -0.9217 -0.2155
vn -0.8157 0.1939 -0.5450
vn -0.1671 -0.9796 -0.1117
vn -0.8315 -0.0000 -0.5556
vn -0.1671 0.9796 -0.1117
vn -0.8157 -0.1939 -0.5450
vn -0.3225 0.9217 -0.2155
vn -0.7689 -0.3805 -0.5138
vn -0.4654 0.8286 -0.3110
vn -0.6929 -0.5528 -0.4630
vn -0.5905 -0.7041 -0.3945
vn -0.7071 -0.0000 -0.7071
vn -0.6937 -0.1939 -0.6937
vn -0.2743 0.9217 -0.2743
vn -0.6539 -0.3805 -0.6539
vn -0.3958 0.8286 -0.3958
vn -0.5893 -0.5528 -0.5893
vn -0.5021 0.7041 -0.5021
vn -0.5021 -0.7041 -0.5021
vn -0.5893 0.5528 -0.5893
vn -0.3958 -0.8286 -0.3958
vn -0.6539 0.3805 -0.6539
vn -0.2743 -0.9217 -0.2743
vn -0.6937 0.1939 -0.6937
vn -0.1421 -0.9796 -0.1421
vn -0.1421 0.9796 -0.1421
vn -0.3945 -0.7041 -0.5905
vn -0.3110 -0.8286 -0.4654
vn -0.5138 0.3805 -0.7689
vn -0.2155 -0.9217 -0.3225
vn -0.5450 0.1939 -0.8157
vn -0.1117 -0.9796 -0.1671
vn -0.5556 -0.0000 -0.8315
vn -0.1117 0.9796 -0.1671
vn -0.5450 -0.1939 -0.8157
vn -0.2155 0.9217 -0.3225
vn -0.5138 -0.3805 -0.7689
vn -0.3110 0.8286 -0.4654
vn -0.4630 -0.5528 -0.6929
vn -0.3945 0.7041 -0.5905
vn -0.4630 0.5528 -0.6929
vn -0.3539 -0.3805 -0.8544
vn -0.1484 0.9217 -0.3584
vn -0.2142 0.8286 -0.5172
vn -0.3189 -0.5528 -0.7699
vn -0.2718 0.7041 -0.6561
vn -0.2718 -0.7041 -0.6561
vn -0.3189 0.5528 -0.7699
vn -0.2142 -0.8286 -0.5172
vn -0.3539 0.3805 -0.8544
vn -0.1484 -0.9217 -0.3584
vn -0.3754 0.1939 -0.9063
vn -0.0769 -0.9796 -0.1857
vn -0.3827 -0.0000 -0.9239
vn -0.0769 0.9796 -0.1857
vn -0.3754 -0.1939 -0.9063
vn -0.0757 -0.9217 -0.3804
vn -0.1804 0.3805 -0.9070
vn -0.1914 0.1939 -0.9622
vn -0.0392 -0.9796 -0.1971
vn -0.1951 -0.0000 -0.9808
vn -0.0392 0.9796 -0.1971
vn -0.1914 -0.1939 -0.9622
vn -0.0757 0.9217 -0.3804
vn -0.1804 -0.3805 -0.9070
vn -0.1092 0.8286 -0.5490
vn -0.1626 -0.5528 -0.8173
vn -0.1385 0.7041 -0.6965
vn -0.1385 -0.7041 -0.6965
vn -0.1626 0.5528 -0.8173
vn -0.1092 -0.8286 -0.5490
vt 0.750000 0.437500
vt 0.718750 0.375000
vt 0.750000 0.375000
vt 0.750000 0.812500
vt 0.718750 0.875000
vt 0.718750 0.812500
vt 0.718750 0.312500
vt 0.750000 0.312500
vt 0.718750 0.750000
vt 0.750000 0.750000
vt 0.718750 0.250000
vt 0.750000 0.250000
vt 0.718750 0.687500
vt 0.750000 0.687500
vt 0.718750 0.187500
vt 0.750000 0.187500
vt 0.718750 0.625000
vt 0.750000 0.625000
vt 0.718750 0.125000
vt 0.750000 0.125000
vt 0.718750 0.562500
vt 0.750000 0.562500
vt 0.718750 0.062500
vt 0.750000 0.062500
vt 0.718750 0.500000
vt 0.750000 0.500000
vt 0.750000 0.937500
vt 0.734375 1.000000
vt 0.718750 0.937500
vt 0.734375 0.000000
vt 0.718750 0.437500
vt 0.750000 0.875000
vt 0.703125 0.000000
vt 0.687500 0.062500
vt 0.687500 0.500000
vt 0.687500 0.437500
vt 0.687500 0.875000
vt 0.687500 0.375000
vt 0.687500 0.812500
vt 0.687500 0.312500
vt 0.687500 0.750000
vt 0.687500 0.250000
vt 0.687500 0.687500
vt 0.687500 0.187500
vt 0.687500 0.625000
vt 0.687500 0.125000
vt 0.687500 0.562500
vt 0.703125 1.000000
vt 0.687500 0.937500
vt 0.656250 0.187500
vt 0.656250 0.625000
vt 0.656250 0.125000
vt 0.656250 0.562500
vt 0.656250 0.062500
vt 0.656250 0.500000
vt 0.671875 1.000000
vt 0.656250 0.937500
vt 0.671875 0.000000
vt 0.656250 0.437500
vt 0.656250 0.875000
vt 0.656250 0.375000
vt 0.656250 0.812500
vt 0.656250 0.312500
vt 0.656250 0.750000
vt 0.656250 0.250000
vt 0.656250 0.687500
vt 0.625000 0.875000
vt 0.625000 0.375000
vt 0.625000 0.812500
vt 0.625000 0.312500
vt 0.625000 0.750000
vt 0.625000 0.250000
vt 0.625000 0.687500
vt 0.625000 0.187500
vt 0.625000 0.625000
vt 0.625000 0.125000
vt 0.625000 0.562500
vt 0.625000 0.062500
vt 0.625000 0.500000
vt 0.640625 1.000000
vt 0.625000 0.937500
vt 0.640625 0.000000
vt 0.625000 0.437500
vt 0.593750 0.625000
vt 0.593750 0.187500
vt 0.593750 0.125000
vt 0.593750 0.562500
vt 0.593750 0.062500
vt 0.593750 0.500000
vt 0.609375 1.000000
vt 0.593750 0.937500
vt 0.609375 0.000000
vt 0.593750 0.437500
vt 0.593750 0.875000
vt 0.593750 0.375000
vt 0.593750 0.812500
vt 0.593750 0.312500
vt 0.593750 0.750000
vt 0.593750 0.250000
vt 0.593750 0.687500
vt 0.562500 0.375000
vt 0.562500 0.812500
vt 0.562500 0.312500
vt 0.562500 0.750000
vt 0.562500 0.250000
vt 0.562500 0.687500
vt 0.562500 0.187500
vt 0.562500 0.625000
vt 0.562500 0.125000
vt 0.562500 0.562500
vt 0.562500 0.062500
vt 0.562500 0.500000
vt 0.578125 1.000000
vt 0.562500 0.937500
vt 0.578125 0.000000
vt 0.562500 0.437500
vt 0.562500 0.875000
vt 0.531250 0.125000
vt 0.531250 0.625000
vt 0.531250 0.562500
vt 0.531250 0.062500
vt 0.531250 0.500000
vt 0.546875 1.000000
vt 0.531250 0.937500
vt 0.546875 0.000000
vt 0.531250 0.437500
vt 0.531250 0.875000
vt 0.531250 0.375000
vt 0.531250 0.812500
vt 0.531250 0.312500
vt 0.531250 0.750000
vt 0.531250 0.250000
vt 0.531250 0.687500
vt 0.531250 0.187500
vt 0.500000 0.812500
vt 0.500000 0.375000
vt 0.500000 0.312500
vt 0.500000 0.750000
vt 0.500000 0.250000
vt 0.500000 0.687500
vt 0.500000 0.187500
vt 0.500000 0.625000
vt 0.500000 0.125000
vt 0.500000 0.562500
vt 0.500000 0.062500
vt 0.500000 0.500000
vt 0.515625 1.000000
vt 0.500000 0.937500
vt 0.515625 0.000000
vt 0.500000 0.437500
vt 0.500000 0.875000
vt 0.468750 0.625000
vt 0.468750 0.562500
vt 0.468750 0.125000
vt 0.468750 0.062500
vt 0.468750 0.500000
vt 0.484374 1.000000
vt 0.468750 0.937500
vt 0.484375 0.000000
vt 0.468750 0.437500
vt 0.468750 0.875000
vt 0.468750 0.375000
vt 0.468750 0.812500
vt 0.468750 0.312500
vt 0.468750 0.750000
vt 0.468750 0.250000
vt 0.468750 0.687500
vt 0.468750 0.187500
vt 0.437500 0.375000
vt 0.437500 0.312500
vt 0.437500 0.750000
vt 0.437500 0.250000
vt 0.437500 0.687500
vt 0.437500 0.187500
vt 0.437500 0.625000
vt 0.437500 0.125000
vt 0.437500 0.562500
vt 0.437500 0.062500
vt 0.437500 0.500000
vt 0.453124 1.000000
vt 0.437500 0.937500
vt 0.453125 0.000000
vt 0.437500 0.437500
vt 0.437500 0.875000
vt 0.437500 0.812500
vt 0.406250 0.062500
vt 0.406250 0.500000
vt 0.421874 1.000000
vt 0.406250 0.937500
vt 0.421875 0.000000
vt 0.406250 0.437500
vt 0.406250 0.875000
vt 0.406250 0.375000
vt 0.406250 0.812500
vt 0.406250 0.312500
vt 0.406250 0.750000
vt 0.406250 0.250000
vt 0.406250 0.687500
vt 0.406250 0.187500
vt 0.406250 0.625000
vt 0.406250 0.125000
vt 0.406250 0.562500
vt 0.375000 0.250000
vt 0.375000 0.687500
vt 0.375000 0.187500
vt 0.375000 0.625000
vt 0.375000 0.125000
vt 0.375000 0.562500
vt 0.375000 0.062500
vt 0.375000 0.500000
vt 0.390625 1.000000
vt 0.375000 0.937500
vt 0.390625 0.000000
vt 0.375000 0.437500
vt 0.375000 0.875000
vt 0.375000 0.375000
vt 0.375000 0.812500
vt 0.375000 0.312500
vt 0.375000 0.750000
vt 0.359375 1.000000
vt 0.343750 0.937500
vt 0.359375 0.000000
vt 0.343750 0.062500
vt 0.343750 0.500000
vt 0.343750 0.437500
vt 0.343750 0.875000
vt 0.343750 0.375000
vt 0.343750 0.812500
vt 0.343750 0.312500
vt 0.343750 0.750000
vt 0.343750 0.250000
vt 0.343750 0.687500
vt 0.343750 0.187500
vt 0.343750 0.625000
vt 0.343750 0.125000
vt 0.343750 0.562500
vt 0.312500 0.687500
vt 0.312500 0.250000
vt 0.312500 0.187500
vt 0.312500 0.625000
vt 0.312500 0.125000
vt 0.312500 0.562500
vt 0.312500 0.062500
vt 0.312500 0.500000
vt 0.328125 1.000000
vt 0.312500 0.937500
vt 0.328125 0.000000
vt 0.312500 0.437500
vt 0.312500 0.875000
vt 0.312500 0.375000
vt 0.312500 0.812500
vt 0.312500 0.312500
vt 0.312500 0.750000
vt 0.281250 0.437500
vt 0.281250 0.875000
vt 0.281250 0.375000
vt 0.281250 0.812500
vt 0.281250 0.312500
vt 0.281250 0.750000
vt 0.281250 0.250000
vt 0.281250 0.687500
vt 0.281250 0.187500
vt 0.281250 0.625000
vt 0.281250 0.125000
vt 0.281250 0.562500
vt 0.281250 0.062500
vt 0.281250 0.500000
vt 0.296875 1.000000
vt 0.281250 0.937500
vt 0.296875 0.000000
vt 0.250000 0.250000
vt 0.250000 0.187500
vt 0.250000 0.625000
vt 0.250000 0.125000
vt 0.250000 0.562500
vt 0.250000 0.062500
vt 0.250000 0.500000
vt 0.265625 1.000000
vt 0.250000 0.937500
vt 0.265625 0.000000
vt 0.250000 0.437500
vt 0.250000 0.875000
vt 0.250000 0.375000
vt 0.250000 0.812500
vt 0.250000 0.312500
vt 0.250000 0.750000
vt 0.250000 0.687500
vt 0.218750 0.875000
vt 0.218750 0.375000
vt 0.218750 0.812500
vt 0.218750 0.312500
vt 0.218750 0.750000
vt 0.218750 0.250000
vt 0.218750 0.687500
vt 0.218750 0.187500
vt 0.218750 0.625000
vt 0.218750 0.125000
vt 0.218750 0.562500
vt 0.218750 0.062500
vt 0.218750 0.500000
vt 0.234375 1.000000
vt 0.218750 0.937500
vt 0.234375 0.000000
vt 0.218750 0.437500
vt 0.187500 0.625000
vt 0.187500 0.187500
vt 0.187500 0.125000
vt 0.187500 0.562500
vt 0.187500 0.062500
vt 0.187500 0.500000
vt 0.203125 1.000000
vt 0.187500 0.937500
vt 0.203125 0.000000
vt 0.187500 0.437500
vt 0.187500 0.875000
vt 0.187500 0.375000
vt 0.187500 0.812500
vt 0.187500 0.312500
vt 0.187500 0.750000
vt 0.187500 0.250000
vt 0.187500 0.687500
vt 0.156250 0.375000
vt 0.156250 0.812500
vt 0.156250 0.312500
vt 0.156250 0.750000
vt 0.156250 0.250000
vt 0.156250 0.687500
vt 0.156250 0.187500
vt 0.156250 0.625000
vt 0.156250 0.125000
vt 0.156250 0.562500
vt 0.156250 0.062500
vt 0.156250 0.500000
vt 0.171875 1.000000
vt 0.156250 0.937500
vt 0.171875 0.000000
vt 0.156250 0.437500
vt 0.156250 0.875000
vt 0.125000 0.125000
vt 0.125000 0.625000
vt 0.125000 0.562500
vt 0.125000 0.062500
vt 0.125000 0.500000
vt 0.140625 1.000000
vt 0.125000 0.937500
vt 0.140625 0.000000
vt 0.125000 0.437500
vt 0.125000 0.875000
vt 0.125000 0.375000
vt 0.125000 0.812500
vt 0.125000 0.312500
vt 0.125000 0.750000
vt 0.125000 0.250000
vt 0.125000 0.687500
vt 0.125000 0.187500
vt 0.093750 0.375000
vt 0.093750 0.312500
vt 0.093750 0.812500
vt 0.093750 0.750000
vt 0.093750 0.250000
vt 0.093750 0.687500
vt 0.093750 0.187500
vt 0.093750 0.625000
vt 0.093750 0.125000
vt 0.093750 0.562500
vt 0.093750 0.062500
vt 0.093750 0.500000
vt 0.109375 1.000000
vt 0.093750 0.937500
vt 0.109375 0.000000
vt 0.093750 0.437500
vt 0.093750 0.875000
vt 0.062500 0.125000
vt 0.062500 0.062500
vt 0.062500 0.500000
vt 0.078125 1.000000
vt 0.062500 0.937500
vt 0.078125 0.000000
vt 0.062500 0.437500
vt 0.062500 0.875000
vt 0.062500 0.375000
vt 0.062500 0.812500
vt 0.062500 0.312500
vt 0.062500 0.750000
vt 0.062500 0.250000
vt 0.062500 0.687500
vt 0.062500 0.187500
vt 0.062500 0.625000
vt 0.062500 0.562500
vt 0.031250 0.812500
vt 0.031250 0.750000
vt 0.031250 0.250000
vt 0.031250 0.687500
vt 0.031250 0.187500
vt 0.031250 0.625000
vt 0.031250 0.125000
vt 0.031250 0.562500
vt 0.031250 0.062500
vt 0.031250 0.500000
vt 0.046875 1.000000
vt 0.031250 0.937500
vt 0.046875 0.000000
vt 0.031250 0.437500
vt 0.031250 0.875000
vt 0.031250 0.375000
vt 0.031250 0.312500
vt 0.000000 0.500000
vt 0.015625 1.000000
vt 0.000000 0.937500
vt 0.015625 0.000000
vt 0.000000 0.062500
vt 0.000000 0.437500
vt 0.000000 0.875000
vt 0.000000 0.375000
vt 0.000000 0.812500
vt 0.000000 0.312500
vt 0.000000 0.750000
vt 0.000000 0.250000
vt 0.000000 0.687500
vt 0.000000 0.187500
vt 0.000000 0.625000
vt 0.000000 0.125000
vt 0.000000 0.562500
vt 1.000000 0.312500
vt 0.968750 0.250000
vt 1.000000 0.250000
vt 1.000000 0.687500
vt 0.968750 0.750000
vt 0.968750 0.687500
vt 0.968750 0.187500
vt 1.000000 0.187500
vt 0.968750 0.625000
vt 1.000000 0.625000
vt 1.000000 0.125000
vt 0.968750 0.125000
vt 1.000000 0.562500
vt 0.968750 0.562500
vt 0.968750 0.062500
vt 1.000000 0.062500
vt 0.968750 0.500000
vt 1.000000 0.500000
vt 1.000000 0.937500
vt 0.984375 1.000000
vt 0.968750 0.937500
vt 0.984375 0.000000
vt 1.000000 0.437500
vt 0.968750 0.437500
vt 1.000000 0.875000
vt 0.968750 0.875000
vt 0.968750 0.375000
vt 1.000000 0.375000
vt 0.968750 0.812500
vt 1.000000 0.812500
vt 0.968750 0.312500
vt 1.000000 0.750000
vt 0.953125 1.000000
vt 0.937500 0.937500
vt 0.953125 0.000000
vt 0.937500 0.062500
vt 0.937500 0.437500
vt 0.937500 0.875000
vt 0.937500 0.375000
vt 0.937500 0.812500
vt 0.937500 0.312500
vt 0.937500 0.750000
vt 0.937500 0.250000
vt 0.937500 0.687500
vt 0.937500 0.187500
vt 0.937500 0.625000
vt 0.937500 0.125000
vt 0.937500 0.562500
vt 0.937500 0.500000
vt 0.906250 0.750000
vt 0.906250 0.687500
vt 0.906250 0.187500
vt 0.906250 0.625000
vt 0.906250 0.125000
vt 0.906250 0.562500
vt 0.906250 0.062500
vt 0.906250 0.500000
vt 0.921875 1.000000
vt 0.906250 0.937500
vt 0.921875 0.000000
vt 0.906250 0.437500
vt 0.906250 0.875000
vt 0.906250 0.375000
vt 0.906250 0.812500
vt 0.906250 0.312500
vt 0.906250 0.250000
vt 0.875000 0.500000
vt 0.875000 0.437500
vt 0.875000 0.875000
vt 0.875000 0.375000
vt 0.875000 0.812500
vt 0.875000 0.312500
vt 0.875000 0.750000
vt 0.875000 0.250000
vt 0.875000 0.687500
vt 0.875000 0.187500
vt 0.875000 0.625000
vt 0.875000 0.125000
vt 0.875000 0.562500
vt 0.875000 0.062500
vt 0.890625 1.000000
vt 0.875000 0.937500
vt 0.890625 0.000000
vt 0.843750 0.250000
vt 0.843750 0.187500
vt 0.843750 0.625000
vt 0.843750 0.125000
vt 0.843750 0.562500
vt 0.843750 0.062500
vt 0.843750 0.500000
vt 0.859375 1.000000
vt 0.843750 0.937500
vt 0.859375 0.000000
vt 0.843750 0.437500
vt 0.843750 0.875000
vt 0.843750 0.375000
vt 0.843750 0.812500
vt 0.843750 0.312500
vt 0.843750 0.750000
vt 0.843750 0.687500
vt 0.812500 0.375000
vt 0.812500 0.875000
vt 0.812500 0.812500
vt 0.812500 0.312500
vt 0.812500 0.750000
vt 0.812500 0.250000
vt 0.812500 0.687500
vt 0.812500 0.187500
vt 0.812500 0.625000
vt 0.812500 0.125000
vt 0.812500 0.562500
vt 0.812500 0.062500
vt 0.812500 0.500000
vt 0.828125 1.000000
vt 0.812500 0.937500
vt 0.828125 0.000000
vt 0.812500 0.437500
vt 0.781250 0.125000
vt 0.781250 0.625000
vt 0.781250 0.562500
vt 0.781250 0.062500
vt 0.781250 0.500000
vt 0.796875 1.000000
vt 0.781250 0.937500
vt 0.796875 0.000000
vt 0.781250 0.437500
vt 0.781250 0.875000
vt 0.781250 0.375000
vt 0.781250 0.812500
vt 0.781250 0.312500
vt 0.781250 0.750000
vt 0.781250 0.250000
vt 0.781250 0.687500
vt 0.781250 0.187500
vt 0.765625 1.000000
vt 0.765625 0.000000
s 1
g off
g Sphere.001_black
f 9/1/1 20/2/2 478/3/3
f 3/4/4 12/5/5 13/6/6
f 478/3/3 21/7/7 479/8/8
f 3/4/4 14/9/9 4/10/10
f 479/8/8 22/11/11 480/12/12
f 4/10/10 15/13/13 5/14/14
f 480/12/12 23/15/15 10/16/16
f 5/14/14 16/17/17 6/18/18
f 10/16/16 24/19/19 481/20/20
f 6/18/18 17/21/21 7/22/22
f 481/20/20 25/23/23 482/24/24
f 7/22/22 18/25/25 8/26/26
f 1/27/27 297/28/28 11/29/29
f 206/30/30 482/24/24 25/23/23
f 8/26/26 19/31/31 9/1/1
f 1/27/27 12/5/5 2/32/32
f 206/33/30 25/23/23 40/34/33
f 19/31/31 33/35/34 34/36/35
f 11/29/29 27/37/36 12/5/5
f 20/2/2 34/36/35 35/38/37
f 12/5/5 28/39/38 13/6/6
f 20/2/2 36/40/39 21/7/7
f 13/6/6 29/41/40 14/9/9
f 22/11/11 36/40/39 37/42/41
f 14/9/9 30/43/42 15/13/13
f 22/11/11 38/44/43 23/15/15
f 15/13/13 31/45/44 16/17/17
f 23/15/15 39/46/45 24/19/19
f 16/17/17 32/47/46 17/21/21
f 24/19/19 40/34/33 25/23/23
f 17/21/21 33/35/34 18/25/25
f 11/29/29 297/48/28 26/49/47
f 37/42/41 53/50/48 38/44/43
f 30/43/42 46/51/49 31/45/44
f 38/44/43 54/52/50 39/46/45
f 32/47/46 46/51/49 47/53/51
f 39/46/45 55/54/52 40/34/33
f 32/47/46 48/55/53 33/35/34
f 26/49/47 297/56/28 41/57/54
f 206/58/30 40/34/33 55/54/52
f 33/35/34 49/59/55 34/36/35
f 26/49/47 42/60/56 27/37/36
f 34/36/35 50/61/57 35/38/37
f 27/37/36 43/62/58 28/39/38
f 36/40/39 50/61/57 51/63/59
f 28/39/38 44/64/60 29/41/40
f 37/42/41 51/63/59 52/65/61
f 29/41/40 45/66/62 30/43/42
f 41/57/54 57/67/63 42/60/56
f 49/59/55 65/68/64 50/61/57
f 42/60/56 58/69/65 43/62/58
f 51/63/59 65/68/64 66/70/66
f 43/62/58 59/71/67 44/64/60
f 51/63/59 67/72/68 52/65/61
f 44/64/60 60/73/69 45/66/62
f 52/65/61 68/74/70 53/50/48
f 45/66/62 61/75/71 46/51/49
f 53/50/48 69/76/72 54/52/50
f 46/51/49 62/77/73 47/53/51
f 54/52/50 70/78/74 55/54/52
f 48/55/53 62/77/73 63/79/75
f 41/57/54 297/80/28 56/81/76
f 206/82/30 55/54/52 70/78/74
f 48/55/53 64/83/77 49/59/55
f 60/73/69 76/84/78 61/75/71
f 69/76/72 83/85/79 84/86/80
f 61/75/71 77/87/81 62/77/73
f 69/76/72 85/88/82 70/78/74
f 63/79/75 77/87/81 78/89/83
f 56/81/76 297/90/28 71/91/84
f 206/92/30 70/78/74 85/88/82
f 63/79/75 79/93/85 64/83/77
f 56/81/76 72/94/86 57/67/63
f 64/83/77 80/95/87 65/68/64
f 57/67/63 73/96/88 58/69/65
f 66/70/66 80/95/87 81/97/89
f 58/69/65 74/98/90 59/71/67
f 66/70/66 82/99/91 67/72/68
f 60/73/69 74/98/90 75/100/92
f 68/74/70 82/99/91 83/85/79
f 79/93/85 95/101/93 80/95/87
f 72/94/86 88/102/94 73/96/88
f 81/97/89 95/101/93 96/103/95
f 73/96/88 89/104/96 74/98/90
f 82/99/91 96/103/95 97/105/97
f 75/100/92 89/104/96 90/106/98
f 82/99/91 98/107/99 83/85/79
f 75/100/92 91/108/100 76/84/78
f 84/86/80 98/107/99 99/109/101
f 77/87/81 91/108/100 92/110/102
f 84/86/80 100/111/103 85/88/82
f 77/87/81 93/112/104 78/89/83
f 71/91/84 297/113/28 86/114/105
f 206/115/30 85/88/82 100/111/103
f 78/89/83 94/116/106 79/93/85
f 71/91/84 87/117/107 72/94/86
f 98/107/99 114/118/108 99/109/101
f 92/110/102 106/119/109 107/120/110
f 100/111/103 114/118/108 115/121/111
f 92/110/102 108/122/112 93/112/104
f 86/114/105 297/123/28 101/124/113
f 206/125/30 100/111/103 115/121/111
f 93/112/104 109/126/114 94/116/106
f 86/114/105 102/127/115 87/117/107
f 94/116/106 110/128/116 95/101/93
f 87/117/107 103/129/117 88/102/94
f 96/103/95 110/128/116 111/130/118
f 89/104/96 103/129/117 104/131/119
f 97/105/97 111/130/118 112/132/120
f 89/104/96 105/133/121 90/106/98
f 97/105/97 113/134/122 98/107/99
f 90/106/98 106/119/109 91/108/100
f 102/127/115 118/135/123 103/129/117
f 111/130/118 125/136/124 126/137/125
f 103/129/117 119/138/126 104/131/119
f 111/130/118 127/139/127 112/132/120
f 104/131/119 120/140/128 105/133/121
f 113/134/122 127/139/127 128/141/129
f 105/133/121 121/142/130 106/119/109
f 114/118/108 128/141/129 129/143/131
f 107/120/110 121/142/130 122/144/132
f 115/121/111 129/143/131 130/145/133
f 107/120/110 123/146/134 108/122/112
f 101/124/113 297/147/28 116/148/135
f 206/149/30 115/121/111 130/145/133
f 109/126/114 123/146/134 124/150/136
f 101/124/113 117/151/137 102/127/115
f 109/126/114 125/136/124 110/128/116
f 122/144/132 136/152/138 137/153/139
f 130/145/133 144/154/140 145/155/141
f 122/144/132 138/156/142 123/146/134
f 116/148/135 297/157/28 131/158/143
f 206/159/30 130/145/133 145/155/141
f 123/146/134 139/160/144 124/150/136
f 117/151/137 131/158/143 132/161/145
f 124/150/136 140/162/146 125/136/124
f 117/151/137 133/163/147 118/135/123
f 126/137/125 140/162/146 141/164/148
f 118/135/123 134/165/149 119/138/126
f 126/137/125 142/166/150 127/139/127
f 120/140/128 134/165/149 135/167/151
f 128/141/129 142/166/150 143/168/152
f 120/140/128 136/152/138 121/142/130
f 128/141/129 144/154/140 129/143/131
f 141/164/148 155/169/153 156/170/154
f 133/163/147 149/171/155 134/165/149
f 141/164/148 157/172/156 142/166/150
f 134/165/149 150/173/157 135/167/151
f 142/166/150 158/174/158 143/168/152
f 135/167/151 151/175/159 136/152/138
f 144/154/140 158/174/158 159/176/160
f 137/153/139 151/175/159 152/177/161
f 144/154/140 160/178/162 145/155/141
f 137/153/139 153/179/163 138/156/142
f 131/158/143 297/180/28 146/181/164
f 206/182/30 145/155/141 160/178/162
f 138/156/142 154/183/165 139/160/144
f 131/158/143 147/184/166 132/161/145
f 139/160/144 155/169/153 140/162/146
f 133/163/147 147/184/166 148/185/167
f 159/176/160 175/186/168 160/178/162
f 152/177/161 168/187/169 153/179/163
f 146/181/164 297/188/28 161/189/170
f 206/190/30 160/178/162 175/186/168
f 154/183/165 168/187/169 169/191/171
f 146/181/164 162/192/172 147/184/166
f 154/183/165 170/193/173 155/169/153
f 147/184/166 163/194/174 148/185/167
f 156/170/154 170/193/173 171/195/175
f 148/185/167 164/196/176 149/171/155
f 156/170/154 172/197/177 157/172/156
f 150/173/157 164/196/176 165/198/178
f 158/174/158 172/197/177 173/199/179
f 150/173/157 166/200/180 151/175/159
f 158/174/158 174/201/181 159/176/160
f 152/177/161 166/200/180 167/202/182
f 171/195/175 187/203/183 172/197/177
f 164/196/176 180/204/184 165/198/178
f 173/199/179 187/203/183 188/205/185
f 165/198/178 181/206/186 166/200/180
f 173/199/179 189/207/187 174/201/181
f 167/202/182 181/206/186 182/208/188
f 175/186/168 189/207/187 190/209/189
f 167/202/182 183/210/190 168/187/169
f 161/189/170 297/211/28 176/212/191
f 206/213/30 175/186/168 190/209/189
f 168/187/169 184/214/192 169/191/171
f 161/189/170 177/215/193 162/192/172
f 169/191/171 185/216/194 170/193/173
f 162/192/172 178/217/195 163/194/174
f 170/193/173 186/218/196 171/195/175
f 163/194/174 179/219/197 164/196/176
f 176/212/191 297/220/28 191/221/198
f 206/222/30 190/209/189 205/223/199
f 184/214/192 198/224/200 199/225/201
f 176/212/191 192/226/202 177/215/193
f 184/214/192 200/227/203 185/216/194
f 177/215/193 193/228/204 178/217/195
f 186/218/196 200/227/203 201/229/205
f 179/219/197 193/228/204 194/230/206
f 186/218/196 202/231/207 187/203/183
f 180/204/184 194/230/206 195/232/208
f 188/205/185 202/231/207 203/233/209
f 180/204/184 196/234/210 181/206/186
f 188/205/185 204/235/211 189/207/187
f 182/208/188 196/234/210 197/236/212
f 190/209/189 204/235/211 205/223/199
f 182/208/188 198/224/200 183/210/190
f 194/230/206 211/237/213 195/232/208
f 203/233/209 218/238/214 219/239/215
f 195/232/208 212/240/216 196/234/210
f 203/233/209 220/241/217 204/235/211
f 197/236/212 212/240/216 213/242/218
f 204/235/211 221/243/219 205/223/199
f 197/236/212 214/244/220 198/224/200
f 191/221/198 297/245/28 207/246/221
f 206/247/30 205/223/199 221/243/219
f 198/224/200 215/248/222 199/225/201
f 191/221/198 208/249/223 192/226/202
f 199/225/201 216/250/224 200/227/203
f 193/228/204 208/249/223 209/251/225
f 201/229/205 216/250/224 217/252/226
f 193/228/204 210/253/227 194/230/206
f 201/229/205 218/238/214 202/231/207
f 214/244/220 230/254/228 215/248/222
f 207/246/221 223/255/229 208/249/223
f 215/248/222 231/256/230 216/250/224
f 208/249/223 224/257/231 209/251/225
f 217/252/226 231/256/230 232/258/232
f 209/251/225 225/259/233 210/253/227
f 217/252/226 233/260/234 218/238/214
f 210/253/227 226/261/235 211/237/213
f 218/238/214 234/262/236 219/239/215
f 211/237/213 227/263/237 212/240/216
f 219/239/215 235/264/238 220/241/217
f 213/242/218 227/263/237 228/265/239
f 221/243/219 235/264/238 236/266/240
f 213/242/218 229/267/241 214/244/220
f 207/246/221 297/268/28 222/269/242
f 206/270/30 221/243/219 236/266/240
f 234/262/236 248/271/243 249/272/244
f 226/261/235 242/273/245 227/263/237
f 234/262/236 250/274/246 235/264/238
f 228/265/239 242/273/245 243/275/247
f 236/266/240 250/274/246 251/276/248
f 228/265/239 244/277/249 229/267/241
f 222/269/242 297/278/28 237/279/250
f 206/280/30 236/266/240 251/276/248
f 229/267/241 245/281/251 230/254/228
f 222/269/242 238/282/252 223/255/229
f 230/254/228 246/283/253 231/256/230
f 224/257/231 238/282/252 239/284/254
f 232/258/232 246/283/253 247/285/255
f 225/259/233 239/284/254 240/286/256
f 232/258/232 248/271/243 233/260/234
f 225/259/233 241/287/257 226/261/235
f 237/279/250 253/288/258 238/282/252
f 245/281/251 261/289/259 246/283/253
f 238/282/252 254/290/260 239/284/254
f 247/285/255 261/289/259 262/291/261
f 240/286/256 254/290/260 255/292/262
f 247/285/255 263/293/263 248/271/243
f 241/287/257 255/292/262 256/294/264
f 248/271/243 264/295/265 249/272/244
f 241/287/257 257/296/266 242/273/245
f 249/272/244 265/297/267 250/274/246
f 243/275/247 257/296/266 258/298/268
f 250/274/246 266/299/269 251/276/248
f 243/275/247 259/300/270 244/277/249
f 237/279/250 297/301/28 252/302/271
f 206/303/30 251/276/248 266/299/269
f 244/277/249 260/304/272 245/281/251
f 256/294/264 272/305/273 257/296/266
f 265/297/267 279/306/274 280/307/275
f 258/298/268 272/305/273 273/308/276
f 266/299/269 280/307/275 281/309/277
f 258/298/268 274/310/278 259/300/270
f 252/302/271 297/311/28 267/312/279
f 206/313/30 266/299/269 281/309/277
f 260/304/272 274/310/278 275/314/280
f 252/302/271 268/315/281 253/288/258
f 260/304/272 276/316/282 261/289/259
f 253/288/258 269/317/283 254/290/260
f 262/291/261 276/316/282 277/318/284
f 255/292/262 269/317/283 270/319/285
f 262/291/261 278/320/286 263/293/263
f 256/294/264 270/319/285 271/321/287
f 263/293/263 279/306/274 264/295/265
f 275/314/280 291/322/288 276/316/282
f 268/315/281 284/323/289 269/317/283
f 277/318/284 291/322/288 292/324/290
f 269/317/283 285/325/291 270/319/285
f 277/318/284 293/326/292 278/320/286
f 271/321/287 285/325/291 286/327/293
f 279/306/274 293/326/292 294/328/294
f 271/321/287 287/329/295 272/305/273
f 279/306/274 295/330/296 280/307/275
f 273/308/276 287/329/295 288/331/297
f 281/309/277 295/330/296 296/332/298
f 273/308/276 289/333/299 274/310/278
f 267/312/279 297/334/28 282/335/300
f 206/336/30 281/309/277 296/332/298
f 274/310/278 290/337/301 275/314/280
f 267/312/279 283/338/302 268/315/281
f 294/328/294 311/339/303 295/330/296
f 288/331/297 303/340/304 304/341/305
f 295/330/296 312/342/306 296/332/298
f 289/333/299 304/341/305 305/343/307
f 282/335/300 297/344/28 298/345/308
f 206/346/30 296/332/298 312/342/306
f 289/333/299 306/347/309 290/337/301
f 282/335/300 299/348/310 283/338/302
f 290/337/301 307/349/311 291/322/288
f 283/338/302 300/350/312 284/323/289
f 292/324/290 307/349/311 308/351/313
f 285/325/291 300/350/312 301/352/314
f 292/324/290 309/353/315 293/326/292
f 286/327/293 301/352/314 302/354/316
f 293/326/292 310/355/317 294/328/294
f 286/327/293 303/340/304 287/329/295
f 308/351/313 322/356/318 323/357/319
f 301/352/314 315/358/320 316/359/321
f 308/351/313 324/360/322 309/353/315
f 302/354/316 316/359/321 317/361/323
f 309/353/315 325/362/324 310/355/317
f 302/354/316 318/363/325 303/340/304
f 311/339/303 325/362/324 326/364/326
f 304/341/305 318/363/325 319/365/327
f 311/339/303 327/366/328 312/342/306
f 304/341/305 320/367/329 305/343/307
f 298/345/308 297/368/28 313/369/330
f 206/370/30 312/342/306 327/366/328
f 305/343/307 321/371/331 306/347/309
f 298/345/308 314/372/332 299/348/310
f 306/347/309 322/356/318 307/349/311
f 299/348/310 315/358/320 300/350/312
f 327/366/328 341/373/333 342/374/334
f 319/365/327 335/375/335 320/367/329
f 313/369/330 297/376/28 328/377/336
f 206/378/30 327/366/328 342/374/334
f 320/367/329 336/379/337 321/371/331
f 313/369/330 329/380/338 314/372/332
f 321/371/331 337/381/339 322/356/318
f 314/372/332 330/382/340 315/358/320
f 323/357/319 337/381/339 338/383/341
f 316/359/321 330/382/340 331/384/342
f 324/360/322 338/383/341 339/385/343
f 317/361/323 331/384/342 332/386/344
f 324/360/322 340/387/345 325/362/324
f 317/361/323 333/388/346 318/363/325
f 326/364/326 340/387/345 341/373/333
f 319/365/327 333/388/346 334/389/347
f 331/384/342 345/390/348 346/391/349
f 338/383/341 354/392/350 339/385/343
f 332/386/344 346/391/349 347/393/351
f 339/385/343 355/394/352 340/387/345
f 332/386/344 348/395/353 333/388/346
f 341/373/333 355/394/352 356/396/354
f 334/389/347 348/395/353 349/397/355
f 341/373/333 357/398/356 342/374/334
f 334/389/347 350/399/357 335/375/335
f 328/377/336 297/400/28 343/401/358
f 206/402/30 342/374/334 357/398/356
f 335/375/335 351/403/359 336/379/337
f 329/380/338 343/401/358 344/404/360
f 336/379/337 352/405/361 337/381/339
f 329/380/338 345/390/348 330/382/340
f 338/383/341 352/405/361 353/406/362
f 349/397/355 365/407/363 350/399/357
f 343/401/358 297/408/28 358/409/364
f 206/410/30 357/398/356 372/411/365
f 351/403/359 365/407/363 366/412/366
f 344/404/360 358/409/364 359/413/367
f 351/403/359 367/414/368 352/405/361
f 344/404/360 360/415/369 345/390/348
f 353/406/362 367/414/368 368/416/370
f 346/391/349 360/415/369 361/417/371
f 353/406/362 369/418/372 354/392/350
f 346/391/349 362/419/373 347/393/351
f 355/394/352 369/418/372 370/420/374
f 347/393/351 363/421/375 348/395/353
f 356/396/354 370/420/374 371/422/376
f 349/397/355 363/421/375 364/423/377
f 356/396/354 372/411/365 357/398/356
f 368/424/370 384/425/378 369/426/372
f 362/427/373 376/428/379 377/429/380
f 369/426/372 385/430/381 370/431/374
f 362/427/373 378/432/382 363/433/375
f 371/434/376 385/430/381 386/435/383
f 364/436/377 378/432/382 379/437/384
f 371/434/376 387/438/385 372/439/365
f 364/436/377 380/440/386 365/441/363
f 358/442/364 297/443/28 373/444/387
f 206/445/30 372/439/365 387/438/385
f 366/446/366 380/440/386 381/447/388
f 359/448/367 373/444/387 374/449/389
f 366/446/366 382/450/390 367/451/368
f 359/448/367 375/452/391 360/453/369
f 368/424/370 382/450/390 383/454/392
f 361/455/371 375/452/391 376/428/379
f 373/444/387 297/456/28 388/457/393
f 206/458/30 387/438/385 402/459/394
f 380/440/386 396/460/395 381/447/388
f 373/444/387 389/461/396 374/449/389
f 381/447/388 397/462/397 382/450/390
f 374/449/389 390/463/398 375/452/391
f 383/454/392 397/462/397 398/464/399
f 376/428/379 390/463/398 391/465/400
f 383/454/392 399/466/401 384/425/378
f 376/428/379 392/467/402 377/429/380
f 384/425/378 400/468/403 385/430/381
f 377/429/380 393/469/404 378/432/382
f 386/435/383 400/468/403 401/470/405
f 379/437/384 393/469/404 394/471/406
f 386/435/383 402/459/394 387/438/385
f 379/437/384 395/472/407 380/440/386
f 392/467/402 406/473/408 407/474/409
f 399/466/401 415/475/410 400/468/403
f 392/467/402 408/476/411 393/469/404
f 401/470/405 415/475/410 416/477/412
f 394/471/406 408/476/411 409/478/413
f 401/470/405 417/479/414 402/459/394
f 394/471/406 410/480/415 395/472/407
f 388/457/393 297/481/28 403/482/416
f 206/483/30 402/459/394 417/479/414
f 396/460/395 410/480/415 411/484/417
f 388/457/393 404/485/418 389/461/396
f 396/460/395 412/486/419 397/462/397
f 390/463/398 404/485/418 405/487/420
f 398/464/399 412/486/419 413/488/421
f 391/465/400 405/487/420 406/473/408
f 398/464/399 414/489/422 399/466/401
f 411/484/417 425/490/423 426/491/424
f 403/482/416 419/492/425 404/485/418
f 411/484/417 427/493/426 412/486/419
f 404/485/418 420/494/427 405/487/420
f 413/488/421 427/493/426 428/495/428
f 405/487/420 421/496/429 406/473/408
f 413/488/421 429/497/430 414/489/422
f 407/474/409 421/496/429 422/498/431
f 414/489/422 430/499/432 415/475/410
f 407/474/409 423/500/433 408/476/411
f 415/475/410 431/501/434 416/477/412
f 409/478/413 423/500/433 424/502/435
f 416/477/412 432/503/436 417/479/414
f 409/478/413 425/490/423 410/480/415
f 403/482/416 297/504/28 418/505/437
f 206/506/30 417/479/414 432/503/436
f 430/499/432 444/507/438 445/508/439
f 422/498/431 438/509/440 423/500/433
f 430/499/432 446/510/441 431/501/434
f 424/502/435 438/509/440 439/511/442
f 431/501/434 447/512/443 432/503/436
f 425/490/423 439/511/442 440/513/444
f 418/505/437 297/514/28 433/515/445
f 206/516/30 432/503/436 447/512/443
f 425/490/423 441/517/446 426/491/424
f 418/505/437 434/518/447 419/492/425
f 426/491/424 442/519/448 427/493/426
f 419/492/425 435/520/449 420/494/427
f 428/495/428 442/519/448 443/521/450
f 420/494/427 436/522/451 421/496/429
f 428/495/428 444/507/438 429/497/430
f 422/498/431 436/522/451 437/523/452
f 441/517/446 457/524/453 442/519/448
f 435/520/449 449/525/454 450/526/455
f 443/521/450 457/524/453 458/527/456
f 436/522/451 450/526/455 451/528/457
f 443/521/450 459/529/458 444/507/438
f 437/523/452 451/528/457 452/530/459
f 444/507/438 460/531/460 445/508/439
f 437/523/452 453/532/461 438/509/440
f 445/508/439 461/533/462 446/510/441
f 439/511/442 453/532/461 454/534/463
f 446/510/441 462/535/464 447/512/443
f 439/511/442 455/536/465 440/513/444
f 433/515/445 297/537/28 448/538/466
f 206/539/30 447/512/443 462/535/464
f 440/513/444 456/540/467 441/517/446
f 434/518/447 448/538/466 449/525/454
f 460/531/460 476/541/468 461/533/462
f 454/534/463 468/542/469 469/543/470
f 462/535/464 476/541/468 477/544/471
f 454/534/463 470/545/472 455/536/465
f 448/538/466 297/546/28 463/547/473
f 206/548/30 462/535/464 477/544/471
f 455/536/465 471/549/474 456/540/467
f 448/538/466 464/550/475 449/525/454
f 456/540/467 472/551/476 457/524/453
f 449/525/454 465/552/477 450/526/455
f 458/527/456 472/551/476 473/553/478
f 450/526/455 466/554/479 451/528/457
f 458/527/456 474/555/480 459/529/458
f 452/530/459 466/554/479 467/556/481
f 459/529/458 475/557/482 460/531/460
f 452/530/459 468/542/469 453/532/461
f 465/552/477 2/32/32 3/4/4
f 473/553/478 478/3/3 479/8/8
f 466/554/479 3/4/4 4/10/10
f 473/553/478 480/12/12 474/555/480
f 467/556/481 4/10/10 5/14/14
f 474/555/480 10/16/16 475/557/482
f 468/542/469 5/14/14 6/18/18
f 475/557/482 481/20/20 476/541/468
f 469/543/470 6/18/18 7/22/22
f 476/541/468 482/24/24 477/544/471
f 470/545/472 7/22/22 8/26/26
f 463/547/473 297/558/28 1/27/27
f 206/559/30 477/544/471 482/24/24
f 470/545/472 9/1/1 471/549/474
f 464/550/475 1/27/27 2/32/32
f 471/549/474 478/3/3 472/551/476
f 9/1/1 19/31/31 20/2/2
f 3/4/4 2/32/32 12/5/5
f 478/3/3 20/2/2 21/7/7
f 3/4/4 13/6/6 14/9/9
f 479/8/8 21/7/7 22/11/11
f 4/10/10 14/9/9 15/13/13
f 480/12/12 22/11/11 23/15/15
f 5/14/14 15/13/13 16/17/17
f 10/16/16 23/15/15 24/19/19
f 6/18/18 16/17/17 17/21/21
f 481/20/20 24/19/19 25/23/23
f 7/22/22 17/21/21 18/25/25
f 8/26/26 18/25/25 19/31/31
f 1/27/27 11/29/29 12/5/5
f 19/31/31 18/25/25 33/35/34
f 11/29/29 26/49/47 27/37/36
f 20/2/2 19/31/31 34/36/35
f 12/5/5 27/37/36 28/39/38
f 20/2/2 35/38/37 36/40/39
f 13/6/6 28/39/38 29/41/40
f 22/11/11 21/7/7 36/40/39
f 14/9/9 29/41/40 30/43/42
f 22/11/11 37/42/41 38/44/43
f 15/13/13 30/43/42 31/45/44
f 23/15/15 38/44/43 39/46/45
f 16/17/17 31/45/44 32/47/46
f 24/19/19 39/46/45 40/34/33
f 17/21/21 32/47/46 33/35/34
f 37/42/41 52/65/61 53/50/48
f 30/43/42 45/66/62 46/51/49
f 38/44/43 53/50/48 54/52/50
f 32/47/46 31/45/44 46/51/49
f 39/46/45 54/52/50 55/54/52
f 32/47/46 47/53/51 48/55/53
f 33/35/34 48/55/53 49/59/55
f 26/49/47 41/57/54 42/60/56
f 34/36/35 49/59/55 50/61/57
f 27/37/36 42/60/56 43/62/58
f 36/40/39 35/38/37 50/61/57
f 28/39/38 43/62/58 44/64/60
f 37/42/41 36/40/39 51/63/59
f 29/41/40 44/64/60 45/66/62
f 41/57/54 56/81/76 57/67/63
f 49/59/55 64/83/77 65/68/64
f 42/60/56 57/67/63 58/69/65
f 51/63/59 50/61/57 65/68/64
f 43/62/58 58/69/65 59/71/67
f 51/63/59 66/70/66 67/72/68
f 44/64/60 59/71/67 60/73/69
f 52/65/61 67/72/68 68/74/70
f 45/66/62 60/73/69 61/75/71
f 53/50/48 68/74/70 69/76/72
f 46/51/49 61/75/71 62/77/73
f 54/52/50 69/76/72 70/78/74
f 48/55/53 47/53/51 62/77/73
f 48/55/53 63/79/75 64/83/77
f 60/73/69 75/100/92 76/84/78
f 69/76/72 68/74/70 83/85/79
f 61/75/71 76/84/78 77/87/81
f 69/76/72 84/86/80 85/88/82
f 63/79/75 62/77/73 77/87/81
f 63/79/75 78/89/83 79/93/85
f 56/81/76 71/91/84 72/94/86
f 64/83/77 79/93/85 80/95/87
f 57/67/63 72/94/86 73/96/88
f 66/70/66 65/68/64 80/95/87
f 58/69/65 73/96/88 74/98/90
f 66/70/66 81/97/89 82/99/91
f 60/73/69 59/71/67 74/98/90
f 68/74/70 67/72/68 82/99/91
f 79/93/85 94/116/106 95/101/93
f 72/94/86 87/117/107 88/102/94
f 81/97/89 80/95/87 95/101/93
f 73/96/88 88/102/94 89/104/96
f 82/99/91 81/97/89 96/103/95
f 75/100/92 74/98/90 89/104/96
f 82/99/91 97/105/97 98/107/99
f 75/100/92 90/106/98 91/108/100
f 84/86/80 83/85/79 98/107/99
f 77/87/81 76/84/78 91/108/100
f 84/86/80 99/109/101 100/111/103
f 77/87/81 92/110/102 93/112/104
f 78/89/83 93/112/104 94/116/106
f 71/91/84 86/114/105 87/117/107
f 98/107/99 113/134/122 114/118/108
f 92/110/102 91/108/100 106/119/109
f 100/111/103 99/109/101 114/118/108
f 92/110/102 107/120/110 108/122/112
f 93/112/104 108/122/112 109/126/114
f 86/114/105 101/124/113 102/127/115
f 94/116/106 109/126/114 110/128/116
f 87/117/107 102/127/115 103/129/117
f 96/103/95 95/101/93 110/128/116
f 89/104/96 88/102/94 103/129/117
f 97/105/97 96/103/95 111/130/118
f 89/104/96 104/131/119 105/133/121
f 97/105/97 112/132/120 113/134/122
f 90/106/98 105/133/121 106/119/109
f 102/127/115 117/151/137 118/135/123
f 111/130/118 110/128/116 125/136/124
f 103/129/117 118/135/123 119/138/126
f 111/130/118 126/137/125 127/139/127
f 104/131/119 119/138/126 120/140/128
f 113/134/122 112/132/120 127/139/127
f 105/133/121 120/140/128 121/142/130
f 114/118/108 113/134/122 128/141/129
f 107/120/110 106/119/109 121/142/130
f 115/121/111 114/118/108 129/143/131
f 107/120/110 122/144/132 123/146/134
f 109/126/114 108/122/112 123/146/134
f 101/124/113 116/148/135 117/151/137
f 109/126/114 124/150/136 125/136/124
f 122/144/132 121/142/130 136/152/138
f 130/145/133 129/143/131 144/154/140
f 122/144/132 137/153/139 138/156/142
f 123/146/134 138/156/142 139/160/144
f 117/151/137 116/148/135 131/158/143
f 124/150/136 139/160/144 140/162/146
f 117/151/137 132/161/145 133/163/147
f 126/137/125 125/136/124 140/162/146
f 118/135/123 133/163/147 134/165/149
f 126/137/125 141/164/148 142/166/150
f 120/140/128 119/138/126 134/165/149
f 128/141/129 127/139/127 142/166/150
f 120/140/128 135/167/151 136/152/138
f 128/141/129 143/168/152 144/154/140
f 141/164/148 140/162/146 155/169/153
f 133/163/147 148/185/167 149/171/155
f 141/164/148 156/170/154 157/172/156
f 134/165/149 149/171/155 150/173/157
f 142/166/150 157/172/156 158/174/158
f 135/167/151 150/173/157 151/175/159
f 144/154/140 143/168/152 158/174/158
f 137/153/139 136/152/138 151/175/159
f 144/154/140 159/176/160 160/178/162
f 137/153/139 152/177/161 153/179/163
f 138/156/142 153/179/163 154/183/165
f 131/158/143 146/181/164 147/184/166
f 139/160/144 154/183/165 155/169/153
f 133/163/147 132/161/145 147/184/166
f 159/176/160 174/201/181 175/186/168
f 152/177/161 167/202/182 168/187/169
f 154/183/165 153/179/163 168/187/169
f 146/181/164 161/189/170 162/192/172
f 154/183/165 169/191/171 170/193/173
f 147/184/166 162/192/172 163/194/174
f 156/170/154 155/169/153 170/193/173
f 148/185/167 163/194/174 164/196/176
f 156/170/154 171/195/175 172/197/177
f 150/173/157 149/171/155 164/196/176
f 158/174/158 157/172/156 172/197/177
f 150/173/157 165/198/178 166/200/180
f 158/174/158 173/199/179 174/201/181
f 152/177/161 151/175/159 166/200/180
f 171/195/175 186/218/196 187/203/183
f 164/196/176 179/219/197 180/204/184
f 173/199/179 172/197/177 187/203/183
f 165/198/178 180/204/184 181/206/186
f 173/199/179 188/205/185 189/207/187
f 167/202/182 166/200/180 181/206/186
f 175/186/168 174/201/181 189/207/187
f 167/202/182 182/208/188 183/210/190
f 168/187/169 183/210/190 184/214/192
f 161/189/170 176/212/191 177/215/193
f 169/191/171 184/214/192 185/216/194
f 162/192/172 177/215/193 178/217/195
f 170/193/173 185/216/194 186/218/196
f 163/194/174 178/217/195 179/219/197
f 184/214/192 183/210/190 198/224/200
f 176/212/191 191/221/198 192/226/202
f 184/214/192 199/225/201 200/227/203
f 177/215/193 192/226/202 193/228/204
f 186/218/196 185/216/194 200/227/203
f 179/219/197 178/217/195 193/228/204
f 186/218/196 201/229/205 202/231/207
f 180/204/184 179/219/197 194/230/206
f 188/205/185 187/203/183 202/231/207
f 180/204/184 195/232/208 196/234/210
f 188/205/185 203/233/209 204/235/211
f 182/208/188 181/206/186 196/234/210
f 190/209/189 189/207/187 204/235/211
f 182/208/188 197/236/212 198/224/200
f 194/230/206 210/253/227 211/237/213
f 203/233/209 202/231/207 218/238/214
f 195/232/208 211/237/213 212/240/216
f 203/233/209 219/239/215 220/241/217
f 197/236/212 196/234/210 212/240/216
f 204/235/211 220/241/217 221/243/219
f 197/236/212 213/242/218 214/244/220
f 198/224/200 214/244/220 215/248/222
f 191/221/198 207/246/221 208/249/223
f 199/225/201 215/248/222 216/250/224
f 193/228/204 192/226/202 208/249/223
f 201/229/205 200/227/203 216/250/224
f 193/228/204 209/251/225 210/253/227
f 201/229/205 217/252/226 218/238/214
f 214/244/220 229/267/241 230/254/228
f 207/246/221 222/269/242 223/255/229
f 215/248/222 230/254/228 231/256/230
f 208/249/223 223/255/229 224/257/231
f 217/252/226 216/250/224 231/256/230
f 209/251/225 224/257/231 225/259/233
f 217/252/226 232/258/232 233/260/234
f 210/253/227 225/259/233 226/261/235
f 218/238/214 233/260/234 234/262/236
f 211/237/213 226/261/235 227/263/237
f 219/239/215 234/262/236 235/264/238
f 213/242/218 212/240/216 227/263/237
f 221/243/219 220/241/217 235/264/238
f 213/242/218 228/265/239 229/267/241
f 234/262/236 233/260/234 248/271/243
f 226/261/235 241/287/257 242/273/245
f 234/262/236 249/272/244 250/274/246
f 228/265/239 227/263/237 242/273/245
f 236/266/240 235/264/238 250/274/246
f 228/265/239 243/275/247 244/277/249
f 229/267/241 244/277/249 245/281/251
f 222/269/242 237/279/250 238/282/252
f 230/254/228 245/281/251 246/283/253
f 224/257/231 223/255/229 238/282/252
f 232/258/232 231/256/230 246/283/253
f 225/259/233 224/257/231 239/284/254
f 232/258/232 247/285/255 248/271/243
f 225/259/233 240/286/256 241/287/257
f 237/279/250 252/302/271 253/288/258
f 245/281/251 260/304/272 261/289/259
f 238/282/252 253/288/258 254/290/260
f 247/285/255 246/283/253 261/289/259
f 240/286/256 239/284/254 254/290/260
f 247/285/255 262/291/261 263/293/263
f 241/287/257 240/286/256 255/292/262
f 248/271/243 263/293/263 264/295/265
f 241/287/257 256/294/264 257/296/266
f 249/272/244 264/295/265 265/297/267
f 243/275/247 242/273/245 257/296/266
f 250/274/246 265/297/267 266/299/269
f 243/275/247 258/298/268 259/300/270
f 244/277/249 259/300/270 260/304/272
f 256/294/264 271/321/287 272/305/273
f 265/297/267 264/295/265 279/306/274
f 258/298/268 257/296/266 272/305/273
f 266/299/269 265/297/267 280/307/275
f 258/298/268 273/308/276 274/310/278
f 260/304/272 259/300/270 274/310/278
f 252/302/271 267/312/279 268/315/281
f 260/304/272 275/314/280 276/316/282
f 253/288/258 268/315/281 269/317/283
f 262/291/261 261/289/259 276/316/282
f 255/292/262 254/290/260 269/317/283
f 262/291/261 277/318/284 278/320/286
f 256/294/264 255/292/262 270/319/285
f 263/293/263 278/320/286 279/306/274
f 275/314/280 290/337/301 291/322/288
f 268/315/281 283/338/302 284/323/289
f 277/318/284 276/316/282 291/322/288
f 269/317/283 284/323/289 285/325/291
f 277/318/284 292/324/290 293/326/292
f 271/321/287 270/319/285 285/325/291
f 279/306/274 278/320/286 293/326/292
f 271/321/287 286/327/293 287/329/295
f 279/306/274 294/328/294 295/330/296
f 273/308/276 272/305/273 287/329/295
f 281/309/277 280/307/275 295/330/296
f 273/308/276 288/331/297 289/333/299
f 274/310/278 289/333/299 290/337/301
f 267/312/279 282/335/300 283/338/302
f 294/328/294 310/355/317 311/339/303
f 288/331/297 287/329/295 303/340/304
f 295/330/296 311/339/303 312/342/306
f 289/333/299 288/331/297 304/341/305
f 289/333/299 305/343/307 306/347/309
f 282/335/300 298/345/308 299/348/310
f 290/337/301 306/347/309 307/349/311
f 283/338/302 299/348/310 300/350/312
f 292/324/290 291/322/288 307/349/311
f 285/325/291 284/323/289 300/350/312
f 292/324/290 308/351/313 309/353/315
f 286/327/293 285/325/291 301/352/314
f 293/326/292 309/353/315 310/355/317
f 286/327/293 302/354/316 303/340/304
f 308/351/313 307/349/311 322/356/318
f 301/352/314 300/350/312 315/358/320
f 308/351/313 323/357/319 324/360/322
f 302/354/316 301/352/314 316/359/321
f 309/353/315 324/360/322 325/362/324
f 302/354/316 317/361/323 318/363/325
f 311/339/303 310/355/317 325/362/324
f 304/341/305 303/340/304 318/363/325
f 311/339/303 326/364/326 327/366/328
f 304/341/305 319/365/327 320/367/329
f 305/343/307 320/367/329 321/371/331
f 298/345/308 313/369/330 314/372/332
f 306/347/309 321/371/331 322/356/318
f 299/348/310 314/372/332 315/358/320
f 327/366/328 326/364/326 341/373/333
f 319/365/327 334/389/347 335/375/335
f 320/367/329 335/375/335 336/379/337
f 313/369/330 328/377/336 329/380/338
f 321/371/331 336/379/337 337/381/339
f 314/372/332 329/380/338 330/382/340
f 323/357/319 322/356/318 337/381/339
f 316/359/321 315/358/320 330/382/340
f 324/360/322 323/357/319 338/383/341
f 317/361/323 316/359/321 331/384/342
f 324/360/322 339/385/343 340/387/345
f 317/361/323 332/386/344 333/388/346
f 326/364/326 325/362/324 340/387/345
f 319/365/327 318/363/325 333/388/346
f 331/384/342 330/382/340 345/390/348
f 338/383/341 353/406/362 354/392/350
f 332/386/344 331/384/342 346/391/349
f 339/385/343 354/392/350 355/394/352
f 332/386/344 347/393/351 348/395/353
f 341/373/333 340/387/345 355/394/352
f 334/389/347 333/388/346 348/395/353
f 341/373/333 356/396/354 357/398/356
f 334/389/347 349/397/355 350/399/357
f 335/375/335 350/399/357 351/403/359
f 329/380/338 328/377/336 343/401/358
f 336/379/337 351/403/359 352/405/361
f 329/380/338 344/404/360 345/390/348
f 338/383/341 337/381/339 352/405/361
f 349/397/355 364/423/377 365/407/363
f 351/403/359 350/399/357 365/407/363
f 344/404/360 343/401/358 358/409/364
f 351/403/359 366/412/366 367/414/368
f 344/404/360 359/413/367 360/415/369
f 353/406/362 352/405/361 367/414/368
f 346/391/349 345/390/348 360/415/369
f 353/406/362 368/416/370 369/418/372
f 346/391/349 361/417/371 362/419/373
f 355/394/352 354/392/350 369/418/372
f 347/393/351 362/419/373 363/421/375
f 356/396/354 355/394/352 370/420/374
f 349/397/355 348/395/353 363/421/375
f 356/396/354 371/422/376 372/411/365
f 368/424/370 383/454/392 384/425/378
f 362/427/373 361/455/371 376/428/379
f 369/426/372 384/425/378 385/430/381
f 362/427/373 377/429/380 378/432/382
f 371/434/376 370/431/374 385/430/381
f 364/436/377 363/433/375 378/432/382
f 371/434/376 386/435/383 387/438/385
f 364/436/377 379/437/384 380/440/386
f 366/446/366 365/441/363 380/440/386
f 359/448/367 358/442/364 373/444/387
f 366/446/366 381/447/388 382/450/390
f 359/448/367 374/449/389 375/452/391
f 368/424/370 367/451/368 382/450/390
f 361/455/371 360/453/369 375/452/391
f 380/440/386 395/472/407 396/460/395
f 373/444/387 388/457/393 389/461/396
f 381/447/388 396/460/395 397/462/397
f 374/449/389 389/461/396 390/463/398
f 383/454/392 382/450/390 397/462/397
f 376/428/379 375/452/391 390/463/398
f 383/454/392 398/464/399 399/466/401
f 376/428/379 391/465/400 392/467/402
f 384/425/378 399/466/401 400/468/403
f 377/429/380 392/467/402 393/469/404
f 386/435/383 385/430/381 400/468/403
f 379/437/384 378/432/382 393/469/404
f 386/435/383 401/470/405 402/459/394
f 379/437/384 394/471/406 395/472/407
f 392/467/402 391/465/400 406/473/408
f 399/466/401 414/489/422 415/475/410
f 392/467/402 407/474/409 408/476/411
f 401/470/405 400/468/403 415/475/410
f 394/471/406 393/469/404 408/476/411
f 401/470/405 416/477/412 417/479/414
f 394/471/406 409/478/413 410/480/415
f 396/460/395 395/472/407 410/480/415
f 388/457/393 403/482/416 404/485/418
f 396/460/395 411/484/417 412/486/419
f 390/463/398 389/461/396 404/485/418
f 398/464/399 397/462/397 412/486/419
f 391/465/400 390/463/398 405/487/420
f 398/464/399 413/488/421 414/489/422
f 411/484/417 410/480/415 425/490/423
f 403/482/416 418/505/437 419/492/425
f 411/484/417 426/491/424 427/493/426
f 404/485/418 419/492/425 420/494/427
f 413/488/421 412/486/419 427/493/426
f 405/487/420 420/494/427 421/496/429
f 413/488/421 428/495/428 429/497/430
f 407/474/409 406/473/408 421/496/429
f 414/489/422 429/497/430 430/499/432
f 407/474/409 422/498/431 423/500/433
f 415/475/410 430/499/432 431/501/434
f 409/478/413 408/476/411 423/500/433
f 416/477/412 431/501/434 432/503/436
f 409/478/413 424/502/435 425/490/423
f 430/499/432 429/497/430 444/507/438
f 422/498/431 437/523/452 438/509/440
f 430/499/432 445/508/439 446/510/441
f 424/502/435 423/500/433 438/509/440
f 431/501/434 446/510/441 447/512/443
f 425/490/423 424/502/435 439/511/442
f 425/490/423 440/513/444 441/517/446
f 418/505/437 433/515/445 434/518/447
f 426/491/424 441/517/446 442/519/448
f 419/492/425 434/518/447 435/520/449
f 428/495/428 427/493/426 442/519/448
f 420/494/427 435/520/449 436/522/451
f 428/495/428 443/521/450 444/507/438
f 422/498/431 421/496/429 436/522/451
f 441/517/446 456/540/467 457/524/453
f 435/520/449 434/518/447 449/525/454
f 443/521/450 442/519/448 457/524/453
f 436/522/451 435/520/449 450/526/455
f 443/521/450 458/527/456 459/529/458
f 437/523/452 436/522/451 451/528/457
f 444/507/438 459/529/458 460/531/460
f 437/523/452 452/530/459 453/532/461
f 445/508/439 460/531/460 461/533/462
f 439/511/442 438/509/440 453/532/461
f 446/510/441 461/533/462 462/535/464
f 439/511/442 454/534/463 455/536/465
f 440/513/444 455/536/465 456/540/467
f 434/518/447 433/515/445 448/538/466
f 460/531/460 475/557/482 476/541/468
f 454/534/463 453/532/461 468/542/469
f 462/535/464 461/533/462 476/541/468
f 454/534/463 469/543/470 470/545/472
f 455/536/465 470/545/472 471/549/474
f 448/538/466 463/547/473 464/550/475
f 456/540/467 471/549/474 472/551/476
f 449/525/454 464/550/475 465/552/477
f 458/527/456 457/524/453 472/551/476
f 450/526/455 465/552/477 466/554/479
f 458/527/456 473/553/478 474/555/480
f 452/530/459 451/528/457 466/554/479
f 459/529/458 474/555/480 475/557/482
f 452/530/459 467/556/481 468/542/469
f 465/552/477 464/550/475 2/32/32
f 473/553/478 472/551/476 478/3/3
f 466/554/479 465/552/477 3/4/4
f 473/553/478 479/8/8 480/12/12
f 467/556/481 466/554/479 4/10/10
f 474/555/480 480/12/12 10/16/16
f 468/542/469 467/556/481 5/14/14
f 475/557/482 10/16/16 481/20/20
f 469/543/470 468/542/469 6/18/18
f 476/541/468 481/20/20 482/24/24
f 470/545/472 469/543/470 7/22/22
f 470/545/472 8/26/26 9/1/1
f 464/550/475 463/547/473 1/27/27
f 471/549/474 9/1/1 478/3/3
