# Blender 5.0.1
# www.blender.org
mtllib CofreElRey.mtl
g Body.003_Mesh
v 0.473103 -0.126638 -6.066634
v 0.501552 0.000282 -6.940467
v -0.001761 -0.130772 -5.940550
v -0.001761 0.031443 -6.769517
v 0.363907 0.015726 -6.831947
v 0.217643 0.024606 -6.789538
v 0.490437 -0.067965 -6.274431
v 0.497907 -0.037537 -6.493786
v 0.499866 -0.015394 -6.709552
v -0.001761 -0.052708 -6.143596
v -0.001761 -0.012241 -6.355033
v -0.001761 0.017325 -6.562275
v 0.194382 -0.052077 -6.154474
v 0.215150 -0.013735 -6.368189
v 0.220837 0.012941 -6.578863
v 0.330580 -0.056091 -6.200447
v 0.341689 -0.022472 -6.415185
v 0.352798 -0.000570 -6.623566
v 0.481906 -0.095353 -6.151089
v -0.001761 -0.090784 -6.002270
v 0.167829 -0.091672 -6.010276
v 0.325026 -0.093660 -6.058726
v 0.254038 0.022672 -6.799529
v 0.216677 -0.056392 -6.159157
v 0.239426 -0.019785 -6.375501
v 0.249650 0.005927 -6.587160
v 0.183072 -0.092562 -6.013180
v 0.244832 0.023075 -6.797002
v 0.211038 -0.052366 -6.157972
v 0.233285 -0.014818 -6.373652
v 0.242362 0.012856 -6.585061
v 0.179216 -0.092337 -6.012445
v 0.319471 -0.125223 -5.998425
v 0.472242 -0.122222 -6.068868
v 0.161886 -0.130667 -5.946840
v 0.252690 -0.127530 -5.976564
v 0.505302 -0.016794 -6.712261
v -0.505074 0.000282 -6.940467
v -0.165805 -0.135407 -5.945252
v -0.367429 0.015726 -6.831947
v -0.221165 0.024606 -6.789538
v -0.493959 -0.067965 -6.274431
v -0.501429 -0.037537 -6.493786
v -0.503388 -0.015394 -6.709552
v -0.197904 -0.052077 -6.154474
v -0.218672 -0.013735 -6.368189
v -0.224359 0.012941 -6.578863
v -0.334102 -0.056091 -6.200447
v -0.345211 -0.022472 -6.415185
v -0.356320 -0.000570 -6.623566
v -0.485428 -0.095353 -6.151089
v -0.171351 -0.091672 -6.010276
v -0.328548 -0.093660 -6.058726
v -0.257560 0.022672 -6.799529
v -0.220199 -0.056392 -6.159157
v -0.242948 -0.019785 -6.375501
v -0.253172 0.005927 -6.587160
v -0.186594 -0.092562 -6.013180
v -0.259388 -0.131998 -5.975430
v -0.248354 0.023075 -6.797002
v -0.214560 -0.052366 -6.157972
v -0.236807 -0.014818 -6.373652
v -0.245884 0.012856 -6.585061
v -0.182738 -0.092337 -6.012445
v -0.322993 -0.125223 -5.998425
v -0.475764 -0.122222 -6.068868
v -0.247363 -0.132756 -5.972387
v -0.165408 -0.130667 -5.946840
v -0.256212 -0.127530 -5.976564
v -0.508824 -0.016794 -6.712261
vn 0.1894 0.9785 0.0812
vn 0.1332 0.9881 0.0774
vn 0.1237 0.9877 0.0955
vn 0.0321 0.9949 0.0961
vn -0.0000 0.9981 0.0616
vn -0.0000 0.9947 0.1025
vn 0.0789 0.9936 0.0809
vn 0.4148 0.9050 0.0945
vn 0.1510 0.9187 0.3649
vn 0.3460 0.9043 0.2501
vn 0.1333 0.9036 0.4072
vn 0.1181 0.9706 0.2096
vn 0.3797 0.9112 0.1598
vn 0.1194 0.9836 0.1352
vn 0.0757 0.9098 0.4081
vn -0.0000 0.9739 0.2271
vn -0.0000 0.9130 0.4079
vn 0.0408 0.9721 0.2308
vn -0.0000 0.9867 0.1628
vn 0.0638 0.9855 0.1575
vn 0.1801 0.9471 0.2658
vn 0.1618 0.9706 0.1781
vn 0.1579 0.9802 0.1192
vn 0.2016 0.9130 0.3547
vn 0.1509 0.8701 0.4693
vn 0.0762 0.8447 0.5297
vn -0.0000 0.8393 0.5437
vn 0.1517 0.8522 0.5007
vn 0.1301 0.9030 0.4094
vn 0.3910 0.9158 0.0916
vn 0.6492 0.7429 0.1636
vn 0.5935 0.7599 0.2653
vn 0.0770 0.9948 0.0668
vn 0.0529 0.9973 0.0517
vn 0.0645 0.9735 0.2194
vn 0.1016 0.9836 0.1487
vn 0.2801 0.9576 0.0671
vn 0.1671 0.9836 0.0680
vn 0.3605 0.4761 0.8021
vn -0.1894 0.9785 0.0812
vn -0.1237 0.9877 0.0955
vn -0.1332 0.9881 0.0774
vn -0.0321 0.9949 0.0961
vn -0.4148 0.9050 0.0945
vn -0.0789 0.9936 0.0809
vn -0.1510 0.9187 0.3649
vn -0.1333 0.9036 0.4072
vn -0.3460 0.9043 0.2501
vn -0.1181 0.9706 0.2096
vn -0.3797 0.9112 0.1598
vn -0.1194 0.9836 0.1352
vn -0.0757 0.9098 0.4081
vn -0.0408 0.9721 0.2308
vn -0.0638 0.9855 0.1575
vn -0.1801 0.9471 0.2658
vn -0.1618 0.9706 0.1781
vn -0.1579 0.9802 0.1192
vn -0.2016 0.9130 0.3547
vn -0.1509 0.8701 0.4693
vn -0.0762 0.8447 0.5297
vn -0.1517 0.8522 0.5007
vn -0.1301 0.9030 0.4094
vn -0.6492 0.7429 0.1636
vn -0.3910 0.9158 0.0916
vn -0.5935 0.7599 0.2653
vn -0.0770 0.9948 0.0668
vn -0.0529 0.9973 0.0517
vn -0.0645 0.9735 0.2194
vn -0.1016 0.9836 0.1487
vn -0.2704 0.4131 0.8696
vn -0.2943 0.2425 0.9244
vn -0.2889 0.3258 0.9002
vn -0.2892 0.3227 0.9012
vn -0.2801 0.9576 0.0671
vn -0.1671 0.9836 0.0680
vn -0.2944 0.2407 0.9249
vt 0.731528 0.381597
vt 0.694487 0.388845
vt 0.702107 0.383513
vt 0.679713 0.380069
vt 0.592000 0.398480
vt 0.639579 0.391349
vt 0.654215 0.403494
vt 0.684419 0.384683
vt 0.820737 0.328966
vt 0.719432 0.332584
vt 0.730864 0.314944
vt 0.793207 0.354001
vt 0.709901 0.357121
vt 0.715914 0.369685
vt 0.728503 0.312873
vt 0.684744 0.318528
vt 0.688645 0.307541
vt 0.715740 0.329484
vt 0.634042 0.351008
vt 0.706020 0.353276
vt 0.901800 0.338668
vt 0.833271 0.367597
vt 0.775666 0.377372
vt 0.909512 0.322814
vt 0.827449 0.316940
vt 0.735830 0.299640
vt 0.696510 0.294860
vt 0.818404 0.305950
vt 0.730265 0.314417
vt 0.682805 0.383384
vt 0.708615 0.356109
vt 0.718235 0.331822
vt 0.652885 0.402100
vt 0.648834 0.397957
vt 0.732243 0.382644
vt 0.709544 0.390752
vt 0.910329 0.322213
vt 0.421598 0.362328
vt 0.534320 0.369737
vt 0.463239 0.394572
vt 0.562125 0.377049
vt 0.555900 0.374884
vt 0.525669 0.396770
vt 0.614972 0.294849
vt 0.644021 0.302474
vt 0.613492 0.304139
vt 0.589697 0.298828
vt 0.585558 0.341547
vt 0.563877 0.337117
vt 0.646926 0.303669
vt 0.617910 0.306069
vt 0.590727 0.343315
vt 0.521124 0.289617
vt 0.504226 0.307959
vt 0.465304 0.332136
vt 0.530053 0.273202
vt 0.622762 0.283492
vt 0.655524 0.291225
vt 0.636627 0.286710
vt 0.644760 0.302777
vt 0.587036 0.342249
vt 0.557781 0.375752
vt 0.614707 0.304873
vt 0.527509 0.397342
vt 0.533021 0.399129
vt 0.636359 0.285609
vt 0.638818 0.286178
vt 0.655815 0.290248
vt 0.420342 0.362153
vt 0.346691 0.389473
s 1
g off
g Body.003_elReyCars
usemtl elReyCars
f 9/1/1 5/2/2 18/3/3
f 15/4/4 4/5/5 12/6/6
f 18/3/3 23/7/7 26/8/8
f 22/9/9 24/10/10 27/11/11
f 16/12/12 25/13/13 24/10/10
f 17/14/14 26/8/8 25/13/13
f 21/15/15 10/16/16 20/17/17
f 13/18/18 11/19/19 10/16/16
f 14/20/20 12/6/6 11/19/19
f 19/21/21 16/12/12 22/9/9
f 7/22/22 17/14/14 16/12/12
f 8/23/23 18/3/3 17/14/14
f 34/24/24 22/9/9 33/25/25
f 35/26/26 20/17/17 3/27/27
f 36/28/28 22/9/9 27/11/11
f 35/26/26 27/11/11 32/29/29
f 25/13/13 31/30/30 30/31/31
f 24/10/10 30/31/31 29/32/32
f 27/11/11 29/32/32 32/29/29
f 26/8/8 28/33/33 31/30/30
f 31/30/30 6/34/34 15/4/4
f 32/29/29 13/18/18 21/15/15
f 29/32/35 14/20/20 13/18/18
f 30/31/36 15/4/4 14/20/20
f 37/35/37 2/36/38 9/1/1
f 32/29/29 21/15/15 35/26/26
f 9/1/1 2/36/38 5/2/2
f 15/4/4 6/34/34 4/5/5
f 18/3/3 5/2/2 23/7/7
f 22/9/9 16/12/12 24/10/10
f 16/12/12 17/14/14 25/13/13
f 17/14/14 18/3/3 26/8/8
f 21/15/15 13/18/18 10/16/16
f 13/18/18 14/20/20 11/19/19
f 14/20/20 15/4/4 12/6/6
f 19/21/21 7/22/22 16/12/12
f 7/22/22 8/23/23 17/14/14
f 8/23/23 9/1/1 18/3/3
f 34/24/24 19/21/21 22/9/9
f 35/26/26 21/15/15 20/17/17
f 27/11/11 35/26/26 36/28/28
f 36/28/28 33/25/25 22/9/9
f 25/13/13 26/8/8 31/30/30
f 24/10/10 25/13/13 30/31/31
f 27/11/11 24/10/10 29/32/32
f 26/8/8 23/7/7 28/33/33
f 31/30/30 28/33/33 6/34/34
f 32/29/29 29/32/35 13/18/18
f 29/32/35 30/31/36 14/20/20
f 30/31/36 31/30/30 15/4/4
s 2
f 1/37/39 34/24/39 33/25/39
s 1
f 44/38/40 50/39/41 40/40/42
f 47/41/43 12/6/6 4/5/5
f 50/39/41 57/42/44 54/43/45
f 53/44/46 58/45/47 55/46/48
f 48/47/49 55/46/48 56/48/50
f 49/49/51 56/48/50 57/42/44
f 52/50/52 20/17/17 10/16/16
f 45/51/53 10/16/16 11/19/19
f 46/52/54 11/19/19 12/6/6
f 51/53/55 53/44/46 48/47/49
f 42/54/56 48/47/49 49/49/51
f 43/55/57 49/49/51 50/39/41
f 66/56/58 65/57/59 53/44/46
f 68/58/60 3/27/27 20/17/17
f 69/59/61 58/45/47 53/44/46
f 68/58/60 64/60/62 58/45/47
f 56/48/50 62/61/63 63/62/64
f 55/46/48 61/63/65 62/61/63
f 58/45/47 64/60/62 61/63/65
f 57/42/44 63/62/64 60/64/66
f 63/62/64 47/41/43 41/65/67
f 64/60/62 52/50/52 45/51/53
f 61/63/68 45/51/53 46/52/54
f 62/61/69 46/52/54 47/41/43
s 2
f 59/66/70 69/59/70 65/57/70
s 4
f 67/67/71 39/68/72 68/58/73
s 1
f 70/69/74 44/38/40 38/70/75
f 64/60/62 68/58/60 52/50/52
f 44/38/40 40/40/42 38/70/75
f 47/41/43 4/5/5 41/65/67
f 50/39/41 54/43/45 40/40/42
f 53/44/46 55/46/48 48/47/49
f 48/47/49 56/48/50 49/49/51
f 49/49/51 57/42/44 50/39/41
f 52/50/52 10/16/16 45/51/53
f 45/51/53 11/19/19 46/52/54
f 46/52/54 12/6/6 47/41/43
f 51/53/55 48/47/49 42/54/56
f 42/54/56 49/49/51 43/55/57
f 43/55/57 50/39/41 44/38/40
f 66/56/58 53/44/46 51/53/55
f 68/58/60 20/17/17 52/50/52
f 58/45/47 69/59/61 68/58/60
f 69/59/61 53/44/46 65/57/59
f 56/48/50 63/62/64 57/42/44
f 55/46/48 62/61/63 56/48/50
f 58/45/47 61/63/65 55/46/48
f 57/42/44 60/64/66 54/43/45
f 63/62/64 41/65/67 60/64/66
f 64/60/62 45/51/53 61/63/68
f 61/63/68 46/52/54 62/61/69
f 62/61/69 47/41/43 63/62/64
s 4
f 67/67/71 68/58/73 69/59/76
