# Blender 5.0.1
# www.blender.org
mtllib LlantaElRey.mtl
g Tire_RL_Mesh
v 1.796444 -0.219466 -0.064495
v 1.796444 -0.202223 -0.105660
v 1.796444 -0.177282 -0.142673
v 1.796444 -0.145599 -0.174107
v 1.796444 -0.108391 -0.198756
v 1.796444 -0.067090 -0.215672
v 1.796444 -0.023282 -0.224208
v 1.796444 0.021349 -0.224031
v 1.796444 0.065088 -0.215151
v 1.796444 0.106254 -0.197909
v 1.796444 0.143266 -0.172968
v 1.796444 0.174700 -0.141283
v 1.796444 0.199350 -0.104077
v 1.796444 0.216266 -0.062776
v 1.796444 0.224800 -0.018968
v 1.796444 0.224624 0.025663
v 1.796444 0.215745 0.069402
v 1.796444 0.198502 0.110568
v 1.796444 0.173560 0.147580
v 1.796444 0.141877 0.179014
v 1.796444 0.104670 0.203664
v 1.796444 0.063369 0.220580
v 1.796444 0.019561 0.229115
v 1.796444 -0.025070 0.228938
v 1.796444 -0.068809 0.220059
v 1.796444 -0.109975 0.202816
v 1.796444 -0.146987 0.177875
v 1.796444 -0.178421 0.146191
v 1.796444 -0.203071 0.108984
v 1.796444 -0.219987 0.067683
v 1.796444 -0.228522 0.023875
v 1.796444 -0.228345 -0.020756
v 1.605864 -0.142709 -0.040880
v 1.605864 -0.131549 -0.067525
v 1.605864 -0.115405 -0.091482
v 1.605864 -0.094897 -0.111828
v 1.605864 -0.070814 -0.127783
v 1.605864 -0.044081 -0.138733
v 1.605864 -0.015726 -0.144257
v 1.605864 0.013162 -0.144142
v 1.605864 0.041473 -0.138395
v 1.605864 0.068118 -0.127234
v 1.605864 0.092075 -0.111091
v 1.605864 0.112421 -0.090583
v 1.605864 0.128376 -0.066500
v 1.605864 0.139325 -0.039767
v 1.605864 0.144849 -0.011412
v 1.605864 0.144735 0.017477
v 1.605864 0.138988 0.045787
v 1.605864 0.127828 0.072432
v 1.605864 0.111683 0.096389
v 1.605864 0.091175 0.116735
v 1.605864 0.067093 0.132690
v 1.605864 0.040360 0.143640
v 1.605864 0.012005 0.149163
v 1.605864 -0.016883 0.149050
v 1.605864 -0.045194 0.143302
v 1.605864 -0.071839 0.132142
v 1.605864 -0.095796 0.115997
v 1.605864 -0.116142 0.095491
v 1.605864 -0.132097 0.071407
v 1.605864 -0.143047 0.044674
v 1.605864 -0.148571 0.016319
v 1.605864 -0.148456 -0.012569
v 1.601019 -0.187842 -0.054765
v 1.601019 -0.173106 -0.089950
v 1.601019 -0.151788 -0.121583
v 1.601019 -0.124710 -0.148449
v 1.601019 -0.092910 -0.169516
v 1.601019 -0.057611 -0.183974
v 1.601019 -0.020170 -0.191268
v 1.601019 0.017976 -0.191118
v 1.601019 0.055359 -0.183528
v 1.601019 0.090543 -0.168792
v 1.601019 0.122175 -0.147474
v 1.601019 0.149042 -0.120396
v 1.601019 0.170108 -0.088596
v 1.601019 0.184568 -0.053296
v 1.601019 0.191861 -0.015855
v 1.601019 0.191711 0.022290
v 1.601019 0.184121 0.059673
v 1.601019 0.169385 0.094857
v 1.601019 0.148067 0.126490
v 1.601019 0.120989 0.153356
v 1.601019 0.089188 0.174423
v 1.601019 0.053890 0.188882
v 1.601019 0.016448 0.196175
v 1.601019 -0.021697 0.196025
v 1.601019 -0.059080 0.188436
v 1.601019 -0.094264 0.173699
v 1.601019 -0.125897 0.152382
v 1.601019 -0.152763 0.125303
v 1.601019 -0.173831 0.093503
v 1.601019 -0.188289 0.058204
v 1.601019 -0.195582 0.020763
v 1.601019 -0.195432 -0.017382
v 1.614453 -0.219466 -0.064495
v 1.614453 -0.202223 -0.105660
v 1.614453 -0.177282 -0.142673
v 1.614453 -0.145599 -0.174107
v 1.614453 -0.108391 -0.198756
v 1.614453 -0.067090 -0.215672
v 1.614453 -0.023282 -0.224208
v 1.614453 0.021349 -0.224031
v 1.614453 0.065088 -0.215151
v 1.614453 0.106254 -0.197909
v 1.614453 0.143266 -0.172968
v 1.614453 0.174700 -0.141283
v 1.614453 0.199350 -0.104077
v 1.614453 0.216266 -0.062776
v 1.614453 0.224800 -0.018968
v 1.614453 0.224624 0.025663
v 1.614453 0.215745 0.069402
v 1.614453 0.198502 0.110568
v 1.614453 0.173560 0.147580
v 1.614453 0.141877 0.179014
v 1.614453 0.104670 0.203664
v 1.614453 0.063369 0.220580
v 1.614453 0.019561 0.229115
v 1.614453 -0.025070 0.228938
v 1.614453 -0.068809 0.220059
v 1.614453 -0.109975 0.202816
v 1.614453 -0.146987 0.177875
v 1.614453 -0.178421 0.146191
v 1.614453 -0.203071 0.108984
v 1.614453 -0.219987 0.067683
v 1.614453 -0.228522 0.023875
v 1.614453 -0.228345 -0.020756
vn -0.0000 0.2941 -0.9558
vn -0.5429 0.0856 -0.8354
vn -0.5429 0.2469 -0.8027
vn -0.0000 0.2865 0.9581
vn -0.5429 0.3930 0.7422
vn -0.5429 0.2406 0.8046
vn -0.0000 0.1020 -0.9948
vn -0.5429 -0.0790 -0.8361
vn -0.0000 0.4679 0.8838
vn -0.5429 0.5302 0.6513
vn -0.0000 -0.0941 -0.9956
vn -0.5429 -0.2406 -0.8046
vn -0.0000 0.6313 0.7755
vn -0.5429 0.6471 0.5353
vn -0.0000 -0.9558 -0.2941
vn -0.5429 -0.8354 -0.0856
vn -0.5429 -0.8027 -0.2469
vn -0.0000 -0.2865 -0.9581
vn -0.5429 -0.3929 -0.7422
vn -0.0000 0.7705 0.6374
vn -0.5429 0.7391 0.3988
vn -0.0000 -0.9948 -0.1019
vn -0.5429 -0.8361 0.0790
vn -0.0000 -0.6313 -0.7755
vn -0.5429 -0.5302 -0.6513
vn -0.0000 0.8801 0.4749
vn -0.5429 0.8027 0.2469
vn -0.0000 -0.9956 0.0941
vn -0.5429 -0.8046 0.2406
vn -0.0000 -0.7705 -0.6374
vn -0.5429 -0.6471 -0.5353
vn -0.0000 0.9558 0.2941
vn -0.5429 0.8354 0.0856
vn -0.0000 -0.9581 0.2865
vn -0.5429 -0.7422 0.3930
vn -0.5429 -0.7391 -0.3988
vn -0.0000 0.9948 0.1019
vn -0.5429 0.8361 -0.0790
vn -0.0000 -0.8838 0.4679
vn -0.5429 -0.6513 0.5302
vn -0.0000 -0.8801 -0.4749
vn -0.0000 0.9956 -0.0941
vn -0.5429 0.8046 -0.2406
vn -0.0000 -0.7755 0.6313
vn -0.5429 -0.5353 0.6471
vn -0.0000 0.9581 -0.2865
vn -0.5429 0.7422 -0.3930
vn -0.0000 -0.6374 0.7705
vn -0.5429 -0.3988 0.7391
vn -0.0000 0.8838 -0.4679
vn -0.5429 0.6513 -0.5302
vn -0.0000 -0.4749 0.8801
vn -0.5429 -0.2469 0.8027
vn -0.0000 0.7755 -0.6313
vn -0.5429 0.5353 -0.6471
vn -0.0000 -0.2941 0.9558
vn -0.5429 -0.0856 0.8354
vn -0.0000 0.6374 -0.7705
vn -0.5429 0.3988 -0.7391
vn -0.0000 -0.1020 0.9948
vn -0.5429 0.0790 0.8361
vn -0.0000 0.4749 -0.8801
vn -0.9948 -0.0978 0.0292
vn -0.9878 0.1379 -0.0730
vn -0.9948 -0.0902 0.0478
vn -0.9948 0.0651 -0.0786
vn -0.9878 -0.1210 0.0985
vn -0.9878 -0.0994 0.1202
vn -0.9948 -0.1016 0.0096
vn -0.9878 0.1495 -0.0447
vn -0.9948 0.0792 -0.0644
vn -0.9878 -0.1379 0.0730
vn -0.9948 -0.1015 -0.0104
vn -0.9878 0.1553 -0.0147
vn -0.9948 0.0898 0.0485
vn -0.9878 -0.1202 -0.0994
vn -0.9878 -0.1373 -0.0741
vn -0.9948 0.0978 -0.0292
vn -0.9948 0.0902 -0.0478
vn -0.9878 0.1491 0.0459
vn -0.9878 0.1552 0.0159
vn -0.9948 0.0644 0.0792
vn -0.9948 0.0786 0.0651
vn -0.9948 0.1016 -0.0096
vn -0.9878 -0.1494 0.0447
vn -0.9948 -0.0898 -0.0485
vn -0.9948 -0.0976 -0.0300
vn -0.9948 0.0478 0.0902
vn -0.9878 -0.0985 -0.1210
vn -0.9948 0.1015 0.0104
vn -0.9878 -0.1553 0.0147
vn -0.9878 0.1202 0.0994
vn -0.9878 0.1373 0.0741
vn -0.9948 0.0292 0.0978
vn -0.9878 -0.0730 -0.1379
vn -0.9878 -0.1491 -0.0459
vn -0.9878 -0.1552 -0.0159
vn -0.9948 -0.0786 -0.0651
vn -0.9878 0.0985 0.1210
vn -0.9948 0.0096 0.1016
vn -0.9878 -0.0447 -0.1494
vn -0.9948 -0.0478 -0.0902
vn -0.9948 -0.0644 -0.0792
vn -0.9878 0.0159 -0.1552
vn -0.9878 -0.0147 -0.1553
vn -0.9948 -0.0292 -0.0978
vn -0.9878 0.0730 0.1379
vn -0.9948 -0.0300 0.0976
vn -0.9948 -0.0104 0.1015
vn -0.9948 -0.0096 -0.1016
vn -0.9878 0.0447 0.1494
vn -0.9878 0.0741 -0.1373
vn -0.9878 0.0459 -0.1491
vn -0.9878 -0.0159 0.1552
vn -0.9878 0.0147 0.1553
vn -0.9948 -0.0651 0.0786
vn -0.9948 -0.0485 0.0898
vn -0.9948 0.0300 -0.0976
vn -0.9948 0.0104 -0.1015
vn -0.9878 0.1210 -0.0985
vn -0.9878 0.0994 -0.1202
vn -0.9948 0.0485 -0.0898
vn -0.9878 -0.0459 0.1491
vn -0.9948 -0.0792 0.0644
vn -0.9878 -0.0741 0.1373
vn -0.9948 0.0976 0.0300
vn -0.0000 0.0941 0.9956
vn -0.0000 -0.4679 -0.8838
vt 0.064519 0.310612
vt 0.208919 0.310612
vt 0.208919 0.455013
s 1
g off
g Tire_RL_CarPaint_Atlas
usemtl CarPaint_Atlas
f 9/1/1 104/2/2 105/3/3
f 22/1/4 117/2/5 118/3/6
f 8/1/7 103/2/8 104/3/2
f 21/1/9 116/2/10 117/3/5
f 7/1/11 102/2/12 103/3/8
f 20/1/13 115/2/14 116/3/10
f 1/1/15 128/2/16 97/3/17
f 6/1/18 101/2/19 102/3/12
f 19/1/20 114/2/21 115/3/14
f 32/1/22 127/2/23 128/3/16
f 101/1/19 4/2/24 100/3/25
f 18/1/26 113/2/27 114/3/21
f 31/1/28 126/2/29 127/3/23
f 100/1/25 3/2/30 99/3/31
f 17/1/32 112/2/33 113/3/27
f 30/1/34 125/2/35 126/3/29
f 3/1/30 98/2/36 99/3/31
f 16/1/37 111/2/38 112/3/33
f 29/1/39 124/2/40 125/3/35
f 2/1/41 97/2/17 98/3/36
f 15/1/42 110/2/43 111/3/38
f 28/1/44 123/2/45 124/3/40
f 14/1/46 109/2/47 110/3/43
f 27/1/48 122/2/49 123/3/45
f 13/1/50 108/2/51 109/3/47
f 26/1/52 121/2/53 122/3/49
f 12/1/54 107/2/55 108/3/51
f 25/1/56 120/2/57 121/3/53
f 11/1/58 106/2/59 107/3/55
f 24/1/60 119/2/61 120/3/57
f 10/1/62 105/2/3 106/3/59
f 46/1/63 77/2/64 45/3/65
f 59/1/66 92/2/67 91/3/68
f 47/1/69 78/2/70 46/3/63
f 60/1/71 93/2/72 92/3/67
f 48/1/73 79/2/74 47/3/69
f 34/1/75 67/2/76 66/3/77
f 62/1/78 93/2/72 61/3/79
f 48/1/73 81/2/80 80/3/81
f 36/1/82 67/2/76 35/3/83
f 63/1/84 94/2/85 62/3/78
f 50/1/86 81/2/80 49/3/87
f 37/1/88 68/2/89 36/3/82
f 64/1/90 95/2/91 63/3/84
f 50/1/86 83/2/92 82/3/93
f 38/1/94 69/2/95 37/3/88
f 64/1/90 65/2/96 96/3/97
f 51/1/98 84/2/99 83/3/92
f 39/1/100 70/2/101 38/3/94
f 65/1/96 98/2/36 97/3/17
f 53/1/102 84/2/99 52/3/103
f 39/1/100 72/2/104 71/3/105
f 54/1/106 85/2/107 53/3/102
f 41/1/108 72/2/104 40/3/109
f 55/1/110 86/2/111 54/3/106
f 41/1/108 74/2/112 73/3/113
f 55/1/110 88/2/114 87/3/115
f 43/1/116 74/2/112 42/3/117
f 57/1/118 88/2/114 56/3/119
f 43/1/116 76/2/120 75/3/121
f 58/1/122 89/2/123 57/3/118
f 44/1/124 77/2/64 76/3/120
f 59/1/66 90/2/125 58/3/122
f 76/1/120 107/2/55 75/3/121
f 90/1/125 121/2/53 89/3/123
f 77/1/64 108/2/51 76/3/120
f 90/1/125 123/2/45 122/3/49
f 78/1/70 109/2/47 77/3/64
f 92/1/67 123/2/45 91/3/68
f 78/1/70 111/2/38 110/3/43
f 93/1/72 124/2/40 92/3/67
f 80/1/81 111/2/38 79/3/74
f 67/1/76 98/2/36 66/3/77
f 94/1/85 125/2/35 93/3/72
f 80/1/81 113/2/27 112/3/33
f 68/1/89 99/2/31 67/3/76
f 94/1/85 127/2/23 126/3/29
f 82/1/93 113/2/27 81/3/80
f 68/1/89 101/2/19 100/3/25
f 95/1/91 128/2/16 127/3/23
f 82/1/93 115/2/14 114/3/21
f 69/1/95 102/2/12 101/3/19
f 65/1/96 128/2/16 96/3/97
f 84/1/99 115/2/14 83/3/92
f 70/1/101 103/2/8 102/3/12
f 84/1/99 117/2/5 116/3/10
f 72/1/104 103/2/8 71/3/105
f 85/1/107 118/2/6 117/3/5
f 73/1/113 104/2/2 72/3/104
f 86/1/111 119/2/61 118/3/6
f 74/1/112 105/2/3 73/3/113
f 88/1/114 119/2/61 87/3/115
f 74/1/112 107/2/55 106/3/59
f 89/1/123 120/2/57 88/3/114
f 34/1/75 65/2/96 33/3/126
f 23/1/127 118/2/6 119/3/61
f 9/1/1 8/2/7 104/3/2
f 22/1/4 21/2/9 117/3/5
f 8/1/7 7/2/11 103/3/8
f 21/1/9 20/2/13 116/3/10
f 7/1/11 6/2/18 102/3/12
f 20/1/13 19/2/20 115/3/14
f 1/1/15 32/2/22 128/3/16
f 6/1/18 5/2/128 101/3/19
f 19/1/20 18/2/26 114/3/21
f 32/1/22 31/2/28 127/3/23
f 101/1/19 5/2/128 4/3/24
f 18/1/26 17/2/32 113/3/27
f 31/1/28 30/2/34 126/3/29
f 100/1/25 4/2/24 3/3/30
f 17/1/32 16/2/37 112/3/33
f 30/1/34 29/2/39 125/3/35
f 3/1/30 2/2/41 98/3/36
f 16/1/37 15/2/42 111/3/38
f 29/1/39 28/2/44 124/3/40
f 2/1/41 1/2/15 97/3/17
f 15/1/42 14/2/46 110/3/43
f 28/1/44 27/2/48 123/3/45
f 14/1/46 13/2/50 109/3/47
f 27/1/48 26/2/52 122/3/49
f 13/1/50 12/2/54 108/3/51
f 26/1/52 25/2/56 121/3/53
f 12/1/54 11/2/58 107/3/55
f 25/1/56 24/2/60 120/3/57
f 11/1/58 10/2/62 106/3/59
f 24/1/60 23/2/127 119/3/61
f 10/1/62 9/2/1 105/3/3
f 46/1/63 78/2/70 77/3/64
f 59/1/66 60/2/71 92/3/67
f 47/1/69 79/2/74 78/3/70
f 60/1/71 61/2/79 93/3/72
f 48/1/73 80/2/81 79/3/74
f 34/1/75 35/2/83 67/3/76
f 62/1/78 94/2/85 93/3/72
f 48/1/73 49/2/87 81/3/80
f 36/1/82 68/2/89 67/3/76
f 63/1/84 95/2/91 94/3/85
f 50/1/86 82/2/93 81/3/80
f 37/1/88 69/2/95 68/3/89
f 64/1/90 96/2/97 95/3/91
f 50/1/86 51/2/98 83/3/92
f 38/1/94 70/2/101 69/3/95
f 64/1/90 33/2/126 65/3/96
f 51/1/98 52/2/103 84/3/99
f 39/1/100 71/2/105 70/3/101
f 65/1/96 66/2/77 98/3/36
f 53/1/102 85/2/107 84/3/99
f 39/1/100 40/2/109 72/3/104
f 54/1/106 86/2/111 85/3/107
f 41/1/108 73/2/113 72/3/104
f 55/1/110 87/2/115 86/3/111
f 41/1/108 42/2/117 74/3/112
f 55/1/110 56/2/119 88/3/114
f 43/1/116 75/2/121 74/3/112
f 57/1/118 89/2/123 88/3/114
f 43/1/116 44/2/124 76/3/120
f 58/1/122 90/2/125 89/3/123
f 44/1/124 45/2/65 77/3/64
f 59/1/66 91/2/68 90/3/125
f 76/1/120 108/2/51 107/3/55
f 90/1/125 122/2/49 121/3/53
f 77/1/64 109/2/47 108/3/51
f 90/1/125 91/2/68 123/3/45
f 78/1/70 110/2/43 109/3/47
f 92/1/67 124/2/40 123/3/45
f 78/1/70 79/2/74 111/3/38
f 93/1/72 125/2/35 124/3/40
f 80/1/81 112/2/33 111/3/38
f 67/1/76 99/2/31 98/3/36
f 94/1/85 126/2/29 125/3/35
f 80/1/81 81/2/80 113/3/27
f 68/1/89 100/2/25 99/3/31
f 94/1/85 95/2/91 127/3/23
f 82/1/93 114/2/21 113/3/27
f 68/1/89 69/2/95 101/3/19
f 95/1/91 96/2/97 128/3/16
f 82/1/93 83/2/92 115/3/14
f 69/1/95 70/2/101 102/3/12
f 65/1/96 97/2/17 128/3/16
f 84/1/99 116/2/10 115/3/14
f 70/1/101 71/2/105 103/3/8
f 84/1/99 85/2/107 117/3/5
f 72/1/104 104/2/2 103/3/8
f 85/1/107 86/2/111 118/3/6
f 73/1/113 105/2/3 104/3/2
f 86/1/111 87/2/115 119/3/61
f 74/1/112 106/2/59 105/3/3
f 88/1/114 120/2/57 119/3/61
f 74/1/112 75/2/121 107/3/55
f 89/1/123 121/2/53 120/3/57
f 34/1/75 66/2/77 65/3/96
f 23/1/127 22/2/4 118/3/6
g Tire_RL.001_Mesh
v 1.805034 -0.142709 -0.040880
v 1.805034 -0.131549 -0.067525
v 1.805034 -0.115405 -0.091482
v 1.805034 -0.094897 -0.111828
v 1.805034 -0.070814 -0.127783
v 1.805034 -0.044081 -0.138733
v 1.805034 -0.015726 -0.144257
v 1.805034 0.013162 -0.144142
v 1.805034 0.041473 -0.138395
v 1.805034 0.068118 -0.127234
v 1.805034 0.092075 -0.111091
v 1.805034 0.112421 -0.090583
v 1.805034 0.128376 -0.066500
v 1.805034 0.139325 -0.039767
v 1.805034 0.144849 -0.011412
v 1.805034 0.144735 0.017477
v 1.805034 0.138988 0.045787
v 1.805034 0.127828 0.072432
v 1.805034 0.111683 0.096389
v 1.805034 0.091175 0.116735
v 1.805034 0.067093 0.132690
v 1.805034 0.040360 0.143640
v 1.805034 0.012005 0.149163
v 1.805034 -0.016883 0.149050
v 1.805034 -0.045194 0.143302
v 1.805034 -0.071839 0.132142
v 1.805034 -0.095796 0.115997
v 1.805034 -0.116142 0.095491
v 1.805034 -0.132097 0.071407
v 1.805034 -0.143047 0.044674
v 1.805034 -0.148571 0.016319
v 1.805034 -0.148456 -0.012569
v 1.809879 -0.187842 -0.054765
v 1.809879 -0.173106 -0.089950
v 1.809879 -0.151788 -0.121583
v 1.809879 -0.124710 -0.148449
v 1.809879 -0.092910 -0.169516
v 1.809879 -0.057611 -0.183974
v 1.809879 -0.020170 -0.191268
v 1.809879 0.017976 -0.191118
v 1.809879 0.055359 -0.183528
v 1.809879 0.090543 -0.168792
v 1.809879 0.122175 -0.147474
v 1.809879 0.149042 -0.120396
v 1.809879 0.170108 -0.088596
v 1.809879 0.184568 -0.053296
v 1.809879 0.191861 -0.015855
v 1.809879 0.191711 0.022290
v 1.809879 0.184121 0.059673
v 1.809879 0.169385 0.094857
v 1.809879 0.148067 0.126490
v 1.809879 0.120989 0.153356
v 1.809879 0.089188 0.174423
v 1.809879 0.053890 0.188882
v 1.809879 0.016448 0.196175
v 1.809879 -0.021697 0.196025
v 1.809879 -0.059080 0.188436
v 1.809879 -0.094264 0.173699
v 1.809879 -0.125897 0.152382
v 1.809879 -0.152763 0.125303
v 1.809879 -0.173831 0.093503
v 1.809879 -0.188289 0.058204
v 1.809879 -0.195582 0.020763
v 1.809879 -0.195432 -0.017382
v 1.796444 -0.219466 -0.064495
v 1.796444 -0.202223 -0.105660
v 1.796444 -0.177282 -0.142673
v 1.796444 -0.145599 -0.174107
v 1.796444 -0.108391 -0.198756
v 1.796444 -0.067090 -0.215672
v 1.796444 -0.023282 -0.224208
v 1.796444 0.021349 -0.224031
v 1.796444 0.065088 -0.215151
v 1.796444 0.106254 -0.197909
v 1.796444 0.143266 -0.172968
v 1.796444 0.174700 -0.141283
v 1.796444 0.199350 -0.104077
v 1.796444 0.216266 -0.062776
v 1.796444 0.224800 -0.018968
v 1.796444 0.224624 0.025663
v 1.796444 0.215745 0.069402
v 1.796444 0.198502 0.110568
v 1.796444 0.173560 0.147580
v 1.796444 0.141877 0.179014
v 1.796444 0.104670 0.203664
v 1.796444 0.063369 0.220580
v 1.796444 0.019561 0.229115
v 1.796444 -0.025070 0.228938
v 1.796444 -0.068809 0.220059
v 1.796444 -0.109975 0.202816
v 1.796444 -0.146987 0.177875
v 1.796444 -0.178421 0.146191
v 1.796444 -0.203071 0.108984
v 1.796444 -0.219987 0.067683
v 1.796444 -0.228522 0.023875
v 1.796444 -0.228345 -0.020756
vn 0.9948 -0.0902 0.0478
vn 0.9878 0.1495 -0.0447
vn 0.9948 -0.0978 0.0292
vn 0.9948 0.0651 -0.0786
vn 0.9878 -0.1210 0.0985
vn 0.9948 0.0792 -0.0644
vn 0.9948 -0.1016 0.0096
vn 0.9878 -0.1379 0.0730
vn 0.9948 0.0902 -0.0478
vn 0.9878 0.1553 -0.0147
vn 0.9948 -0.1015 -0.0104
vn 0.9948 0.0898 0.0485
vn 0.9878 -0.1202 -0.0994
vn 0.9948 0.0786 0.0651
vn 0.9878 -0.1495 0.0447
vn 0.9948 0.0978 -0.0292
vn 0.9878 0.1491 0.0459
vn 0.9948 -0.0976 -0.0300
vn 0.9878 -0.0985 -0.1210
vn 0.9948 0.0644 0.0792
vn 0.9948 0.1016 -0.0096
vn 0.9948 -0.0898 -0.0485
vn 0.9948 0.0478 0.0902
vn 0.9878 -0.1553 0.0147
vn 0.9948 0.1015 0.0104
vn 0.9878 0.1202 0.0994
vn 0.9948 -0.0786 -0.0651
vn 0.9878 -0.0730 -0.1379
vn 0.9948 0.0292 0.0978
vn 0.9878 -0.1491 -0.0459
vn 0.9948 0.0976 0.0300
vn 0.9878 0.0985 0.1210
vn 0.9948 -0.0644 -0.0792
vn 0.9878 -0.0447 -0.1495
vn 0.9948 0.0096 0.1016
vn 0.9265 -0.3311 -0.1787
vn 0.9878 -0.1373 -0.0741
vn 0.9948 -0.0478 -0.0902
vn 0.9878 0.0159 -0.1552
vn 0.9948 -0.0104 0.1015
vn 0.9878 0.0730 0.1379
vn 0.9948 -0.0292 -0.0978
vn 0.9948 -0.0300 0.0976
vn 0.9878 0.0447 0.1495
vn 0.9948 -0.0096 -0.1016
vn 0.9878 0.0741 -0.1373
vn 0.9948 -0.0485 0.0898
vn 0.9878 -0.0159 0.1552
vn 0.9948 0.0104 -0.1015
vn 0.9948 -0.0651 0.0786
vn 0.9948 0.0300 -0.0976
vn 0.9878 0.1210 -0.0985
vn 0.9948 -0.0792 0.0644
vn 0.9878 -0.0741 0.1373
vn 0.9948 0.0485 -0.0898
vn 0.9878 0.1379 -0.0730
vn 0.9265 0.2398 -0.2899
vn 0.9878 0.0994 -0.1202
vn 0.9265 -0.1106 0.3596
vn 0.9878 -0.0459 0.1491
vn 0.9265 0.2918 -0.2375
vn 0.9265 -0.2398 0.2899
vn 0.9878 -0.0994 0.1202
vn 0.9265 0.3325 -0.1760
vn 0.9265 0.3746 -0.0354
vn 0.9265 -0.2918 0.2375
vn 0.9878 0.1552 0.0159
vn 0.9265 -0.3325 0.1760
vn 0.9265 0.3596 0.1106
vn 0.9265 -0.2899 -0.2398
vn 0.9265 -0.3746 0.0354
vn 0.9878 0.1373 0.0741
vn 0.9265 -0.1760 -0.3325
vn 0.9265 -0.3743 -0.0384
vn 0.9878 -0.1552 -0.0159
vn 0.9265 0.2899 0.2398
vn 0.9265 -0.1078 -0.3605
vn 0.9265 -0.3596 -0.1106
vn 0.9265 -0.0354 -0.3746
vn 0.9878 -0.0147 -0.1553
vn 0.9265 0.1760 0.3325
vn 0.9265 0.1078 0.3605
vn 0.9265 0.0384 -0.3743
vn 0.9878 0.0459 -0.1491
vn 0.9265 0.0354 0.3746
vn 0.9878 0.0147 0.1553
vn 0.9265 0.1106 -0.3596
vn 0.9265 -0.0384 0.3743
vn 0.9265 -0.1787 0.3311
vn 0.9265 0.3605 -0.1078
vn 0.9265 0.3743 0.0384
vn 0.9265 -0.3605 0.1078
vn 0.9265 -0.2375 -0.2918
vn 0.9265 0.3311 0.1787
vn 0.9265 0.2375 0.2918
vn 0.9265 0.1787 -0.3311
vt 0.350245 0.306774
vt 0.330426 0.310129
vt 0.334352 0.300621
vt 0.369149 0.146236
vt 0.388207 0.118809
vt 0.381932 0.148156
vt 0.319846 0.290311
vt 0.407787 0.122686
vt 0.396357 0.154572
vt 0.313823 0.299036
vt 0.309147 0.274997
vt 0.310755 0.279108
vt 0.295669 0.266201
vt 0.303806 0.261084
vt 0.426238 0.130295
vt 0.404882 0.161880
vt 0.288572 0.268360
vt 0.303843 0.261284
vt 0.288994 0.247372
vt 0.297992 0.241420
vt 0.417055 0.150097
vt 0.299973 0.244239
vt 0.298540 0.222985
vt 0.342036 0.329494
vt 0.342270 0.304032
vt 0.364925 0.309762
vt 0.276976 0.230354
vt 0.299720 0.228651
vt 0.286137 0.227601
vt 0.301658 0.204021
vt 0.319251 0.298211
vt 0.322416 0.292662
vt 0.276915 0.210380
vt 0.301635 0.212772
vt 0.287180 0.207650
vt 0.304218 0.192470
vt 0.282398 0.297478
vt 0.305893 0.283358
vt 0.304555 0.197954
vt 0.300714 0.170244
vt 0.313055 0.175728
vt 0.280784 0.190778
vt 0.310316 0.183984
vt 0.324425 0.162457
vt 0.288397 0.172303
vt 0.318698 0.171404
vt 0.327524 0.140868
vt 0.338759 0.150417
vt 0.313597 0.141517
vt 0.329376 0.160701
vt 0.354848 0.143859
vt 0.341929 0.152287
vt 0.363538 0.124028
vt 0.371082 0.134004
vt 0.348649 0.122722
vt 0.355885 0.146489
vt 0.364675 0.309705
vt 0.348113 0.327432
vt 0.335496 0.106847
vt 0.344714 0.130692
vt 0.321343 0.113790
vt 0.330198 0.130390
vt 0.356611 0.101746
vt 0.380815 0.111783
vt 0.366386 0.100081
vt 0.368243 0.118838
vt 0.326754 0.336117
vt 0.295313 0.319424
vt 0.390071 0.100089
vt 0.299659 0.284967
vt 0.413254 0.104716
vt 0.273909 0.276491
vt 0.273549 0.277174
vt 0.457150 0.125828
vt 0.442844 0.141365
vt 0.280866 0.249938
vt 0.267353 0.228497
vt 0.313626 0.333634
vt 0.335251 0.310165
vt 0.266762 0.223313
vt 0.268551 0.204862
vt 0.294375 0.316056
vt 0.274356 0.181864
vt 0.292115 0.188287
vt 0.274776 0.183834
vt 0.282211 0.164645
vt 0.283680 0.158315
vt 0.312671 0.154233
vt 0.294172 0.145265
vt 0.299488 0.155677
vt 0.296648 0.136292
vt 0.307076 0.128489
vt 0.343183 0.104744
vt 0.387311 0.100188
vt 0.311130 0.332511
vt 0.281284 0.298456
vt 0.435056 0.113746
vt 0.268440 0.252259
vt 0.269875 0.251155
vt 0.470498 0.141020
vt 0.270620 0.204313
vt 0.314546 0.118654
s 1
g off
g Tire_RL.001_elReyCars
usemtl elReyCars
f 141/4/129 174/5/130 142/6/131
f 155/7/132 188/8/133 156/9/134
f 174/5/130 143/10/135 142/6/131
f 156/9/134 189/11/136 157/12/137
f 175/13/138 144/14/139 143/10/135
f 130/15/140 163/16/141 131/17/142
f 157/12/137 190/18/143 158/19/144
f 144/14/139 177/20/145 145/21/146
f 131/17/142 164/22/147 132/23/148
f 190/18/143 159/24/149 158/19/144
f 177/20/145 146/25/150 145/21/146
f 164/22/147 133/26/151 132/23/148
f 191/27/152 160/28/153 159/29/149
f 146/25/150 179/30/154 147/31/155
f 165/32/156 134/33/157 133/26/151
f 160/28/153 161/34/158 129/35/159
f 147/31/155 180/36/160 148/37/161
f 166/38/162 135/39/163 134/33/157
f 161/34/158 194/40/164 162/41/165
f 180/36/160 149/42/166 148/37/161
f 135/39/163 168/43/167 136/44/168
f 181/45/169 150/46/170 149/42/166
f 168/43/167 137/47/171 136/44/168
f 182/48/172 151/49/173 150/46/170
f 137/47/171 170/50/174 138/51/175
f 151/49/173 184/52/176 152/53/177
f 170/50/174 139/54/178 138/51/175
f 184/52/176 153/55/179 152/53/177
f 139/54/178 172/56/180 140/57/181
f 153/55/179 186/58/182 154/59/183
f 140/60/181 173/61/184 141/4/129
f 186/58/182 155/7/132 154/59/183
f 203/62/185 172/56/180 171/63/186
f 217/64/187 186/58/182 185/65/188
f 204/66/189 173/67/184 172/56/180
f 186/58/182 219/68/190 187/69/191
f 205/70/192 174/5/130 173/61/184
f 219/68/190 188/8/133 187/69/191
f 174/5/130 207/71/193 175/13/138
f 220/72/194 189/11/136 188/8/133
f 207/71/193 176/73/195 175/13/138
f 194/40/164 163/16/141 162/41/165
f 221/74/196 190/18/143 189/11/136
f 176/73/195 209/75/197 177/20/145
f 195/76/198 164/22/147 163/16/141
f 190/18/143 223/77/199 191/78/152
f 209/75/197 178/79/200 177/20/145
f 164/22/147 197/80/201 165/32/156
f 191/27/152 224/81/202 192/82/203
f 178/79/200 211/83/204 179/30/154
f 165/32/156 198/84/205 166/38/162
f 192/82/203 193/85/206 161/34/158
f 211/83/204 180/36/160 179/30/154
f 166/38/162 199/86/207 167/87/208
f 180/36/160 213/88/209 181/45/169
f 199/86/207 168/43/167 167/87/208
f 181/45/169 214/89/210 182/48/172
f 200/90/211 169/91/212 168/43/167
f 182/48/172 215/92/213 183/93/214
f 201/94/215 170/50/174 169/91/212
f 215/92/213 184/52/176 183/93/214
f 170/50/174 203/62/185 171/63/186
f 216/95/216 185/65/188 184/52/176
f 161/34/158 130/15/140 129/35/159
f 141/4/129 173/61/184 174/5/130
f 155/7/132 187/69/191 188/8/133
f 174/5/130 175/13/138 143/10/135
f 156/9/134 188/8/133 189/11/136
f 175/13/138 176/73/195 144/14/139
f 130/15/140 162/41/165 163/16/141
f 157/12/137 189/11/136 190/18/143
f 144/14/139 176/73/195 177/20/145
f 131/17/142 163/16/141 164/22/147
f 190/18/143 191/78/152 159/24/149
f 177/20/145 178/79/200 146/25/150
f 164/22/147 165/32/156 133/26/151
f 191/27/152 192/82/203 160/28/153
f 146/25/150 178/79/200 179/30/154
f 165/32/156 166/38/162 134/33/157
f 160/28/153 192/82/203 161/34/158
f 147/31/155 179/30/154 180/36/160
f 166/38/162 167/87/208 135/39/163
f 161/34/158 193/85/206 194/40/164
f 180/36/160 181/45/169 149/42/166
f 135/39/163 167/87/208 168/43/167
f 181/45/169 182/48/172 150/46/170
f 168/43/167 169/91/212 137/47/171
f 182/48/172 183/93/214 151/49/173
f 137/47/171 169/91/212 170/50/174
f 151/49/173 183/93/214 184/52/176
f 170/50/174 171/63/186 139/54/178
f 184/52/176 185/65/188 153/55/179
f 139/54/178 171/63/186 172/56/180
f 153/55/179 185/65/188 186/58/182
f 140/57/181 172/56/180 173/67/184
f 186/58/182 187/69/191 155/7/132
f 203/62/185 204/66/189 172/56/180
f 217/64/187 218/96/217 186/58/182
f 204/66/189 205/97/192 173/67/184
f 186/58/182 218/96/217 219/68/190
f 205/70/192 206/98/218 174/5/130
f 219/68/190 220/72/194 188/8/133
f 174/5/130 206/98/218 207/71/193
f 220/72/194 221/74/196 189/11/136
f 207/71/193 208/99/219 176/73/195
f 194/40/164 195/76/198 163/16/141
f 221/74/196 222/100/220 190/18/143
f 176/73/195 208/99/219 209/75/197
f 195/76/198 196/101/221 164/22/147
f 190/18/143 222/100/220 223/77/199
f 209/75/197 210/102/222 178/79/200
f 164/22/147 196/101/221 197/80/201
f 191/78/152 223/77/199 224/103/202
f 178/79/200 210/102/222 211/83/204
f 165/32/156 197/80/201 198/84/205
f 192/82/203 224/81/202 193/85/206
f 211/83/204 212/104/223 180/36/160
f 166/38/162 198/84/205 199/86/207
f 180/36/160 212/104/223 213/88/209
f 199/86/207 200/90/211 168/43/167
f 181/45/169 213/88/209 214/89/210
f 200/90/211 201/94/215 169/91/212
f 182/48/172 214/89/210 215/92/213
f 201/94/215 202/105/224 170/50/174
f 215/92/213 216/95/216 184/52/176
f 170/50/174 202/105/224 203/62/185
f 216/95/216 217/64/187 185/65/188
f 161/34/158 162/41/165 130/15/140
g Tire_RL.002_Mesh
v 1.806493 -0.052056 -0.020605
v 1.806493 -0.042473 -0.034988
v 1.806493 0.004559 -0.052410
v 1.806493 0.021198 -0.047742
v 1.806493 0.052303 -0.008396
v 1.806493 0.053005 0.008873
v 1.806493 0.025195 0.050613
v 1.806493 0.008989 0.056617
v 1.806493 -0.039302 0.043067
v 1.806493 -0.050020 0.029509
v 1.811113 -0.078904 -0.029587
v 1.811113 -0.059211 -0.058153
v 1.811113 0.004804 -0.080720
v 1.811113 0.038058 -0.070819
v 1.811113 0.079303 -0.016910
v 1.811113 0.080161 0.017776
v 1.811113 0.041637 0.073661
v 1.811113 0.008914 0.085196
v 1.811113 -0.056140 0.065826
v 1.811113 -0.077223 0.038269
v 1.808259 -0.103186 -0.044646
v 1.808259 -0.081923 -0.075490
v 1.808259 0.011623 -0.108468
v 1.808259 0.047529 -0.097776
v 1.808259 0.107799 -0.018999
v 1.808259 0.108727 0.018452
v 1.808259 0.052429 0.100117
v 1.808259 0.017098 0.112572
v 1.808259 -0.077966 0.084266
v 1.808259 -0.100731 0.054512
v 1.793334 -0.123950 -0.060780
v 1.793334 -0.104388 -0.089157
v 1.797198 0.020552 -0.133200
v 1.797198 0.053584 -0.123365
v 1.793334 0.134081 -0.018151
v 1.793334 0.134934 0.016303
v 1.793334 0.059743 0.125374
v 1.793334 0.027239 0.136833
v 1.793334 -0.099727 0.099027
v 1.793334 -0.120669 0.071655
v 1.808132 0.043140 -0.042589
v 1.808132 0.053385 -0.029199
v 1.808132 -0.030793 -0.054264
v 1.808132 -0.014892 -0.059869
v 1.808132 -0.065160 -0.004410
v 1.808132 -0.064742 0.012444
v 1.808132 -0.011791 0.065345
v 1.808132 -0.027949 0.060534
v 1.808132 0.054884 0.031334
v 1.808132 0.045315 0.045214
v 1.806493 -0.028916 -0.045705
v 1.806493 -0.012709 -0.051709
v 1.806493 0.035582 -0.038160
v 1.806493 0.046300 -0.024602
v 1.806493 0.048335 0.025513
v 1.806493 0.038753 0.039896
v 1.806493 -0.008280 0.057319
v 1.806493 -0.024919 0.052649
v 1.806493 -0.056024 0.013303
v 1.806493 -0.056725 -0.003965
v 1.793334 0.124685 -0.051311
v 1.793334 0.083131 -0.105624
v 1.793334 -0.013888 -0.134513
v 1.793334 -0.078385 -0.111776
v 1.793334 -0.135840 -0.028431
v 1.793334 -0.134147 0.039934
v 1.793334 -0.072637 0.120332
v 1.793334 -0.007094 0.139847
v 1.793334 0.088377 0.106192
v 1.793334 0.127192 0.049888
v 1.793334 -0.041097 0.134230
v 1.793334 -0.139312 0.005858
v 1.793334 -0.047572 -0.127218
v 1.793334 0.107340 -0.081092
v 1.793334 0.111341 0.080492
v 1.793334 0.068358 -0.114495
v 1.793334 0.003332 -0.133857
v 1.793334 -0.091386 -0.100466
v 1.793334 -0.129895 -0.044606
v 1.793334 -0.127408 0.055794
v 1.793334 -0.086182 0.109680
v 1.793334 0.010073 0.138341
v 1.793334 0.074061 0.115783
v 1.793334 0.131063 0.033096
v 1.793334 0.129383 -0.034730
v 1.804894 -0.126123 -0.061906
v 1.804894 -0.106213 -0.090787
v 1.804894 0.020951 -0.135615
v 1.804894 0.054570 -0.125604
v 1.804894 0.136499 -0.018518
v 1.804894 0.137368 0.016550
v 1.804894 0.060840 0.127561
v 1.804894 0.027758 0.139224
v 1.804894 -0.101469 0.100746
v 1.804894 -0.122784 0.072886
v 1.804894 0.126938 -0.052267
v 1.804894 0.084644 -0.107547
v 1.804894 -0.014102 -0.136949
v 1.804894 -0.079746 -0.113808
v 1.804894 -0.138224 -0.028982
v 1.804894 -0.136501 0.040600
v 1.804894 -0.073895 0.122430
v 1.804894 -0.007187 0.142293
v 1.804894 0.089983 0.108038
v 1.804894 0.129488 0.050732
v 1.804894 -0.041795 0.136574
v 1.804894 -0.141757 0.005918
v 1.804894 -0.048386 -0.129526
v 1.804894 0.109283 -0.082578
v 1.804894 0.113355 0.081880
v 1.804894 0.069607 -0.116575
v 1.804894 0.003424 -0.136282
v 1.804894 -0.092979 -0.102298
v 1.804894 -0.132173 -0.045443
v 1.804894 -0.129642 0.056744
v 1.804894 -0.087682 0.111587
v 1.804894 0.010285 0.140758
v 1.804894 0.075411 0.117800
v 1.804894 0.133428 0.033641
v 1.804894 0.131718 -0.035393
v 1.804894 -0.138197 -0.068160
v 1.804894 -0.116353 -0.099848
v 1.804894 0.023167 -0.149031
v 1.804894 0.060053 -0.138048
v 1.804894 0.149944 -0.020555
v 1.804894 0.150897 0.017920
v 1.804894 0.066932 0.139719
v 1.804894 0.030635 0.152514
v 1.804894 -0.111148 0.110297
v 1.804894 -0.134534 0.079730
v 1.804894 0.139453 -0.057584
v 1.804894 0.093049 -0.118236
v 1.804894 -0.015291 -0.150496
v 1.804894 -0.087314 -0.125106
v 1.804894 -0.151474 -0.032036
v 1.804894 -0.149583 0.044307
v 1.804894 -0.080896 0.134088
v 1.804894 -0.007704 0.155881
v 1.804894 0.098908 0.118298
v 1.804894 0.142251 0.055424
v 1.804894 -0.045676 0.149607
v 1.804894 -0.155352 0.006256
v 1.804894 -0.052907 -0.142350
v 1.804894 0.120082 -0.090841
v 1.804894 0.124551 0.089599
v 1.804894 0.076552 -0.128141
v 1.804894 0.003938 -0.149763
v 1.804894 -0.101833 -0.112476
v 1.804894 -0.144836 -0.050098
v 1.804894 -0.142060 0.062019
v 1.804894 -0.096022 0.122192
v 1.804894 0.011465 0.154197
v 1.804894 0.082920 0.129008
v 1.804894 0.146574 0.036672
v 1.804894 0.144698 -0.039069
v 1.801794 -0.001861 0.002454
v 1.789801 -0.082839 -0.024397
v 1.789801 -0.055760 -0.063678
v 1.789801 -0.001348 -0.082859
v 1.789801 0.044378 -0.069244
v 1.789801 0.079437 -0.023421
v 1.789801 0.080617 0.024273
v 1.789801 0.047871 0.071775
v 1.789801 0.002875 0.087637
v 1.789801 -0.052421 0.071172
v 1.789801 -0.081410 0.033280
v 1.787374 -0.103480 -0.037197
v 1.787374 -0.075066 -0.078414
v 1.787374 0.004449 -0.106445
v 1.787374 0.052428 -0.092158
v 1.787374 0.103658 -0.025197
v 1.787374 0.104897 0.024848
v 1.787374 0.057045 0.094263
v 1.787374 0.009831 0.110907
v 1.787374 -0.070974 0.086847
v 1.787374 -0.101392 0.047087
v 1.787087 0.048698 -0.045249
v 1.787087 0.057406 -0.033867
v 1.787087 -0.031604 -0.060371
v 1.787087 -0.018090 -0.065135
v 1.787087 -0.071156 -0.002997
v 1.787087 -0.070802 0.011328
v 1.787087 -0.014724 0.070763
v 1.787087 -0.028458 0.066674
v 1.787087 0.059131 0.035797
v 1.787087 0.050997 0.047595
v 1.774509 0.118011 -0.052662
v 1.774509 0.082690 -0.098828
v 1.774509 -0.017236 -0.128583
v 1.774509 -0.072058 -0.109257
v 1.774509 -0.131234 -0.023415
v 1.774509 -0.129796 0.034696
v 1.774509 -0.066442 0.117503
v 1.774509 -0.010731 0.134091
v 1.774509 0.087601 0.099427
v 1.774509 0.120593 0.051569
v 1.774509 -0.039634 0.129316
v 1.774509 -0.134187 0.005731
v 1.774509 -0.045868 -0.122382
v 1.774509 0.103268 -0.077977
v 1.774509 0.107120 0.077582
v 1.774509 0.070132 -0.106368
v 1.774509 -0.002600 -0.128025
v 1.774509 -0.083109 -0.099643
v 1.774509 -0.126182 -0.037164
v 1.774509 -0.124068 0.048177
v 1.774509 -0.077956 0.108448
v 1.774509 0.003861 0.132810
v 1.774509 0.075432 0.107580
v 1.774509 0.123884 0.037295
v 1.774509 0.122005 -0.038569
v 1.606022 -0.123950 -0.060780
v 1.606022 -0.104388 -0.089157
v 1.606022 0.020552 -0.133200
v 1.606022 0.053584 -0.123365
v 1.606022 0.134081 -0.018151
v 1.606022 0.134934 0.016303
v 1.606022 0.059743 0.125374
v 1.606022 0.027240 0.136833
v 1.606022 -0.099728 0.099028
v 1.606022 -0.120669 0.071655
v 1.606022 0.124686 -0.051310
v 1.606022 0.083131 -0.105624
v 1.606022 -0.013888 -0.134513
v 1.606022 -0.078384 -0.111776
v 1.606022 -0.135840 -0.028431
v 1.606022 -0.134147 0.039934
v 1.606022 -0.072636 0.120332
v 1.606022 -0.007094 0.139847
v 1.606022 0.088378 0.106193
v 1.606022 0.127192 0.049888
v 1.606022 -0.041097 0.134230
v 1.606022 -0.139312 0.005858
v 1.606022 -0.047572 -0.127218
v 1.606022 0.107340 -0.081092
v 1.606022 0.111342 0.080492
v 1.606022 -0.135530 -0.066779
v 1.606022 -0.114113 -0.097845
v 1.606022 0.022677 -0.146067
v 1.606022 0.058843 -0.135299
v 1.606022 0.146974 -0.020105
v 1.606022 0.147909 0.017618
v 1.606022 0.065587 0.137033
v 1.606022 0.030000 0.149579
v 1.606022 -0.109011 0.108187
v 1.606022 -0.131939 0.078219
v 1.606022 0.136689 -0.056410
v 1.606022 0.091194 -0.115875
v 1.606022 -0.015029 -0.147503
v 1.606022 -0.085643 -0.122610
v 1.606022 -0.148548 -0.031361
v 1.606022 -0.146695 0.043488
v 1.606022 -0.079349 0.131513
v 1.606022 -0.007590 0.152880
v 1.606022 0.096937 0.116032
v 1.606022 0.139433 0.054387
v 1.606022 -0.044819 0.146729
v 1.606022 -0.152349 0.006181
v 1.606022 -0.051908 -0.139518
v 1.606022 0.117698 -0.089016
v 1.606022 0.122078 0.087894
v 1.801794 -0.020516 -0.014744
v 1.801794 -0.024917 -0.008138
v 1.801794 0.008732 -0.020603
v 1.801794 0.001088 -0.022747
v 1.801794 0.023342 0.005402
v 1.801794 0.023019 -0.002530
v 1.801794 0.003123 0.027333
v 1.801794 0.010567 0.024575
v 1.801794 -0.023982 0.014882
v 1.801794 -0.019059 0.021109
v 1.801794 -0.014288 -0.019668
v 1.801794 -0.006844 -0.022426
v 1.801794 0.015339 -0.016202
v 1.801794 0.020261 -0.009974
v 1.801794 0.021197 0.013046
v 1.801794 0.016796 0.019652
v 1.801794 -0.004809 0.027656
v 1.801794 -0.012452 0.025511
v 1.801794 -0.026740 0.007437
v 1.801794 -0.027063 -0.000495
vn 0.9988 -0.0285 -0.0388
vn 0.9869 -0.0297 -0.1585
vn 0.9869 -0.0807 -0.1394
vn 0.9988 0.0002 0.0481
vn 0.9869 -0.0691 0.1457
vn 0.9869 -0.0167 0.1602
vn 0.9988 0.0281 -0.0391
vn 0.9869 0.1416 -0.0772
vn 0.9869 0.1076 -0.1198
vn 0.9988 -0.0457 0.0151
vn 0.9869 -0.1599 -0.0208
vn 0.9869 -0.1575 0.0337
vn 0.9988 0.0459 0.0146
vn 0.9869 0.1172 0.1108
vn 0.9869 0.1472 0.0654
vn 0.9417 0.0922 0.3236
vn 0.9989 -0.0020 -0.0477
vn 0.9610 0.0290 -0.2750
vn 0.9989 -0.0265 0.0398
vn 0.9417 -0.2793 0.1877
vn 0.9989 0.0448 -0.0166
vn 0.9417 0.3363 0.0123
vn 0.9989 -0.0460 -0.0129
vn 0.9417 -0.2883 -0.1736
vn 0.9989 0.0296 0.0375
vn 0.8665 0.2185 0.4488
vn 0.9417 0.1312 0.3099
vn 0.9096 -0.0225 -0.4149
vn 0.9610 0.1261 -0.2460
vn 0.8665 -0.3593 0.3465
vn 0.9417 -0.2542 0.2205
vn 0.8665 0.4943 -0.0691
vn 0.9417 0.3353 -0.0290
vn 0.8665 -0.3760 -0.3283
vn 0.9417 -0.2648 -0.2076
vn 0.9834 0.1800 0.0214
vn 0.9846 0.1732 0.0217
vn 0.9836 0.1776 -0.0306
vn 0.9834 0.0760 -0.1646
vn 0.9846 0.0741 -0.1580
vn 0.9836 0.0258 -0.1784
vn 0.9843 0.0169 -0.1758
vn 0.9834 -0.1330 -0.1231
vn 0.9846 -0.1274 -0.1193
vn 0.9836 -0.1617 -0.0796
vn 0.9843 -0.1619 -0.0704
vn 0.9834 -0.1582 0.0885
vn 0.9846 -0.1529 0.0843
vn 0.9836 -0.1257 0.1292
vn 0.9843 -0.1170 0.1323
vn 0.9834 0.0352 0.1778
vn 0.9846 0.0329 0.1714
vn 0.9836 0.0840 0.1595
vn 0.9843 0.0896 0.1522
vn 0.9096 0.2458 -0.3350
vn 0.8726 0.3981 -0.2830
vn 0.8726 -0.1785 -0.4547
vn 0.8591 -0.3359 -0.3861
vn 0.8591 -0.4803 -0.1766
vn 0.8665 -0.4405 -0.2346
vn 0.8665 -0.4284 0.2562
vn 0.8591 -0.4710 0.2001
vn 0.8591 -0.3164 0.4023
vn 0.8665 0.1112 0.4866
vn 0.8591 0.0448 0.5098
vn 0.8591 0.2848 0.4252
vn 0.8665 0.4971 0.0446
vn 0.8591 0.4987 0.1150
vn 0.8591 0.4924 -0.1395
vn 0.2847 -0.3860 0.8775
vn 0.2188 -0.4880 0.8450
vn 0.2054 -0.4854 0.8498
vn 0.2055 -0.9536 -0.2198
vn 0.2071 -0.9183 -0.3375
vn 0.2070 0.2792 -0.9377
vn 0.2070 0.5036 -0.8388
vn 0.2070 -0.9734 -0.0986
vn 0.2071 -0.9673 0.1466
vn 0.2070 0.0856 0.9746
vn 0.2188 -0.0538 0.9743
vn 0.2054 -0.0586 0.9769
vn 0.2055 -0.9416 0.2668
vn 0.2071 0.9780 -0.0242
vn 0.2070 0.9533 0.2198
vn 0.2071 -0.2070 -0.9562
vn 0.2071 -0.4383 -0.8746
vn 0.2071 -0.2071 -0.9562
vn 0.2071 0.7295 0.6519
vn 0.2055 0.6423 0.7384
vn 0.2070 0.3253 0.9227
vn 0.2071 0.8454 -0.4924
vn 0.2071 0.6964 -0.6872
vn 0.2055 0.9186 0.3376
vn 0.2054 0.9186 0.3376
vn 0.2070 -0.7770 0.5945
vn 0.2071 -0.9004 0.3825
vn 0.2055 0.9007 -0.3827
vn 0.2071 -0.8055 -0.5553
vn 0.2071 -0.6421 -0.7381
vn 0.2055 0.6050 -0.7693
vn 0.2054 0.6050 -0.7693
vn 0.2071 -0.6047 0.7690
vn 0.2055 -0.0856 -0.9749
vn 0.2054 -0.0856 -0.9749
vn 0.2847 -0.1569 0.9457
vn 0.3030 -0.1553 0.9402
vn 0.2055 -0.5447 -0.8131
vn 0.2070 0.5445 0.8128
vn 0.2071 0.8687 0.4499
vn 0.2071 0.9413 -0.2667
vn 0.2071 0.0372 -0.9776
vn 0.2070 -0.4383 -0.8746
vn 0.3030 -0.3843 0.8721
vn 1.0000 -0.0000 -0.0000
vn 0.9963 0.0420 0.0747
vn 0.9963 0.0630 0.0581
vn 0.9843 0.1724 -0.0382
vn 0.9963 0.0747 -0.0420
vn 0.9963 0.0779 0.0358
vn 0.9963 -0.0100 0.0851
vn 0.9963 0.0168 0.0840
vn 0.9963 0.0851 0.0100
vn 0.9963 -0.0358 0.0779
vn 0.9963 -0.0851 -0.0100
vn 0.9963 -0.0840 0.0168
vn 0.9963 -0.0747 0.0420
vn 0.9963 -0.0581 0.0630
vn 0.9963 -0.0168 -0.0840
vn 0.9963 -0.0420 -0.0747
vn 0.9963 -0.0630 -0.0581
vn 0.9963 -0.0779 -0.0358
vn 0.9963 0.0581 -0.0630
vn 0.9963 0.0100 -0.0851
vn 0.9963 0.0840 -0.0168
vn 0.9963 0.0358 -0.0779
vn 0.3140 -0.1921 -0.9298
vn 0.2878 0.1833 -0.9400
vn 0.3192 -0.2420 -0.9163
vn 0.2811 0.6238 0.7293
vn 0.2878 0.2297 0.9298
vn 0.2808 0.6338 0.7208
vn 0.3140 -0.1459 0.9381
vn 0.2890 0.2159 0.9327
vn 0.2884 0.5448 0.7874
vn 0.3061 0.6248 0.7183
vn 0.2811 0.5869 -0.7593
vn 0.2808 0.8813 -0.3801
vn 0.2808 0.5973 -0.7512
vn 0.2811 0.9035 0.3235
vn 0.2878 0.9506 -0.1161
vn 0.2889 0.9485 -0.1299
vn 0.3141 -0.3911 0.8651
vn 0.2878 -0.7008 0.6527
vn 0.3192 -0.3428 0.8835
vn 0.3140 0.6694 -0.6732
vn 0.2878 0.3607 -0.8872
vn 0.2890 0.3735 -0.8815
vn 0.2884 0.9172 -0.2747
vn 0.3061 0.8762 -0.3723
vn 0.2811 -0.5408 -0.7928
vn 0.2808 -0.0891 -0.9556
vn 0.2808 -0.5299 -0.8003
vn 0.2884 0.0221 -0.9572
vn 0.3061 -0.0832 -0.9484
vn 0.2884 -0.8868 0.3612
vn 0.3061 -0.9159 0.2596
vn 0.2829 -0.8767 0.3891
vn 0.2884 -0.9036 -0.3169
vn 0.3061 -0.9277 -0.2139
vn 0.2885 0.0695 0.9550
vn 0.3061 -0.0362 0.9513
vn 0.2829 0.0992 0.9540
vn 0.3307 0.7244 0.6049
vn 0.3192 0.8211 0.4732
vn 0.3140 0.8471 0.4286
vn 0.2885 0.9297 0.2290
vn 0.3061 0.8936 0.3284
vn 0.2829 0.9380 0.2005
vn 0.3307 -0.9373 0.1101
vn 0.3192 -0.9462 -0.0530
vn 0.3295 -0.9377 0.1098
vn 0.3307 0.7991 -0.5020
vn 0.3192 0.7038 -0.6347
vn 0.2885 0.5051 -0.8134
vn 0.3061 0.5885 -0.7483
vn 0.2829 0.4805 -0.8301
vn 0.3307 -0.1850 0.9254
vn 0.3295 -0.1853 0.9258
vn 0.3307 -0.2305 -0.9152
vn 0.3192 -0.3861 -0.8655
vn 0.3140 -0.4334 -0.8447
vn 0.2884 -0.6175 -0.7317
vn 0.3061 -0.5299 -0.7909
vn 0.2828 -0.6410 -0.7135
vn 0.3307 0.8230 0.4619
vn 0.3192 0.7343 0.5991
vn 0.3295 0.8232 0.4623
vn 0.3307 -0.9416 -0.0635
vn 0.3192 -0.9424 0.0998
vn 0.3141 -0.9373 0.1512
vn 0.2628 -0.7944 -0.5476
vn 0.2829 -0.8949 -0.3453
vn 0.2884 -0.9035 -0.3169
vn 0.3307 0.6936 -0.6400
vn 0.3192 0.7967 -0.5133
vn 0.3295 0.6941 -0.6401
vn 0.2628 -0.7663 0.5863
vn 0.2829 -0.6049 0.7444
vn 0.2884 -0.5806 0.7614
vn 0.3307 -0.3514 0.8759
vn 0.3192 -0.1963 0.9271
vn 0.2628 0.3208 0.9100
vn 0.2829 0.5210 0.8053
vn 0.2884 0.5447 0.7874
vn 0.3307 -0.3943 -0.8574
vn 0.3295 -0.3942 -0.8579
vn 0.2628 0.9646 -0.0239
vn 0.2829 0.9269 -0.2467
vn 0.2884 0.9173 -0.2747
vn 0.2811 -0.9211 0.2693
vn 0.2808 -0.9364 -0.2105
vn 0.2808 -0.9248 0.2566
vn 0.2812 0.8864 -0.3679
vn 0.2878 0.9552 0.0689
vn 0.2628 0.2753 -0.9247
vn 0.2828 0.0518 -0.9578
vn 0.2884 0.0222 -0.9573
vn 0.2889 0.1695 -0.9422
vn 0.3140 0.8249 -0.4700
vn 0.2628 0.2754 -0.9247
vn 0.2811 -0.0759 -0.9567
vn 0.2878 -0.8133 0.5057
vn 0.2890 -0.8203 0.4936
vn 0.2627 0.9646 -0.0239
vn 0.2811 -0.5009 0.8186
vn 0.2808 -0.0417 0.9589
vn 0.2811 -0.0285 0.9593
vn 0.2878 -0.8373 -0.4648
vn 0.2890 -0.8437 -0.4524
vn 0.3140 -0.9436 -0.1046
vn 0.2890 -0.6910 0.6626
vn 0.2890 0.9537 0.0828
vn 0.2811 -0.9333 -0.2234
vn 0.2878 -0.7323 -0.6172
vn 0.3140 0.7019 0.6393
vn 0.2877 0.4042 0.8682
vn 0.2808 0.8991 0.3360
vn 0.2808 -0.4896 0.8255
vn 0.2889 -0.7229 -0.6276
vn 0.2884 -0.5805 0.7614
vn 0.3061 -0.4901 0.8162
vn 0.2889 0.4167 0.8619
vn -0.0000 0.6182 -0.7860
vn -0.0000 0.7118 -0.7024
vn -0.0000 -0.7942 0.6076
vn -0.0000 -0.6181 0.7861
vn -0.0000 -0.0875 -0.9962
vn -0.0000 0.0381 -0.9993
vn -0.0000 -0.2116 -0.9773
vn -0.0000 0.3325 0.9431
vn -0.0000 0.5566 0.8308
vn -0.0000 -0.9204 0.3910
vn -0.0000 -0.9621 0.2726
vn -0.0000 -0.9887 0.1499
vn -0.0000 0.9997 -0.0248
vn -0.0000 0.9621 -0.2726
vn -0.0000 0.7457 0.6663
vn -0.0000 0.8880 0.4599
vn -0.0000 -0.5566 -0.8308
vn -0.0000 -0.4480 -0.8940
vn -0.0000 -0.9744 -0.2246
vn -0.0000 -0.9386 -0.3450
vn -0.0000 -0.9949 -0.1007
vn -0.0000 0.2854 -0.9584
vn -0.0000 -0.3945 0.9189
vn -0.0000 -0.1630 0.9866
vn -0.0000 -0.1724 0.9850
vn -0.0000 0.0875 0.9962
vn -0.0000 -0.0381 0.9993
vn -0.0000 0.6563 0.7545
vn -0.0000 0.5148 -0.8573
vn -1.0000 -0.0000 -0.0000
vn -0.0000 0.9744 0.2246
vn -0.0000 0.9386 0.3450
vn -0.0000 0.8641 -0.5033
vn -0.0000 -0.6563 -0.7545
vn -0.0000 -0.8233 -0.5676
vn -0.0000 -0.4032 0.9151
vn -0.0000 -0.5148 0.8573
vn -0.0000 0.9204 -0.3910
vn 0.3061 -0.0833 -0.9484
vn 0.3061 -0.9160 0.2595
vn 0.3295 0.7249 0.6049
vn 0.3295 0.7993 -0.5025
vn 0.3294 -0.2309 -0.9155
vn 0.3295 -0.9421 -0.0632
vn 0.3295 -0.3513 0.8764
vn -0.0000 -0.2117 -0.9773
vt 0.345024 0.205702
vt 0.360251 0.206843
vt 0.355177 0.211869
vt 0.360930 0.192076
vt 0.372435 0.201712
vt 0.365488 0.202806
vt 0.384231 0.191942
vt 0.387659 0.206958
vt 0.381304 0.203517
vt 0.346401 0.246728
vt 0.352028 0.232764
vt 0.355245 0.239065
vt 0.338204 0.225053
vt 0.350865 0.217482
vt 0.349633 0.224281
vt 0.347754 0.187683
vt 0.354960 0.196013
vt 0.358981 0.181288
vt 0.374460 0.190152
vt 0.362159 0.258202
vt 0.343998 0.260884
vt 0.349933 0.251328
vt 0.330385 0.238733
vt 0.340310 0.234462
vt 0.327949 0.223491
vt 0.340819 0.212060
vt 0.327715 0.188898
vt 0.337083 0.197871
vt 0.356093 0.169025
vt 0.373484 0.179238
vt 0.350768 0.280057
vt 0.356862 0.268247
vt 0.325504 0.257781
vt 0.336675 0.251782
vt 0.319078 0.207101
vt 0.330717 0.209732
vt 0.347115 0.232460
vt 0.350465 0.231293
vt 0.349961 0.239248
vt 0.358742 0.243183
vt 0.373874 0.198467
vt 0.374074 0.202177
vt 0.366426 0.199576
vt 0.366590 0.203415
vt 0.348295 0.217411
vt 0.351809 0.218322
vt 0.346949 0.224722
vt 0.350665 0.225734
vt 0.358382 0.247233
vt 0.360309 0.244205
vt 0.364849 0.250743
vt 0.373998 0.248440
vt 0.371981 0.260001
vt 0.366947 0.247555
vt 0.356832 0.203261
vt 0.359088 0.206001
vt 0.351567 0.208250
vt 0.353889 0.211192
vt 0.373730 0.283118
vt 0.365343 0.281546
vt 0.372965 0.270914
vt 0.348487 0.172858
vt 0.322302 0.199848
vt 0.316453 0.229561
vt 0.316155 0.221659
vt 0.336759 0.271769
vt 0.330719 0.265771
vt 0.389520 0.181892
vt 0.387209 0.167578
vt 0.395605 0.170078
vt 0.339435 0.178015
vt 0.346824 0.173871
vt 0.323031 0.196052
vt 0.318875 0.243623
vt 0.317242 0.235528
vt 0.330702 0.264332
vt 0.365560 0.287188
vt 0.311540 0.237154
vt 0.313929 0.227928
vt 0.366116 0.163265
vt 0.380850 0.158719
vt 0.379477 0.163927
vt 0.320705 0.260759
vt 0.313679 0.245385
vt 0.341071 0.174311
vt 0.347094 0.167488
vt 0.325868 0.267756
vt 0.317080 0.250347
vt 0.310079 0.237403
vt 0.315079 0.237441
vt 0.323268 0.185160
vt 0.336086 0.173517
vt 0.316901 0.197909
vt 0.330807 0.181119
vt 0.339283 0.169772
vt 0.348381 0.285493
vt 0.333248 0.276256
vt 0.310754 0.229296
vt 0.342678 0.283811
vt 0.334648 0.271456
vt 0.344795 0.279343
vt 0.326748 0.270268
vt 0.312979 0.214494
vt 0.312988 0.199475
vt 0.317442 0.202226
vt 0.389308 0.161687
vt 0.357581 0.282521
vt 0.343449 0.168805
vt 0.355273 0.165192
vt 0.318130 0.192447
vt 0.324040 0.192058
vt 0.310959 0.221191
vt 0.308165 0.213886
vt 0.324000 0.261029
vt 0.397988 0.164640
vt 0.319434 0.190160
vt 0.353228 0.168263
vt 0.320334 0.264604
vt 0.313968 0.205542
vt 0.365254 0.158357
vt 0.372729 0.167034
vt 0.372452 0.163123
vt 0.353866 0.158847
vt 0.382190 0.150407
vt 0.304762 0.229038
vt 0.304896 0.220617
vt 0.309045 0.229085
vt 0.298362 0.210178
vt 0.300805 0.248375
vt 0.322315 0.274995
vt 0.357301 0.287420
vt 0.330900 0.293755
vt 0.311333 0.173739
vt 0.326430 0.154498
vt 0.394376 0.150078
vt 0.402108 0.157332
vt 0.314084 0.187610
vt 0.327586 0.178015
vt 0.329060 0.281563
vt 0.336259 0.147999
vt 0.350570 0.163819
vt 0.315630 0.268577
vt 0.312807 0.251940
vt 0.330833 0.274676
vt 0.312404 0.271600
vt 0.305887 0.182812
vt 0.345859 0.143092
vt 0.374010 0.287028
vt 0.355436 0.299568
vt 0.299016 0.238803
vt 0.365428 0.141067
vt 0.345264 0.161553
vt 0.307060 0.265080
vt 0.304148 0.237634
vt 0.311208 0.195807
vt 0.323484 0.174050
vt 0.317083 0.282647
vt 0.308027 0.203818
vt 0.364061 0.218431
vt 0.362571 0.221327
vt 0.353629 0.238031
vt 0.366264 0.233094
vt 0.362038 0.224535
vt 0.369301 0.214641
vt 0.366384 0.216123
vt 0.362498 0.227772
vt 0.380943 0.247340
vt 0.373896 0.236023
vt 0.377122 0.235507
vt 0.363890 0.228797
vt 0.365389 0.231716
vt 0.367716 0.234038
vt 0.370654 0.235530
vt 0.367699 0.216985
vt 0.365362 0.219321
vt 0.363853 0.222267
vt 0.363355 0.225546
vt 0.380145 0.217052
vt 0.377214 0.215525
vt 0.370647 0.215475
vt 0.363959 0.230729
vt 0.373942 0.214973
vt 0.348224 0.254282
vt 0.341074 0.258129
vt 0.335521 0.228457
vt 0.339371 0.222050
vt 0.329770 0.196705
vt 0.359983 0.257037
vt 0.356022 0.255162
vt 0.338297 0.209836
vt 0.335187 0.231861
vt 0.327736 0.231028
vt 0.340514 0.204649
vt 0.330006 0.257687
vt 0.347155 0.201825
vt 0.350083 0.198672
vt 0.355211 0.175919
vt 0.338557 0.265777
vt 0.340740 0.268458
vt 0.321625 0.228329
vt 0.345121 0.179436
vt 0.342032 0.180661
vt 0.365021 0.270343
vt 0.322205 0.235305
vt 0.321707 0.239423
vt 0.351610 0.183845
vt 0.333302 0.202675
vt 0.379584 0.171086
vt 0.376123 0.170126
vt 0.337923 0.255845
vt 0.324150 0.204155
vt 0.322251 0.207122
vt 0.382009 0.179103
vt 0.354423 0.183272
vt 0.320156 0.224338
vt 0.332326 0.204143
vt 0.356118 0.275692
vt 0.328244 0.231199
vt 0.330861 0.192783
vt 0.327536 0.255298
vt 0.342105 0.240962
vt 0.340291 0.236932
vt 0.364786 0.262649
vt 0.358667 0.173274
vt 0.367486 0.170355
vt 0.359293 0.189497
vt 0.323557 0.248066
vt 0.371141 0.190636
vt 0.353224 0.191614
vt 0.335780 0.185653
vt 0.347635 0.273084
vt 0.342400 0.248915
vt 0.378223 0.186660
vt 0.319973 0.215264
vt 0.339913 0.217637
vt 0.366597 0.191227
vt 0.360255 0.275548
vt 0.289469 0.305094
vt 0.452718 0.305094
vt 0.452718 0.468343
vt 0.373894 0.225536
vt 0.384377 0.225609
vt 0.383846 0.228816
vt 0.382359 0.231714
vt 0.380038 0.234024
vt 0.382451 0.219416
vt 0.383915 0.222371
vt 0.297812 0.229201
vt 0.346487 0.299679
vt 0.344256 0.292798
vt 0.307345 0.253972
vt 0.364281 0.299751
vt 0.384221 0.145706
vt 0.336716 0.164387
vt 0.301992 0.193877
s 1
g off
g Tire_RL.002_elReyCars
usemtl elReyCars
f 241/106/225 232/107/226 231/108/227
f 237/109/228 228/110/229 227/111/230
f 243/112/231 234/113/232 233/114/233
f 239/115/234 230/116/235 229/117/236
f 235/118/237 226/119/238 225/120/239
f 241/106/225 252/121/240 242/122/241
f 247/123/242 238/124/243 237/109/228
f 243/125/231 254/126/244 244/127/245
f 239/115/234 250/128/246 240/129/247
f 245/130/248 236/131/249 235/118/237
f 261/132/250 252/121/240 251/133/251
f 257/134/252 248/135/253 247/123/242
f 263/136/254 254/126/244 253/137/255
f 259/138/256 250/128/246 249/139/257
f 245/130/248 256/140/258 246/141/259
f 269/142/260 225/120/239 284/143/261
f 270/144/262 234/145/232 244/127/245
f 284/143/261 270/144/262 269/142/260
f 272/146/263 233/114/233 282/147/264
f 271/148/265 232/107/226 242/122/241
f 271/148/265 282/147/264 281/149/266
f 274/150/267 231/108/227 280/151/268
f 273/152/269 230/116/235 240/129/247
f 273/152/269 280/151/268 279/153/270
f 266/154/271 229/117/236 278/155/272
f 265/156/273 228/157/229 238/158/243
f 265/156/273 278/155/272 277/159/274
f 268/160/275 227/111/230 276/161/276
f 267/162/277 226/119/238 236/131/249
f 267/162/277 276/161/276 275/163/278
f 258/164/279 300/165/280 248/166/253
f 247/123/242 301/167/281 257/134/252
f 256/140/258 302/168/282 246/141/259
f 245/130/248 303/169/283 255/170/284
f 264/171/285 304/172/286 254/126/244
f 253/173/255 305/174/287 263/175/254
f 262/176/288 306/177/289 252/121/240
f 251/133/251 307/178/290 261/132/250
f 260/179/291 308/180/292 250/128/246
f 249/139/257 309/181/293 259/138/256
s 2
f 258/164/294 335/182/295 300/165/296
f 343/183/297 294/184/298 308/180/297
f 295/185/299 326/186/300 291/187/300
f 260/179/301 314/188/302 315/189/301
f 287/190/303 336/191/304 301/167/305
f 259/138/302 344/192/306 314/188/302
f 296/193/307 324/194/308 289/195/308
f 262/176/309 316/196/310 317/197/311
f 256/140/312 337/198/313 302/168/313
f 297/199/314 322/200/303 287/190/303
f 264/171/315 318/201/316 319/202/315
f 289/195/308 338/203/317 303/169/318
f 333/204/319 285/205/320 298/206/319
f 264/171/315 339/207/321 304/172/321
f 299/208/322 328/209/323 293/210/323
f 291/187/300 340/211/324 305/174/325
f 335/182/295 286/212/326 300/165/296
f 262/176/309 341/213/327 306/177/328
f 257/134/329 336/191/304 312/214/330
f 293/210/323 342/215/331 307/178/331
f 337/198/313 288/216/332 302/168/313
f 260/179/301 343/183/297 308/180/297
f 255/170/333 338/203/317 310/217/333
f 294/184/298 334/218/322 299/208/322
f 339/207/321 290/219/334 304/172/321
f 286/212/326 333/204/319 298/206/319
f 263/175/316 340/211/324 318/220/316
f 323/221/332 297/199/314 288/216/332
f 341/213/327 292/222/335 306/177/328
f 325/223/334 296/193/307 290/219/334
f 255/170/333 311/224/312 256/140/312
f 285/205/320 344/192/306 309/181/306
f 261/132/336 342/215/331 316/196/310
f 292/222/335 330/225/299 295/185/299
f 258/226/294 312/214/330 313/227/337
s 1
f 313/227/338 347/228/338 348/229/338
f 310/217/338 373/230/338 345/231/338
f 329/232/338 369/233/338 334/218/338
f 314/188/338 350/234/338 315/189/338
f 374/235/338 325/223/338 339/207/338
f 321/236/338 368/237/338 333/204/338
f 317/197/338 351/238/338 352/239/338
f 318/220/338 375/240/338 353/241/338
f 358/242/338 332/243/338 323/221/338
f 318/201/338 354/244/338 319/202/338
f 376/245/338 327/246/338 341/213/338
f 360/247/338 331/248/338 325/223/338
f 320/249/338 379/250/338 344/192/338
f 316/196/338 377/251/338 351/238/338
f 362/252/338 330/225/338 327/246/338
f 313/253/338 370/254/338 335/182/338
f 378/255/338 329/232/338 343/183/338
f 365/256/338 326/186/338 330/225/338
f 322/200/338 371/257/338 336/191/338
f 314/188/338 379/250/338 349/258/338
f 331/248/338 359/259/338 324/194/338
f 311/224/338 372/260/338 337/198/338
f 367/261/338 322/200/338 332/243/338
f 324/194/338 373/230/338 338/203/338
f 333/204/338 355/262/338 320/249/338
f 319/202/338 374/235/338 339/207/338
f 369/233/338 328/209/338 334/218/338
f 326/186/338 375/240/338 340/211/338
f 370/254/338 321/236/338 335/182/338
f 317/197/338 376/245/338 341/213/338
f 312/214/338 371/257/338 347/228/338
f 328/209/338 377/251/338 342/215/338
f 311/224/338 345/231/338 346/263/338
f 372/260/338 323/221/338 337/198/338
f 315/189/338 378/255/338 343/183/338
f 226/119/238 496/264/339 486/265/340
f 283/266/341 494/267/342 234/145/232
f 226/119/238 487/268/343 225/120/239
f 276/161/276 489/269/344 497/270/345
f 225/120/239 505/271/346 284/143/261
f 227/272/230 488/273/347 489/274/344
f 277/159/274 488/273/347 228/157/229
f 276/161/276 496/264/339 275/163/278
f 229/117/236 490/275/348 491/276/349
f 229/117/236 499/277/350 278/155/272
f 278/155/272 498/278/351 277/159/274
f 231/108/227 492/279/352 493/280/353
f 279/153/270 490/275/348 230/116/235
f 279/153/270 501/281/354 500/282/355
f 233/114/233 494/283/342 495/284/356
f 231/108/227 501/281/354 280/151/268
f 282/147/264 502/285/357 281/149/266
f 232/107/226 502/285/357 492/279/352
f 283/266/341 505/271/346 504/286/358
f 233/114/233 503/287/359 282/147/264
s 4
f 249/139/360 385/288/361 395/289/362
f 273/152/363 386/290/364 409/291/365
f 250/128/366 386/290/364 240/129/367
f 288/216/368 428/292/369 302/168/369
f 266/154/370 401/293/371 402/294/372
f 274/150/373 387/295/374 241/106/375
f 245/130/376 381/296/377 391/297/378
s 8
f 246/141/379 382/298/380 236/131/381
f 290/219/382 430/299/383 304/172/383
f 268/160/384 403/300/385 404/301/386
s 4
f 292/222/387 432/302/388 306/177/388
s 8
f 285/205/389 435/303/390 411/304/391
f 294/184/392 434/305/393 308/180/393
s 16
f 287/190/394 427/306/395 413/307/396
s 4
f 300/165/397 394/308/398 248/166/399
s 16
f 289/195/400 429/309/401 415/310/402
s 8
f 301/167/403 393/311/404 427/306/405
f 302/168/406 392/312/407 246/141/379
f 291/187/408 431/313/409 417/314/410
s 4
f 303/169/411 391/297/378 429/309/412
f 304/172/413 400/315/414 254/126/415
s 16
f 293/210/416 433/316/417 419/317/418
f 305/174/419 399/318/420 431/313/421
f 306/177/422 398/319/423 252/121/424
f 299/208/425 420/320/426 294/184/427
s 4
f 307/178/428 397/321/429 433/316/430
s 8
f 298/206/431 412/322/432 286/212/433
s 4
f 308/180/434 396/323/435 250/128/366
s 16
f 297/199/436 414/324/437 288/216/438
s 4
f 309/181/439 395/289/362 435/303/440
s 16
f 296/193/441 416/325/442 290/219/443
s 4
f 269/142/444 406/326/445 405/327/446
f 265/156/447 384/328/448 401/293/371
s 8
f 295/185/449 418/329/450 292/222/451
s 4
f 266/154/370 385/288/361 239/115/452
f 251/133/453 387/295/374 397/321/429
s 8
f 295/185/449 417/314/410 421/330/454
f 267/162/455 382/298/380 403/300/385
s 16
f 252/121/424 388/331/456 242/122/457
f 296/193/441 415/310/402 422/332/458
f 271/148/459 408/333/460 272/146/461
s 8
f 268/160/384 383/334/462 237/109/463
f 247/123/464 383/334/462 393/311/404
s 16
f 297/199/436 413/307/396 423/335/436
s 4
f 269/142/444 381/296/377 235/118/465
f 248/166/399 384/328/448 238/158/466
s 8
f 298/206/431 411/304/391 424/336/431
s 4
f 270/144/467 390/337/468 406/326/445
s 16
f 253/173/469 389/338/470 399/318/420
f 299/208/425 419/317/418 425/339/425
s 4
f 274/150/373 409/291/365 410/340/471
s 16
f 271/148/459 388/331/456 407/341/472
s 4
f 254/126/415 390/337/468 244/127/473
s 16
f 286/212/474 426/342/475 300/165/475
f 272/146/461 389/338/470 243/112/476
s 32
f 305/343/477 263/344/478 444/345/478
f 459/343/479 286/344/480 298/345/479
f 306/343/481 453/344/482 443/345/483
f 297/343/484 449/344/485 288/345/485
f 446/343/486 309/344/487 440/345/488
f 457/343/489 290/344/490 296/345/489
f 256/343/491 436/344/492 255/345/492
f 307/343/493 261/344/494 442/345/494
f 308/343/495 455/344/496 441/345/497
f 456/343/498 292/344/482 295/345/498
f 258/343/499 438/344/500 257/345/501
f 448/343/502 287/344/502 301/345/503
f 437/343/491 256/344/491 302/345/504
f 452/343/505 295/344/498 291/345/505
f 260/343/497 440/344/488 259/345/488
s 1
f 447/343/506 464/344/506 439/345/506
s 32
f 261/343/494 443/344/483 442/345/494
f 450/343/507 296/344/489 289/345/507
f 450/343/507 289/344/507 303/345/508
f 287/343/502 458/344/484 297/345/484
f 264/343/509 444/344/478 263/345/478
s 1
f 453/343/506 468/344/506 443/345/506
s 32
f 285/343/486 459/344/479 298/345/479
f 454/343/510 299/344/511 293/345/510
f 460/343/511 294/344/496 299/345/511
s 1
f 458/343/506 474/344/506 449/345/506
f 445/343/506 469/344/506 444/345/506
f 446/343/506 465/344/506 471/345/506
f 451/343/506 482/344/506 476/345/506
f 454/343/506 467/344/506 479/345/506
f 455/343/506 466/344/506 441/345/506
f 456/343/506 478/344/506 453/345/506
f 448/343/506 463/344/506 473/345/506
f 437/343/506 474/344/506 462/345/506
f 452/343/506 481/344/506 456/345/506
f 457/343/506 475/344/506 482/345/506
f 436/343/506 475/344/506 450/345/506
f 448/343/506 483/344/506 458/345/506
f 451/343/506 470/344/506 445/345/506
f 459/343/506 471/344/506 484/345/506
f 444/343/506 477/344/506 452/345/506
f 454/343/506 485/344/506 460/345/506
f 436/343/506 462/344/506 461/345/506
f 438/343/506 464/344/506 463/345/506
f 455/343/506 485/344/506 480/345/506
f 441/343/506 465/344/506 440/345/506
f 459/343/506 472/344/506 447/345/506
f 443/343/506 467/344/506 442/345/506
s 32
f 439/343/512 258/344/499 300/345/513
f 304/343/514 451/344/490 445/345/509
s 1
f 380/346/338 487/347/343 486/348/340
f 380/346/338 489/274/344 488/273/347
f 380/346/338 491/276/349 490/275/348
f 380/346/338 493/280/353 492/279/352
f 380/346/338 495/284/356 494/283/342
f 380/346/338 496/349/339 497/350/345
f 380/346/338 498/278/351 499/277/350
f 380/346/338 500/282/355 501/281/354
f 380/346/338 502/285/357 503/287/359
f 380/346/338 504/351/358 505/352/346
f 380/346/338 486/348/340 496/349/339
f 380/346/338 497/350/345 489/274/344
f 380/346/338 488/273/347 498/278/351
f 380/346/338 499/277/350 491/276/349
f 380/346/338 490/275/348 500/282/355
f 380/346/338 501/281/354 493/280/353
f 380/346/338 492/279/352 502/285/357
f 380/346/338 503/287/359 495/284/356
f 380/346/338 494/283/342 504/351/358
f 380/346/338 505/352/346 487/347/343
f 241/106/225 242/122/241 232/107/226
f 237/109/228 238/124/243 228/110/229
f 243/125/231 244/127/245 234/145/232
f 239/115/234 240/129/247 230/116/235
f 235/118/237 236/131/249 226/119/238
f 241/106/225 251/133/251 252/121/240
f 247/123/242 248/135/253 238/124/243
f 243/125/231 253/137/255 254/126/244
f 239/115/234 249/139/257 250/128/246
f 245/130/248 246/141/259 236/131/249
f 261/132/250 262/176/288 252/121/240
f 257/134/252 258/226/279 248/135/253
f 263/136/254 264/171/285 254/126/244
f 259/138/256 260/179/291 250/128/246
f 245/130/248 255/170/284 256/140/258
f 269/142/260 235/118/237 225/120/239
f 270/144/262 283/266/341 234/145/232
f 284/143/261 283/266/341 270/144/262
f 272/146/263 243/112/231 233/114/233
f 271/148/265 281/149/266 232/107/226
f 271/148/265 272/146/263 282/147/264
f 274/150/267 241/106/225 231/108/227
f 273/152/269 279/153/270 230/116/235
f 273/152/269 274/150/267 280/151/268
f 266/154/271 239/115/234 229/117/236
f 265/156/273 277/159/274 228/157/229
f 265/156/273 266/154/271 278/155/272
f 268/160/275 237/109/228 227/111/230
f 267/162/277 275/163/278 226/119/238
f 267/162/277 268/160/275 276/161/276
s 2
f 258/164/294 313/253/337 335/182/295
f 343/183/297 329/232/298 294/184/298
f 295/185/299 330/225/299 326/186/300
f 260/179/301 259/138/302 314/188/302
f 287/190/303 322/200/303 336/191/304
f 259/138/302 309/181/306 344/192/306
f 296/193/307 331/248/307 324/194/308
f 262/176/309 261/132/336 316/196/310
f 256/140/312 311/224/312 337/198/313
f 297/199/314 332/243/314 322/200/303
f 264/171/315 263/136/316 318/201/316
f 289/195/308 324/194/308 338/203/317
f 333/204/319 320/249/320 285/205/320
f 264/171/315 319/202/315 339/207/321
f 299/208/322 334/218/322 328/209/323
f 291/187/300 326/186/300 340/211/324
f 335/182/295 321/236/326 286/212/326
f 262/176/309 317/197/311 341/213/327
f 257/134/329 301/167/305 336/191/304
f 293/210/323 328/209/323 342/215/331
f 337/198/313 323/221/332 288/216/332
f 260/179/301 315/189/301 343/183/297
f 255/170/333 303/169/318 338/203/317
f 294/184/298 329/232/298 334/218/322
f 339/207/321 325/223/334 290/219/334
f 286/212/326 321/236/326 333/204/319
f 263/175/316 305/174/325 340/211/324
f 323/221/332 332/243/314 297/199/314
f 341/213/327 327/246/335 292/222/335
f 325/223/334 331/248/307 296/193/307
f 255/170/333 310/217/333 311/224/312
f 285/205/320 320/249/320 344/192/306
f 261/132/336 307/178/331 342/215/331
f 292/222/335 327/246/335 330/225/299
f 258/226/294 257/134/329 312/214/330
s 1
f 313/227/338 312/214/338 347/228/338
f 310/217/338 338/203/338 373/230/338
f 329/232/338 364/353/338 369/233/338
f 314/188/338 349/258/338 350/234/338
f 374/235/338 360/247/338 325/223/338
f 321/236/338 356/354/338 368/237/338
f 317/197/338 316/196/338 351/238/338
f 318/220/338 340/211/338 375/240/338
f 358/242/338 367/261/338 332/243/338
f 318/201/338 353/355/338 354/244/338
f 376/245/338 362/252/338 327/246/338
f 360/247/338 366/356/338 331/248/338
f 320/249/338 355/262/338 379/250/338
f 316/196/338 342/215/338 377/251/338
f 362/252/338 365/256/338 330/225/338
f 313/253/338 348/357/338 370/254/338
f 378/255/338 364/353/338 329/232/338
f 365/256/338 361/358/338 326/186/338
f 322/200/338 357/359/338 371/257/338
f 314/188/338 344/192/338 379/250/338
f 331/248/338 366/356/338 359/259/338
f 311/224/338 346/263/338 372/260/338
f 367/261/338 357/359/338 322/200/338
f 324/194/338 359/259/338 373/230/338
f 333/204/338 368/237/338 355/262/338
f 319/202/338 354/244/338 374/235/338
f 369/233/338 363/360/338 328/209/338
f 326/186/338 361/358/338 375/240/338
f 370/254/338 356/354/338 321/236/338
f 317/197/338 352/239/338 376/245/338
f 312/214/338 336/191/338 371/257/338
f 328/209/338 363/360/338 377/251/338
f 311/224/338 310/217/338 345/231/338
f 372/260/338 358/242/338 323/221/338
f 315/189/338 350/234/338 378/255/338
f 226/119/238 275/163/278 496/264/339
f 283/266/341 504/286/358 494/267/342
f 226/119/238 486/265/340 487/268/343
f 276/161/276 227/111/230 489/269/344
f 225/120/239 487/268/343 505/271/346
f 227/272/230 228/157/229 488/273/347
f 277/159/274 498/278/351 488/273/347
f 276/161/276 497/270/345 496/264/339
f 229/117/236 230/116/235 490/275/348
f 229/117/236 491/276/349 499/277/350
f 278/155/272 499/277/350 498/278/351
f 231/108/227 232/107/226 492/279/352
f 279/153/270 500/282/355 490/275/348
f 279/153/270 280/151/268 501/281/354
f 233/114/233 234/113/232 494/283/342
f 231/108/227 493/280/353 501/281/354
f 282/147/264 503/287/359 502/285/357
f 232/107/226 281/149/266 502/285/357
f 283/266/341 284/143/261 505/271/346
f 233/114/233 495/284/356 503/287/359
s 4
f 249/139/360 239/115/452 385/288/361
f 273/152/363 240/129/367 386/290/364
f 250/128/366 396/323/435 386/290/364
s 16
f 288/216/438 414/324/437 428/292/369
s 4
f 266/154/370 265/156/447 401/293/371
f 274/150/373 410/340/471 387/295/374
f 245/130/376 235/118/465 381/296/377
s 8
f 246/141/379 392/312/407 382/298/380
s 16
f 290/219/443 416/325/442 430/299/383
s 8
f 268/160/384 267/162/455 403/300/385
f 292/222/451 418/329/450 432/302/515
f 285/205/389 309/181/516 435/303/390
s 16
f 294/184/427 420/320/426 434/305/393
f 287/190/394 301/167/395 427/306/395
s 4
f 300/165/397 426/342/517 394/308/398
s 16
f 289/195/400 303/169/401 429/309/401
s 8
f 301/167/403 247/123/464 393/311/404
f 302/168/406 428/292/518 392/312/407
f 291/187/408 305/174/409 431/313/409
s 4
f 303/169/411 245/130/376 391/297/378
f 304/172/413 430/299/519 400/315/414
s 16
f 293/210/416 307/178/417 433/316/417
f 305/174/419 253/173/469 399/318/420
f 306/177/422 432/302/520 398/319/423
f 299/208/425 425/339/425 420/320/426
s 4
f 307/178/428 251/133/453 397/321/429
s 8
f 298/206/431 424/336/431 412/322/432
s 4
f 308/180/434 434/305/521 396/323/435
s 16
f 297/199/436 423/335/436 414/324/437
s 4
f 309/181/439 249/139/360 395/289/362
s 16
f 296/193/441 422/332/458 416/325/442
s 4
f 269/142/444 270/144/467 406/326/445
f 265/156/447 238/158/466 384/328/448
s 8
f 295/185/449 421/330/454 418/329/450
s 4
f 266/154/370 402/294/372 385/288/361
f 251/133/453 241/106/375 387/295/374
s 8
f 295/185/449 291/187/408 417/314/410
f 267/162/455 236/131/381 382/298/380
s 16
f 252/121/424 398/319/423 388/331/456
f 296/193/441 289/195/400 415/310/402
f 271/148/459 407/341/472 408/333/460
s 8
f 268/160/384 404/301/386 383/334/462
f 247/123/464 237/109/463 383/334/462
s 16
f 297/199/436 287/190/394 413/307/396
s 4
f 269/142/444 405/327/446 381/296/377
f 248/166/399 394/308/398 384/328/448
s 8
f 298/206/431 285/205/389 411/304/391
s 4
f 270/144/467 244/127/473 390/337/468
s 16
f 253/173/469 243/112/476 389/338/470
f 299/208/425 293/210/416 419/317/418
s 4
f 274/150/373 273/152/363 409/291/365
s 16
f 271/148/459 242/122/457 388/331/456
s 4
f 254/126/415 400/315/414 390/337/468
s 8
f 286/212/433 412/322/432 426/342/475
s 16
f 272/146/461 408/333/460 389/338/470
s 32
f 444/343/478 452/344/505 305/345/477
f 452/343/505 291/344/505 305/345/477
f 459/343/479 447/344/480 286/345/480
f 443/343/483 262/344/522 306/345/481
f 306/343/481 292/344/482 453/345/482
f 297/343/484 458/344/484 449/345/485
f 285/343/486 309/344/487 446/345/486
f 309/343/487 259/344/488 440/345/488
f 457/343/489 451/344/490 290/345/490
f 256/343/491 437/344/491 436/345/492
f 442/343/494 454/344/510 307/345/493
f 454/343/510 293/344/510 307/345/493
f 441/343/497 260/344/497 308/345/495
f 308/343/495 294/344/496 455/345/496
f 456/343/498 453/344/482 292/345/482
f 258/343/499 439/344/512 438/345/500
f 301/343/503 257/344/501 438/345/500
f 438/343/500 448/344/502 301/345/503
f 302/343/504 288/344/485 449/345/485
f 449/343/485 437/344/491 302/345/504
f 452/343/505 456/344/498 295/345/498
f 260/343/497 441/344/497 440/345/488
s 1
f 447/343/506 472/344/506 464/345/506
s 32
f 261/343/494 262/344/522 443/345/483
f 450/343/507 457/344/489 296/345/489
f 303/343/508 255/344/492 436/345/492
f 436/343/492 450/344/507 303/345/508
f 287/343/502 448/344/502 458/345/484
f 264/343/509 445/344/509 444/345/478
s 1
f 453/343/506 478/344/506 468/345/506
s 32
f 285/343/486 446/344/486 459/345/479
f 454/343/510 460/344/511 299/345/511
f 460/343/511 455/344/496 294/345/496
s 1
f 458/343/506 483/344/506 474/345/506
f 445/343/506 470/344/506 469/345/506
f 446/343/506 440/344/506 465/345/506
f 451/343/506 457/344/506 482/345/506
f 454/343/506 442/344/506 467/345/506
f 455/343/506 480/344/506 466/345/506
f 456/343/506 481/344/506 478/345/506
f 448/343/506 438/344/506 463/345/506
f 437/343/506 449/344/506 474/345/506
f 452/343/506 477/344/506 481/345/506
f 457/343/506 450/344/506 475/345/506
f 436/343/506 461/344/506 475/345/506
f 448/343/506 473/344/506 483/345/506
f 451/343/506 476/344/506 470/345/506
f 459/343/506 446/344/506 471/345/506
f 444/343/506 469/344/506 477/345/506
f 454/343/506 479/344/506 485/345/506
f 436/343/506 437/344/506 462/345/506
f 438/343/506 439/344/506 464/345/506
f 455/343/506 460/344/506 485/345/506
f 441/343/506 466/344/506 465/345/506
f 459/343/506 484/344/506 472/345/506
f 443/343/506 468/344/506 467/345/506
s 32
f 300/343/513 286/344/480 447/345/480
f 447/343/480 439/344/512 300/345/513
f 445/343/509 264/344/509 304/345/514
f 304/343/514 290/344/490 451/345/490
